{"glyphs":{"0":{"ha":1337,"x_min":0,"x_max":0,"o":"m 528 309 b 478 474 495 349 478 404 b 530 637 478 543 495 597 b 670 696 563 676 610 696 b 808 637 729 696 775 676 b 860 474 842 597 860 543 b 809 311 860 406 843 351 b 670 252 777 272 730 252 b 528 309 608 252 560 271 z m 917 18 b 1107 115 991 39 1054 72 l 1107 116 b 1230 271 1162 159 1202 211 b 1270 474 1257 330 1270 398 b 1230 677 1270 550 1257 618 b 1107 833 1202 738 1161 789 b 917 930 1054 876 991 909 b 668 963 844 952 760 963 b 420 930 575 963 492 952 b 229 833 347 909 283 876 b 109 677 176 789 135 738 b 68 474 81 618 68 550 b 109 271 68 398 81 330 b 229 115 135 211 176 159 l 229 115 b 420 18 283 72 347 39 b 668 -15 492 -4 575 -15 b 917 18 760 -15 844 -4 z "},"1":{"ha":913,"x_min":0,"x_max":0,"o":"m 262 503 b 270 500 264 501 267 500 b 275 501 271 500 273 500 l 445 581 l 445 12 b 456 0 445 5 449 1 l 833 0 b 846 12 840 0 844 4 l 846 935 b 833 947 846 941 842 945 l 557 947 b 551 945 555 947 553 946 l 75 708 b 68 698 70 705 68 702 b 69 692 68 696 68 694 b 72 688 70 691 71 690 z "},"2":{"ha":1189,"x_min":0,"x_max":0,"o":"m 917 385 b 1025 477 960 418 996 449 b 1092 567 1055 507 1077 536 b 1115 663 1107 599 1115 631 b 1079 781 1115 706 1103 745 b 972 878 1055 817 1019 848 b 813 942 925 907 872 928 b 621 963 754 956 690 963 b 334 923 521 963 425 949 b 73 803 243 897 156 857 b 68 793 70 800 68 797 b 70 787 68 791 68 789 b 73 783 71 785 71 784 l 281 597 b 289 594 283 595 286 594 b 295 595 291 594 293 595 b 448 669 351 628 401 652 b 574 692 494 684 536 692 b 654 674 606 692 633 686 b 680 633 671 664 680 650 b 667 600 680 623 676 612 b 627 560 656 585 643 572 l 564 518 l 146 238 b 141 228 143 235 141 232 l 141 12 b 153 0 141 5 145 1 l 1109 0 b 1121 12 1116 0 1120 4 l 1121 250 b 1109 261 1121 256 1117 260 l 741 261 l 767 278 b 917 385 824 316 874 351 z "},"3":{"ha":1179,"x_min":0,"x_max":0,"o":"m 781 5 b 956 64 847 18 905 38 b 1072 158 1008 91 1046 122 l 1073 158 b 1112 278 1099 194 1112 234 b 1033 436 1112 338 1085 391 b 866 511 992 471 937 496 b 999 583 920 528 964 553 b 1064 713 1042 620 1064 663 b 1027 814 1064 750 1052 783 b 922 893 1004 844 969 870 b 770 945 876 917 825 934 b 591 963 715 957 655 963 b 332 933 499 963 412 953 b 106 844 251 913 176 884 b 100 833 102 841 100 838 b 101 828 100 832 100 830 b 104 825 102 827 103 826 l 284 638 b 292 635 287 635 290 635 b 297 635 294 635 296 635 b 429 680 345 655 389 670 b 534 694 469 690 503 694 b 621 680 570 694 598 690 b 648 648 639 671 648 661 b 616 615 648 635 637 624 b 513 600 593 605 559 600 l 383 600 b 371 588 376 600 372 595 l 371 357 b 383 345 371 351 375 347 l 566 345 b 653 331 603 345 632 340 b 680 300 671 323 680 313 b 646 264 680 286 669 273 b 534 248 621 253 583 248 b 393 262 488 248 441 252 b 240 306 343 272 292 286 b 237 307 239 306 237 307 b 226 300 232 307 229 304 l 71 96 b 68 88 68 93 68 90 b 73 79 68 85 69 81 l 75 77 b 317 8 155 47 235 24 b 566 -15 399 -7 481 -15 b 781 5 644 -15 716 -8 z "},"4":{"ha":1305,"x_min":0,"x_max":0,"o":"m 713 426 l 512 426 l 713 593 z m 1095 935 b 1082 947 1095 941 1090 945 l 770 947 b 762 944 767 947 764 946 l 72 386 b 68 377 69 383 68 380 b 69 371 68 375 68 373 l 144 200 b 155 193 147 195 151 193 l 713 193 l 713 12 b 724 0 713 5 717 1 l 1082 0 b 1095 12 1089 0 1093 4 l 1095 193 l 1226 193 b 1238 205 1232 193 1236 197 l 1238 414 b 1226 426 1238 420 1234 425 l 1095 426 z "},"5":{"ha":1204,"x_min":0,"x_max":0,"o":"m 578 606 b 524 600 559 605 542 603 l 536 682 l 1028 682 b 1040 694 1034 682 1038 686 l 1040 935 b 1028 947 1040 941 1036 945 l 238 947 b 227 936 232 947 228 943 l 159 473 l 159 472 b 164 461 159 467 161 464 l 371 327 b 378 325 373 326 376 325 b 383 326 380 325 381 326 b 477 361 414 342 445 353 b 577 372 510 368 543 372 b 684 353 620 372 656 366 l 685 353 b 722 313 710 341 722 328 b 680 267 722 296 708 281 b 551 248 652 254 608 248 b 394 262 501 248 449 252 b 221 308 339 273 281 288 b 216 309 220 309 218 309 b 208 303 213 309 210 307 l 70 95 b 68 88 68 92 68 90 b 73 79 68 85 70 81 l 75 77 b 318 8 155 47 235 24 b 572 -15 401 -7 486 -15 b 804 8 658 -15 735 -7 b 981 77 872 24 931 47 b 1097 182 1033 108 1072 143 b 1136 312 1123 221 1136 264 b 1099 435 1136 357 1124 399 b 992 530 1076 471 1040 503 b 838 590 946 556 895 576 b 653 610 781 603 720 610 b 578 606 628 610 603 608 z "},"6":{"ha":1262,"x_min":0,"x_max":0,"o":"m 518 285 b 511 311 513 293 511 302 b 519 336 511 319 514 328 b 549 363 525 346 535 355 b 651 385 578 378 612 385 b 747 361 688 385 720 377 b 774 337 759 355 768 347 b 782 311 779 328 782 319 b 774 283 782 301 780 292 b 747 254 768 272 759 262 b 650 230 720 238 688 230 b 549 254 612 230 578 237 b 518 285 534 262 524 273 z m 558 604 b 467 571 524 595 494 585 b 545 663 482 611 508 642 b 738 705 592 691 656 705 b 853 694 778 705 816 701 b 961 661 890 686 926 675 b 966 660 963 660 964 660 b 975 664 970 660 972 661 l 1148 857 b 1151 865 1150 860 1151 863 b 1147 874 1151 868 1149 871 b 1144 876 1146 875 1145 876 b 939 941 1078 905 1010 927 b 719 963 867 956 794 963 b 437 922 614 963 520 949 b 224 802 350 893 279 853 l 224 802 b 108 639 173 753 134 699 b 68 446 81 578 68 514 b 227 109 68 313 121 201 b 649 -11 321 29 462 -11 b 1040 81 810 -11 940 20 b 1155 185 1091 111 1130 146 b 1194 315 1181 224 1194 268 b 1159 437 1194 359 1183 399 b 1055 534 1135 473 1101 506 b 901 599 1010 563 959 585 b 711 620 844 613 781 620 b 558 604 654 620 603 614 z "},"7":{"ha":1106,"x_min":0,"x_max":0,"o":"m 573 680 l 170 18 b 168 12 168 16 168 14 b 174 2 168 8 170 5 b 180 0 176 1 178 1 l 583 0 b 594 7 588 0 591 2 l 1036 736 b 1038 743 1037 739 1038 741 l 1038 935 b 1026 947 1038 941 1034 945 l 80 947 b 68 935 73 947 69 943 l 68 692 b 80 680 68 685 72 681 z "},"8":{"ha":1255,"x_min":0,"x_max":0,"o":"m 732 256 b 628 236 706 243 671 236 b 524 257 585 236 550 243 b 488 303 500 269 488 285 b 523 349 488 321 499 336 b 627 369 549 362 583 369 b 731 348 669 369 705 362 b 767 302 755 336 767 320 b 732 256 767 284 755 269 z m 505 652 b 500 669 502 658 500 663 b 505 686 500 675 502 680 l 505 687 b 532 711 511 696 519 704 b 573 726 544 718 557 722 b 627 731 589 729 607 731 b 680 726 646 731 664 729 b 719 711 694 722 707 718 l 720 711 b 746 686 732 703 741 695 b 751 669 749 680 751 675 b 746 652 751 663 749 658 l 746 651 b 719 627 741 642 732 634 b 680 613 707 621 694 616 b 627 608 664 610 646 608 b 572 613 606 608 589 610 b 532 627 557 616 543 621 l 532 627 b 505 652 519 635 510 643 z m 852 5 b 1029 63 920 17 979 37 b 1147 155 1081 90 1120 120 b 1187 273 1173 190 1187 229 b 1115 422 1187 329 1163 379 b 961 505 1076 458 1025 486 b 1079 576 1012 524 1051 547 b 1131 701 1113 610 1131 652 b 1094 808 1131 740 1118 776 b 988 892 1070 840 1035 868 b 829 945 943 916 890 933 b 628 963 769 957 703 963 b 425 945 553 963 486 957 b 267 890 365 933 312 915 b 162 807 220 867 186 839 b 126 701 138 775 126 739 b 178 576 126 652 144 611 b 291 505 208 547 245 524 b 139 423 228 486 178 458 b 68 273 92 378 68 329 b 107 155 68 229 81 190 b 223 63 133 120 172 90 b 401 5 274 37 333 18 b 628 -15 469 -8 545 -15 b 852 5 711 -15 786 -8 z "},"9":{"ha":1243,"x_min":0,"x_max":0,"o":"m 501 591 b 467 645 478 605 467 623 b 500 699 467 667 478 686 b 598 722 526 714 559 722 b 694 699 637 722 669 714 b 730 645 718 684 730 667 b 694 591 730 624 718 606 b 598 567 669 575 637 567 b 501 591 559 567 527 575 z m 388 941 b 217 873 323 925 267 903 b 106 768 168 842 130 808 b 68 637 81 728 68 685 b 102 513 68 591 79 551 b 201 416 124 477 157 444 b 350 352 245 388 294 366 b 534 331 406 338 467 331 b 671 341 585 331 630 334 b 755 361 702 346 730 352 b 673 274 736 323 709 294 b 500 236 628 249 570 236 b 380 248 460 236 420 240 b 263 283 340 256 301 267 b 258 283 262 283 260 283 b 249 279 254 283 252 282 l 108 90 b 106 83 106 88 106 85 b 111 74 106 80 107 77 l 113 73 b 307 7 173 43 237 22 b 530 -15 377 -7 451 -15 b 724 3 600 -15 665 -9 b 886 59 783 16 838 34 b 1016 144 936 84 979 112 b 1106 251 1053 176 1082 212 b 1158 374 1129 290 1147 331 b 1175 511 1170 418 1175 463 b 1138 690 1175 576 1163 637 b 1025 836 1113 745 1075 793 b 845 932 975 878 915 911 b 604 963 775 953 694 963 b 388 941 524 963 452 956 z "}," ":{"ha":339,"x_min":0,"x_max":0,"o":""}," ":{"ha":339,"x_min":0,"x_max":0,"o":""},"!":{"ha":549,"x_min":0,"x_max":0,"o":"m 422 23 b 481 125 462 51 481 85 b 466 181 481 146 477 164 b 420 225 456 198 440 212 b 355 255 400 238 378 248 b 279 264 331 261 306 264 b 132 226 222 264 172 252 b 68 125 89 199 68 165 b 130 22 68 84 89 50 b 279 -16 171 -3 220 -16 b 422 23 335 -16 382 -3 z m 478 972 b 467 984 477 979 474 983 l 89 984 b 77 972 83 984 79 980 l 100 306 b 112 294 102 298 105 294 l 439 294 b 452 307 446 294 450 298 z "},"\"":{"ha":1351,"x_min":0,"x_max":0,"o":"m 1281 924 b 1282 930 1282 926 1282 928 b 1277 940 1282 934 1281 937 b 1271 941 1275 941 1273 941 l 854 941 b 843 933 849 941 845 939 l 663 522 b 662 517 662 520 662 519 b 669 507 662 513 664 509 b 673 505 671 506 672 506 l 1038 505 b 1048 513 1042 505 1046 508 z m 688 924 b 689 930 688 926 689 928 b 683 940 689 934 687 937 b 677 941 681 941 680 941 l 260 941 b 250 933 256 941 252 939 l 68 522 b 68 517 68 520 68 519 b 75 507 68 513 70 509 b 79 505 77 506 78 506 l 444 505 b 454 513 448 505 452 508 z "},"#":{"ha":1550,"x_min":0,"x_max":0,"o":"m 734 541 l 850 541 l 808 406 l 692 406 z m 1310 772 l 1356 931 b 1356 935 1356 932 1356 934 b 1348 946 1356 940 1354 944 l 985 946 b 973 937 979 946 975 943 l 921 772 l 806 772 l 857 931 l 857 935 b 848 946 857 939 854 943 l 485 946 b 473 937 479 946 475 943 l 418 772 l 249 772 b 237 762 243 772 239 768 l 178 555 l 178 552 b 186 541 178 547 180 543 b 189 541 186 541 188 541 l 342 541 l 296 406 l 144 406 b 132 397 138 406 134 403 l 68 190 b 68 186 68 189 68 187 b 76 175 68 180 71 177 b 79 174 77 175 79 175 l 220 174 l 166 16 b 165 12 166 14 165 13 b 174 1 165 7 168 3 b 178 0 175 0 176 0 l 557 0 b 568 9 562 0 566 3 l 620 174 l 736 174 l 686 15 l 686 12 b 694 1 686 7 689 3 b 698 0 696 0 697 0 l 1077 0 b 1088 9 1083 0 1086 3 l 1137 174 l 1307 174 b 1318 184 1313 174 1316 178 l 1377 391 b 1377 394 1377 392 1377 393 b 1369 405 1377 399 1374 403 b 1365 406 1368 406 1367 406 l 1204 406 l 1242 541 l 1411 541 b 1422 550 1417 541 1420 544 l 1482 756 b 1483 760 1482 758 1483 758 b 1474 771 1483 765 1480 769 b 1471 772 1473 772 1472 772 z "},"$":{"ha":1217,"x_min":0,"x_max":0,"o":"m 1100 425 b 958 522 1068 462 1021 494 b 749 594 888 549 819 574 l 715 604 b 659 622 701 609 682 615 b 657 623 659 623 658 623 b 604 640 635 629 617 635 b 570 657 591 644 579 650 l 569 658 b 561 671 564 662 561 666 b 577 690 561 680 566 686 b 644 700 591 696 614 700 b 768 683 681 700 722 694 b 920 632 814 671 865 654 b 924 631 921 631 923 631 b 933 635 928 631 930 633 l 1118 831 b 1121 839 1120 834 1121 837 b 1117 848 1121 842 1120 845 b 1114 850 1116 848 1115 850 b 961 914 1061 876 1010 897 b 823 949 914 930 869 942 l 823 1064 b 811 1076 823 1071 819 1075 l 449 1076 b 437 1064 443 1076 439 1072 l 437 941 b 217 841 344 920 271 887 b 134 665 161 793 134 735 b 182 532 134 616 150 572 b 323 429 214 492 260 458 b 440 382 353 414 392 399 b 608 327 487 365 543 347 b 675 301 640 317 662 309 b 690 281 685 295 690 288 b 674 259 690 271 684 264 b 611 250 661 253 640 250 b 463 279 562 250 513 260 b 327 358 409 300 363 327 b 319 361 324 360 321 361 b 312 359 317 361 314 360 l 73 188 b 68 178 69 185 68 182 b 70 171 68 176 68 174 b 73 169 71 170 72 170 b 239 58 121 123 177 87 b 437 -2 298 30 365 10 l 437 -128 b 449 -140 437 -135 441 -139 l 811 -140 b 823 -128 818 -140 822 -136 l 823 2 b 1059 111 923 24 1002 60 b 1149 297 1119 161 1149 224 b 1100 425 1149 344 1133 387 z "},"%":{"ha":1813,"x_min":0,"x_max":0,"o":"m 1298 119 b 1274 159 1282 130 1274 143 b 1299 197 1274 174 1282 186 b 1365 216 1318 210 1341 216 b 1435 197 1392 216 1415 210 b 1461 159 1453 186 1461 174 b 1436 119 1461 143 1453 130 b 1365 100 1415 106 1392 100 b 1298 119 1340 100 1318 106 z m 1019 62 b 1101 -16 1037 34 1065 8 b 1221 -68 1137 -39 1177 -56 b 1365 -85 1265 -79 1314 -85 b 1510 -68 1417 -85 1466 -79 b 1632 -16 1554 -56 1595 -39 b 1716 62 1669 7 1697 34 b 1745 157 1735 91 1745 123 b 1632 330 1745 224 1708 283 b 1511 383 1596 354 1556 372 b 1365 401 1467 395 1418 401 b 1221 383 1314 401 1265 395 b 1101 330 1177 372 1137 354 b 1018 252 1064 307 1037 281 b 989 157 999 222 989 191 b 1019 62 989 123 999 91 z m 513 688 b 539 649 530 677 539 664 b 513 610 539 634 530 621 b 446 591 493 597 471 591 b 379 610 420 591 398 597 b 353 649 362 621 353 633 b 378 688 353 664 362 677 b 446 707 397 701 420 707 b 513 688 471 707 493 701 z m 1583 856 b 1587 865 1586 859 1587 861 b 1584 873 1587 867 1586 870 b 1575 877 1581 876 1578 877 l 1230 877 b 1221 873 1226 877 1223 876 l 219 -50 b 215 -58 216 -52 215 -56 b 218 -66 215 -61 216 -63 b 227 -70 220 -68 223 -70 l 572 -70 b 581 -66 575 -70 578 -68 z m 96 551 b 179 474 115 523 142 497 l 180 473 b 302 422 216 451 257 434 b 446 406 346 412 394 406 b 589 423 497 406 545 412 b 710 474 633 434 674 452 b 794 551 747 497 775 523 b 823 646 813 581 823 612 b 794 742 823 680 813 712 b 710 821 775 770 747 797 b 590 874 675 844 635 863 b 446 892 546 886 498 892 b 301 874 393 892 345 886 b 179 821 256 863 216 845 b 96 743 142 798 115 772 b 68 646 77 713 68 681 b 96 551 68 612 77 581 z "},"&":{"ha":1438,"x_min":0,"x_max":0,"o":"m 496 171 b 461 224 473 185 461 203 b 474 260 461 237 465 248 b 510 293 482 271 494 282 b 530 281 517 289 524 285 b 550 268 538 276 545 272 l 720 162 b 677 154 707 159 692 156 b 598 149 653 151 627 149 b 496 171 553 149 519 156 z m 698 672 b 716 645 710 664 716 654 b 685 608 716 632 706 620 b 585 566 662 595 629 581 b 568 595 578 575 572 585 b 561 627 564 606 561 616 b 583 667 561 642 568 656 b 645 684 597 679 618 684 b 698 672 668 684 686 680 z m 1288 212 b 1356 269 1312 231 1335 251 b 1360 278 1359 272 1360 275 b 1358 286 1360 280 1360 283 b 1354 288 1357 286 1356 288 l 1137 412 b 1132 414 1135 413 1133 414 b 1124 410 1129 414 1126 412 l 1110 399 b 1107 397 1109 399 1107 398 b 1001 315 1044 349 1009 321 l 1000 315 b 973 296 994 310 985 303 l 916 330 b 785 408 872 356 829 382 b 987 510 870 439 938 473 b 1072 661 1044 550 1072 600 b 953 826 1072 726 1032 781 b 824 876 914 848 871 865 b 670 893 777 888 725 893 b 483 873 600 893 538 886 b 342 814 428 861 381 841 b 254 732 304 789 274 761 b 224 636 235 701 224 669 b 245 541 224 604 231 573 b 298 462 258 515 275 488 b 130 350 224 429 169 391 b 68 201 89 305 68 256 b 102 86 68 159 79 121 b 205 -5 125 52 160 22 b 368 -64 251 -31 305 -51 b 579 -83 430 -77 500 -83 b 802 -62 659 -83 733 -77 b 982 -1 867 -49 927 -28 l 1144 -102 b 1151 -103 1146 -103 1149 -103 b 1157 -102 1153 -103 1155 -103 l 1364 41 b 1370 51 1368 43 1370 47 b 1368 58 1370 53 1369 55 b 1364 61 1367 59 1365 60 l 1213 152 b 1288 212 1240 174 1265 193 z "},"'":{"ha":757,"x_min":0,"x_max":0,"o":"m 688 854 b 689 860 688 856 689 858 b 683 870 689 864 687 867 b 677 871 681 871 680 871 l 260 871 b 250 863 256 871 252 869 l 68 452 b 68 448 68 450 68 449 b 75 437 68 443 70 439 b 79 436 77 436 78 436 l 444 436 b 454 443 448 436 452 438 z "},"(":{"ha":957,"x_min":0,"x_max":0,"o":"m 591 148 b 498 390 529 217 498 298 b 882 819 498 573 626 716 b 889 831 886 822 889 826 b 888 835 889 832 889 833 b 886 838 888 836 887 837 l 726 1039 b 718 1043 724 1042 720 1043 b 713 1042 715 1043 714 1043 b 231 776 499 973 338 884 b 68 389 122 667 68 537 b 229 4 68 243 121 115 b 696 -266 334 -106 490 -196 b 700 -267 697 -266 699 -267 b 709 -262 703 -267 707 -264 l 884 -66 b 887 -59 886 -64 887 -61 b 883 -50 887 -56 886 -52 b 880 -47 882 -49 881 -48 b 591 148 750 12 654 77 z "},")":{"ha":957,"x_min":0,"x_max":0,"o":"m 728 4 b 889 389 836 115 889 243 b 726 776 889 537 835 667 b 243 1043 618 884 457 973 b 240 1044 242 1044 241 1044 b 231 1039 237 1044 233 1042 l 71 838 b 68 830 68 835 68 833 b 73 821 68 827 69 824 b 75 819 73 821 75 820 b 363 634 203 768 300 706 b 458 390 427 563 458 481 b 366 148 458 298 427 217 b 247 45 334 112 295 77 b 77 -48 199 13 142 -18 b 70 -59 72 -51 70 -54 b 71 -64 70 -60 70 -62 b 73 -66 71 -64 72 -66 l 248 -262 b 257 -267 251 -265 254 -267 b 260 -266 258 -267 259 -267 b 728 4 467 -196 623 -106 z "},"*":{"ha":1066,"x_min":0,"x_max":0,"o":"m 706 438 b 713 435 709 436 711 435 b 720 437 715 435 718 436 l 916 554 b 921 564 919 557 921 560 b 920 570 921 566 920 568 b 916 574 919 572 918 574 l 772 681 l 989 743 b 998 754 995 745 998 749 b 998 758 998 755 998 756 b 996 761 998 759 997 760 l 897 918 b 887 924 894 922 890 924 b 882 923 886 924 884 924 l 673 858 l 686 1013 b 674 1026 685 1021 682 1025 l 395 1026 b 382 1014 388 1026 384 1022 l 395 858 l 185 923 b 181 924 184 923 182 924 b 172 918 177 924 174 922 l 70 760 b 68 753 68 757 68 755 b 73 743 68 749 70 746 b 77 741 75 743 76 742 l 296 681 l 150 574 b 145 565 146 572 145 568 b 147 557 145 562 146 560 b 151 554 148 556 149 555 l 347 437 b 353 435 349 436 351 435 b 360 438 355 435 358 436 l 534 573 z "},"+":{"ha":1219,"x_min":0,"x_max":0,"o":"m 797 795 b 785 806 797 801 793 805 l 438 806 b 426 795 431 806 427 802 l 426 570 l 80 570 b 68 559 73 570 69 566 l 68 329 b 80 317 68 322 72 318 l 426 317 l 426 90 b 438 79 426 84 430 80 l 785 82 b 797 94 791 82 795 86 l 797 317 l 1139 317 b 1151 329 1146 317 1149 321 l 1151 559 b 1139 570 1151 565 1147 569 l 797 570 z "},",":{"ha":623,"x_min":0,"x_max":0,"o":"m 178 230 b 113 125 135 202 113 167 b 127 74 113 107 118 90 b 169 32 137 58 151 45 l 169 31 b 229 3 188 19 208 9 b 274 -5 243 -1 258 -3 b 241 -30 264 -13 253 -21 b 167 -75 216 -47 191 -62 l 166 -76 b 127 -97 155 -82 142 -90 b 74 -124 111 -105 94 -114 b 68 -134 70 -127 68 -130 b 69 -140 68 -136 68 -138 b 73 -144 70 -142 71 -143 l 176 -233 b 183 -236 178 -235 181 -236 b 188 -235 185 -236 186 -236 b 461 -71 309 -182 400 -127 l 462 -71 b 555 106 524 -14 555 45 b 490 225 555 155 534 194 b 330 271 448 256 395 271 b 178 230 271 271 220 257 z "},"-":{"ha":993,"x_min":0,"x_max":0,"o":"m 925 481 b 913 493 925 488 921 492 l 80 493 b 68 481 73 493 69 489 l 68 254 b 80 241 68 247 72 243 l 913 241 b 925 254 920 241 924 245 z "},"­":{"ha":993,"x_min":0,"x_max":0,"o":"m 925 481 b 913 493 925 488 921 492 l 80 493 b 68 481 73 493 69 489 l 68 254 b 80 241 68 247 72 243 l 913 241 b 925 254 920 241 924 245 z "},".":{"ha":549,"x_min":0,"x_max":0,"o":"m 422 29 b 481 131 462 56 481 90 b 420 231 481 170 461 203 b 279 271 382 257 334 271 b 132 231 222 271 172 258 b 68 131 89 205 68 171 b 130 28 68 90 89 56 b 279 -11 171 3 220 -11 b 422 29 335 -11 382 3 z "},"/":{"ha":1515,"x_min":0,"x_max":0,"o":"m 1444 1044 b 1447 1052 1447 1047 1447 1049 b 1442 1061 1447 1055 1446 1058 b 1435 1063 1440 1063 1438 1063 l 1005 1063 b 996 1058 1001 1063 998 1061 l 71 -125 b 68 -132 68 -127 68 -130 b 73 -142 68 -136 69 -139 b 79 -144 75 -143 77 -144 l 509 -144 b 519 -139 513 -144 517 -142 z "},":":{"ha":549,"x_min":0,"x_max":0,"o":"m 422 29 b 481 131 462 56 481 90 b 420 231 481 170 461 203 b 279 271 382 257 334 271 b 132 231 222 271 172 258 b 68 131 89 205 68 171 b 130 28 68 90 89 56 b 279 -11 171 3 220 -11 b 422 29 335 -11 382 3 z m 422 463 b 481 564 462 490 481 524 b 421 665 481 604 462 637 b 279 704 382 690 335 704 b 132 665 222 704 172 691 b 68 564 89 637 68 604 b 130 462 68 523 89 489 b 279 422 171 436 220 422 b 422 463 335 422 382 436 z "},";":{"ha":629,"x_min":0,"x_max":0,"o":"m 178 230 b 113 125 135 202 113 167 b 169 32 113 90 132 58 l 169 31 b 229 3 188 19 208 9 b 274 -5 243 -1 258 -3 b 241 -30 264 -13 253 -21 b 166 -75 216 -47 191 -62 l 166 -76 b 127 -97 155 -82 142 -90 b 74 -124 111 -106 94 -115 b 68 -134 70 -127 68 -130 b 69 -140 68 -136 68 -138 b 73 -144 70 -142 71 -143 l 176 -233 b 183 -236 178 -235 180 -236 b 188 -235 184 -236 186 -236 b 461 -71 309 -182 400 -127 l 462 -71 b 555 106 524 -14 555 45 b 490 225 555 155 534 194 b 330 271 448 256 394 271 b 178 230 271 271 220 257 z m 498 462 b 561 568 540 490 561 525 b 498 673 561 610 540 645 b 349 713 456 700 407 713 b 193 673 288 713 235 701 b 126 568 149 645 126 610 b 192 461 126 525 148 489 b 349 420 235 434 287 420 b 498 462 408 420 458 434 z "},"<":{"ha":1019,"x_min":0,"x_max":0,"o":"m 523 412 l 942 518 b 951 530 948 521 951 525 l 951 767 b 939 779 951 774 947 778 b 935 779 938 779 937 779 l 76 522 b 68 510 71 519 68 515 l 68 309 b 77 298 68 303 71 300 l 936 38 b 939 37 937 38 939 37 b 951 45 945 37 949 40 b 951 49 951 47 951 48 l 951 292 b 941 303 951 298 948 301 z "},"=":{"ha":1030,"x_min":0,"x_max":0,"o":"m 962 381 b 951 393 962 388 959 392 l 80 393 b 68 381 73 393 69 389 l 68 188 b 80 176 68 181 72 177 l 951 176 b 962 188 958 176 961 180 z m 962 654 b 951 667 962 661 959 665 l 80 667 b 68 654 73 667 69 663 l 68 460 b 80 448 68 454 72 450 l 951 448 b 962 460 958 448 961 452 z "},">":{"ha":1019,"x_min":0,"x_max":0,"o":"m 951 510 b 942 522 951 515 948 519 l 83 779 l 79 779 b 68 770 75 779 71 776 b 68 767 68 770 68 768 l 68 530 b 77 518 68 524 71 520 l 496 412 l 77 303 b 68 292 71 300 68 296 l 68 49 b 80 37 68 43 72 39 b 83 38 81 37 82 37 l 943 298 b 951 309 949 300 951 304 z "},"?":{"ha":1179,"x_min":0,"x_max":0,"o":"m 719 33 b 780 134 760 60 780 93 b 718 235 780 174 759 208 b 576 274 679 261 631 274 b 429 235 517 274 469 261 b 366 134 387 208 366 174 b 429 33 366 93 387 60 b 576 -7 470 6 519 -7 b 719 33 631 -7 679 6 z m 763 359 b 812 437 763 387 779 412 b 923 507 844 460 881 484 b 924 508 924 507 924 507 b 981 542 943 519 963 530 l 983 543 b 1078 632 1021 567 1053 597 b 1112 739 1100 664 1112 700 b 1077 854 1112 781 1100 819 b 978 947 1055 888 1022 919 b 821 1008 934 975 882 995 b 615 1028 761 1021 692 1028 b 315 982 505 1028 406 1013 b 72 843 225 951 144 905 b 68 834 69 840 68 838 b 71 827 68 832 68 829 l 73 825 l 302 656 b 309 654 305 654 307 654 b 317 657 312 654 315 655 b 457 745 366 696 413 725 b 583 774 501 764 543 774 b 656 758 612 774 637 768 b 680 721 672 748 680 736 b 645 667 680 702 669 684 b 561 614 621 650 593 633 b 559 614 560 614 560 614 b 488 570 535 600 511 586 b 405 486 454 549 426 521 b 375 378 385 454 375 418 l 375 309 b 387 296 375 302 379 298 l 751 296 b 763 309 758 296 762 300 z "},"@":{"ha":1843,"x_min":0,"x_max":0,"o":"m 759 343 b 747 380 751 355 747 368 b 759 416 747 392 751 404 b 787 444 766 426 775 435 b 892 473 819 463 854 473 b 995 444 930 473 964 463 b 1023 416 1007 435 1017 426 b 1035 378 1031 404 1035 391 b 1023 341 1035 366 1031 353 b 995 315 1017 332 1007 323 b 892 288 965 296 931 288 b 787 316 852 288 818 297 b 759 343 775 324 766 334 z m 958 648 b 832 663 920 658 878 663 b 677 642 775 663 724 656 b 551 582 630 629 589 608 l 551 581 b 469 489 515 553 487 523 b 441 377 450 454 441 417 b 470 264 441 336 450 298 b 555 173 489 229 517 199 b 682 114 593 146 635 127 b 836 94 729 101 780 94 b 991 115 893 94 945 101 b 1104 172 1034 128 1072 146 b 1194 115 1128 147 1158 128 b 1333 94 1234 101 1280 94 b 1505 119 1396 94 1453 102 b 1646 193 1557 136 1605 160 l 1647 193 b 1743 307 1689 227 1721 264 b 1775 450 1765 349 1775 397 b 1716 647 1775 521 1756 587 b 1541 809 1678 707 1619 761 l 1541 810 b 1276 919 1463 858 1375 895 b 943 956 1177 944 1066 956 b 604 915 821 956 708 943 b 322 791 500 887 406 846 l 321 790 b 132 608 237 735 174 675 b 68 386 89 541 68 467 b 134 161 68 308 90 233 b 320 -30 179 89 241 25 b 605 -157 399 -84 494 -127 b 947 -203 713 -188 827 -203 b 1122 -193 1007 -203 1065 -199 b 1291 -163 1179 -186 1236 -176 b 1436 -121 1346 -149 1394 -135 b 1545 -73 1479 -106 1515 -90 b 1550 -63 1549 -70 1550 -66 b 1549 -56 1550 -61 1550 -58 l 1548 -54 l 1437 77 b 1428 82 1434 80 1432 82 b 1423 81 1426 82 1425 81 b 1193 5 1355 49 1278 24 b 951 -23 1111 -14 1030 -23 b 716 7 867 -23 789 -13 b 518 96 644 26 578 56 b 383 227 458 136 413 179 b 338 382 353 275 338 326 b 380 530 338 435 353 485 b 507 656 408 576 450 618 l 507 657 b 699 745 564 695 628 724 b 932 777 770 764 847 775 l 956 777 b 1149 757 1025 777 1089 770 b 1333 684 1216 741 1277 717 b 1457 572 1388 651 1429 614 b 1497 436 1483 532 1497 486 b 1487 377 1497 414 1493 395 b 1457 329 1480 359 1470 343 b 1417 296 1444 315 1430 304 l 1416 296 b 1379 287 1404 290 1392 287 b 1345 298 1363 287 1352 290 b 1334 336 1337 306 1334 319 l 1334 632 b 1322 644 1334 638 1330 642 l 1053 644 b 1040 632 1046 644 1042 640 l 1040 616 b 958 648 1015 630 988 641 z "},"A":{"ha":1518,"x_min":0,"x_max":0,"o":"m 766 614 l 864 399 l 664 399 z m 968 941 b 958 947 966 945 962 947 l 575 947 b 565 940 570 947 567 945 l 69 18 b 68 12 68 16 68 14 b 74 1 68 7 70 4 b 79 0 76 1 77 0 l 481 0 b 492 8 486 0 490 3 l 559 151 l 964 151 l 1027 7 b 1038 0 1029 3 1033 0 l 1439 0 b 1451 12 1445 0 1449 4 b 1449 18 1451 14 1450 16 z "},"B":{"ha":1324,"x_min":0,"x_max":0,"o":"m 476 371 l 717 371 b 801 352 753 371 781 365 b 829 308 820 340 829 325 b 798 262 829 291 819 275 b 704 243 778 250 747 243 l 476 243 z m 751 689 b 774 651 767 678 774 666 b 748 614 774 637 766 625 b 664 598 730 604 702 598 l 476 598 l 476 705 l 681 705 b 751 689 711 705 734 700 z m 1126 583 b 1183 707 1164 621 1183 662 b 1154 800 1183 741 1173 772 b 1068 878 1135 829 1106 854 b 933 929 1030 901 985 918 b 757 947 881 941 822 947 l 80 947 b 68 935 73 947 69 943 l 68 12 b 80 0 68 5 72 1 l 791 0 b 975 19 858 0 920 6 b 1124 78 1031 32 1081 52 b 1223 169 1168 104 1201 135 b 1257 286 1246 204 1257 243 b 1181 447 1257 347 1232 401 b 1028 522 1144 481 1093 505 b 1126 583 1067 536 1099 557 z "},"C":{"ha":1492,"x_min":0,"x_max":0,"o":"m 985 -1 b 1158 41 1045 8 1103 22 b 1307 102 1213 59 1263 79 b 1421 180 1351 125 1389 151 b 1424 189 1423 183 1424 186 b 1421 197 1424 192 1423 195 b 1419 199 1421 198 1419 199 l 1161 366 b 1155 368 1159 367 1157 368 b 1147 364 1152 368 1149 366 b 996 284 1100 328 1050 302 b 823 257 943 266 884 257 b 695 273 777 257 734 262 b 589 320 656 283 621 299 b 521 389 559 341 536 364 b 498 473 506 414 498 442 b 521 557 498 503 506 532 b 589 627 536 583 559 606 b 696 674 621 648 657 663 b 825 690 734 685 777 690 b 1142 588 937 690 1043 656 b 1149 586 1144 587 1147 586 b 1156 588 1151 586 1154 587 l 1400 764 b 1405 773 1404 766 1405 770 b 1403 781 1405 776 1404 778 l 1401 783 b 1139 916 1333 840 1246 884 b 798 963 1036 947 922 963 b 516 928 696 963 602 951 b 281 825 430 905 351 871 b 121 667 210 779 157 726 b 68 470 85 608 68 542 b 121 275 68 399 85 334 b 277 119 155 216 208 165 b 511 20 347 75 425 42 l 512 19 b 796 -14 598 -3 693 -14 b 985 -1 862 -14 924 -9 z "},"D":{"ha":1445,"x_min":0,"x_max":0,"o":"m 675 673 b 793 658 720 673 760 668 b 877 614 827 648 854 633 l 878 613 b 929 549 901 593 918 572 b 946 474 941 526 946 501 b 929 397 946 446 941 421 b 877 333 918 374 901 353 b 793 289 854 313 827 298 b 675 273 760 279 720 273 l 484 273 l 484 673 z m 956 31 b 1183 125 1044 52 1120 83 l 1184 126 b 1329 276 1249 168 1297 218 b 1377 473 1361 334 1377 399 b 1329 671 1377 547 1361 612 b 1185 821 1297 728 1249 779 l 1185 821 b 960 916 1122 863 1048 895 b 661 947 872 936 772 947 l 80 947 b 68 935 73 947 69 943 l 68 12 b 80 0 68 5 72 1 l 656 0 b 956 31 769 0 869 10 z "},"E":{"ha":1202,"x_min":0,"x_max":0,"o":"m 1131 252 b 1118 263 1131 258 1126 262 l 488 263 l 488 342 l 1074 342 b 1085 354 1080 342 1084 346 l 1085 593 b 1074 604 1085 599 1081 603 l 488 604 l 488 683 l 1122 683 b 1134 695 1129 683 1133 687 l 1134 935 b 1122 947 1134 941 1131 945 l 80 947 b 68 935 73 947 69 943 l 68 12 b 80 0 68 5 72 1 l 1118 0 b 1131 12 1125 0 1129 4 z "},"F":{"ha":1183,"x_min":0,"x_max":0,"o":"m 484 317 l 1031 317 b 1044 329 1038 317 1042 321 l 1044 569 b 1031 581 1044 575 1040 579 l 484 581 l 484 680 l 1103 680 b 1116 692 1110 680 1114 684 l 1116 935 b 1103 947 1116 941 1112 945 l 80 947 b 68 935 73 947 69 943 l 68 12 b 80 0 68 5 72 1 l 472 0 b 484 12 478 0 482 4 z "},"G":{"ha":1544,"x_min":0,"x_max":0,"o":"m 1166 29 b 1470 159 1274 58 1375 102 b 1476 169 1473 162 1475 165 l 1476 580 b 1463 592 1476 587 1472 591 l 830 592 b 818 580 823 592 819 588 l 818 360 b 830 349 818 354 822 350 l 1099 349 l 1099 313 b 982 273 1070 297 1031 284 b 830 257 934 262 883 257 b 689 273 777 257 730 262 b 583 322 648 285 612 301 b 515 394 553 345 530 368 b 493 476 500 419 493 447 b 515 557 493 506 500 533 b 584 627 531 583 553 606 b 692 674 616 648 652 663 b 830 690 733 685 779 690 b 983 673 884 690 935 684 b 1124 618 1033 661 1080 642 b 1131 617 1126 618 1128 617 b 1138 620 1133 617 1136 618 l 1382 815 b 1387 825 1385 819 1387 821 b 1384 832 1387 827 1386 829 b 1381 835 1383 833 1382 834 b 1131 930 1305 878 1222 909 b 834 963 1040 952 941 963 b 534 928 725 963 625 951 b 288 826 443 906 361 871 b 123 670 215 781 160 729 b 68 473 86 611 68 545 b 121 279 68 401 85 337 b 281 121 157 220 210 168 b 524 20 352 77 433 43 b 825 -14 614 -2 714 -14 b 1166 29 945 -14 1059 1 z "},"H":{"ha":1385,"x_min":0,"x_max":0,"o":"m 484 331 l 897 331 l 897 12 b 909 0 897 5 901 1 l 1305 0 b 1317 12 1312 0 1316 4 l 1317 935 b 1305 947 1317 941 1313 945 l 909 947 b 897 935 903 947 899 943 l 897 604 l 484 604 l 484 935 b 472 947 484 941 479 945 l 80 947 b 68 935 73 947 69 943 l 68 12 b 80 0 68 5 72 1 l 472 0 b 484 12 478 0 482 4 z "},"I":{"ha":555,"x_min":0,"x_max":0,"o":"m 475 0 b 488 12 482 0 486 4 l 488 935 b 475 947 488 941 484 945 l 80 947 b 68 935 73 947 69 943 l 68 12 b 80 0 68 5 72 1 z "},"J":{"ha":1223,"x_min":0,"x_max":0,"o":"m 773 7 b 964 79 843 23 906 47 l 964 79 b 1105 217 1025 113 1072 159 b 1155 414 1139 273 1155 338 l 1155 935 b 1143 947 1155 941 1151 945 l 751 947 b 739 935 745 947 741 943 l 739 422 b 677 303 739 373 719 333 b 502 258 636 273 577 258 b 374 275 459 258 417 264 b 245 326 332 286 289 303 b 239 327 243 326 241 327 b 230 322 235 327 233 326 l 71 111 b 68 104 68 109 68 106 b 73 95 68 101 69 98 l 74 94 b 288 12 137 58 208 31 b 547 -15 367 -6 453 -15 b 773 7 628 -15 703 -7 z "},"K":{"ha":1438,"x_min":0,"x_max":0,"o":"m 886 533 l 1347 926 b 1351 935 1350 928 1351 931 b 1348 943 1351 937 1350 940 b 1339 947 1345 945 1343 947 l 862 947 b 854 943 859 947 856 945 l 484 614 l 484 935 b 472 947 484 941 479 945 l 80 947 b 68 935 73 947 69 943 l 68 12 b 80 0 68 5 72 1 l 472 0 b 484 12 478 0 482 4 l 484 205 l 608 307 l 870 4 b 879 0 873 1 876 0 l 1358 0 b 1370 12 1364 0 1369 4 b 1366 21 1370 15 1369 18 z "},"L":{"ha":1213,"x_min":0,"x_max":0,"o":"m 1145 259 b 1134 271 1145 266 1141 270 l 488 271 l 488 935 b 475 947 488 941 484 945 l 80 947 b 68 935 73 947 69 943 l 68 12 b 80 0 68 5 72 1 l 1134 0 b 1145 12 1140 0 1144 4 z "},"M":{"ha":1718,"x_min":0,"x_max":0,"o":"m 476 385 l 773 114 b 781 111 776 112 778 111 l 934 111 b 942 115 937 111 940 113 l 1238 385 l 1238 12 b 1251 0 1238 5 1242 1 l 1639 0 b 1651 12 1645 0 1649 4 l 1651 935 b 1639 947 1651 941 1647 945 l 1333 947 b 1324 943 1330 947 1327 945 l 859 504 l 389 943 b 381 947 387 945 385 947 l 80 947 b 68 935 73 947 69 943 l 68 12 b 80 0 68 5 72 1 l 465 0 b 476 12 471 0 475 4 z "},"N":{"ha":1434,"x_min":0,"x_max":0,"o":"m 381 944 b 374 947 378 945 376 947 l 80 947 b 68 935 73 947 69 943 l 68 12 b 80 0 68 5 72 1 l 465 0 b 476 12 471 0 475 4 l 476 444 l 1040 3 b 1047 0 1042 1 1044 0 l 1354 0 b 1366 12 1360 0 1364 4 l 1366 935 b 1354 947 1366 941 1362 945 l 970 947 b 958 935 963 947 959 943 l 958 497 z "},"O":{"ha":1622,"x_min":0,"x_max":0,"o":"m 689 281 b 588 326 652 292 618 307 b 521 393 558 346 536 368 b 498 474 506 417 498 444 b 521 555 498 503 506 530 b 588 621 536 580 558 602 b 689 667 618 641 652 656 b 811 682 726 677 767 682 b 933 667 855 682 896 677 b 1033 623 970 657 1003 642 b 1100 556 1063 603 1085 581 b 1124 473 1115 531 1123 504 l 1124 469 b 1103 394 1124 441 1117 417 b 1036 326 1089 369 1067 347 b 935 281 1006 307 972 292 b 811 266 898 271 857 266 b 689 281 767 266 726 271 z m 1103 20 b 1340 124 1191 43 1270 78 b 1500 281 1411 171 1464 223 b 1554 473 1537 340 1554 404 b 1500 665 1554 543 1537 606 b 1340 822 1465 724 1411 776 l 1339 823 b 1101 928 1269 869 1190 904 b 811 963 1014 951 917 963 b 521 928 705 963 609 951 b 283 822 433 904 353 869 b 122 665 212 776 158 724 b 68 474 86 607 68 543 b 122 282 68 405 86 341 b 283 124 158 224 212 172 b 522 20 353 78 433 43 b 813 -15 611 -3 707 -15 b 1103 20 918 -15 1015 -3 z "},"P":{"ha":1278,"x_min":0,"x_max":0,"o":"m 484 686 l 653 686 b 748 662 692 686 724 677 b 783 608 771 647 783 629 b 748 553 783 586 771 568 b 649 531 724 538 692 531 l 484 531 z m 68 12 b 80 0 68 5 72 1 l 472 0 b 484 12 478 0 482 4 l 484 275 l 630 275 b 886 297 728 275 814 282 b 1066 366 960 313 1020 335 b 1173 471 1114 395 1149 431 b 1210 605 1198 511 1210 556 b 1175 741 1210 654 1198 699 b 1072 850 1152 781 1118 817 b 900 922 1027 882 969 907 b 656 947 831 939 750 947 l 80 947 b 68 935 73 947 69 943 z "},"Q":{"ha":1681,"x_min":0,"x_max":0,"o":"m 510 555 b 578 625 525 581 548 604 b 684 672 610 646 646 662 b 811 688 723 683 765 688 b 938 672 857 688 899 683 b 1042 625 977 662 1011 646 b 1112 555 1074 604 1097 581 b 1135 473 1127 530 1135 503 b 1112 391 1135 443 1127 416 b 1042 321 1097 366 1074 342 b 938 275 1011 301 977 286 b 811 260 900 265 857 260 b 684 275 765 260 723 265 b 578 321 646 286 610 301 b 510 391 548 342 525 366 b 488 473 495 416 488 443 b 510 555 488 503 495 530 z m 1421 14 b 1313 7 1383 9 1348 7 b 1202 17 1272 7 1234 11 b 1148 33 1183 21 1164 26 b 1296 96 1202 50 1251 71 b 1434 199 1349 125 1395 159 b 1524 328 1474 239 1504 283 b 1554 473 1544 374 1554 422 b 1500 665 1554 543 1536 606 b 1340 822 1464 723 1411 775 l 1339 823 b 1101 928 1269 869 1190 904 b 811 963 1014 951 917 963 b 521 928 706 963 609 951 b 283 822 433 904 353 869 b 122 665 212 775 158 723 b 68 474 86 607 68 543 b 111 304 68 414 82 357 b 237 159 138 251 180 203 l 237 158 b 429 52 294 115 357 79 b 666 -5 500 24 579 5 b 926 -178 736 -82 823 -140 b 1288 -236 1030 -216 1151 -236 b 1445 -227 1339 -236 1392 -233 b 1604 -201 1497 -221 1550 -212 b 1613 -189 1610 -199 1613 -195 l 1613 -186 l 1556 24 b 1545 32 1554 29 1550 32 l 1542 32 b 1421 14 1500 24 1460 18 z "},"R":{"ha":1339,"x_min":0,"x_max":0,"o":"m 770 665 b 800 612 789 652 800 634 b 768 558 800 591 789 573 b 673 537 747 544 715 537 l 484 537 l 484 687 l 683 687 b 770 665 720 687 749 680 z m 996 340 b 1161 448 1068 368 1123 403 b 1227 621 1204 500 1227 558 b 1191 753 1227 669 1215 713 b 1087 857 1167 792 1133 827 b 918 924 1042 887 985 909 b 687 947 851 939 774 947 l 80 947 b 68 935 73 947 69 943 l 68 12 b 80 0 68 5 72 1 l 472 0 b 484 12 478 0 482 4 l 484 288 l 587 288 l 804 5 b 813 0 806 1 810 0 l 1260 0 b 1272 12 1266 0 1270 4 b 1268 20 1272 15 1271 18 z "},"S":{"ha":1326,"x_min":0,"x_max":0,"o":"m 909 5 b 1096 70 981 20 1043 41 l 1097 71 b 1217 172 1150 100 1190 134 b 1259 298 1245 210 1259 252 b 967 557 1259 420 1162 507 b 862 582 947 563 911 571 b 699 616 821 591 766 603 b 621 637 665 623 640 630 b 599 661 606 644 599 652 b 626 683 599 669 608 676 b 717 694 646 690 676 694 b 798 689 742 694 768 692 b 890 673 827 686 857 680 b 979 651 922 667 952 659 b 1049 625 1006 643 1029 634 b 1055 623 1051 624 1053 623 b 1063 627 1058 623 1061 625 l 1237 828 b 1240 836 1239 831 1240 833 b 1236 845 1240 839 1238 842 b 1232 847 1235 846 1234 846 b 987 932 1156 884 1074 913 b 711 960 900 951 808 960 b 492 939 631 960 558 954 b 315 875 427 925 368 904 b 197 777 263 846 223 813 b 157 654 170 740 157 699 b 218 501 157 595 177 544 b 398 399 258 459 318 425 b 500 371 429 389 463 380 b 616 346 537 362 576 354 l 618 346 b 702 329 656 338 685 333 l 703 329 b 779 303 736 321 762 312 b 800 283 793 296 800 289 b 774 258 800 272 791 264 b 677 246 753 250 720 246 b 471 273 608 246 538 255 b 274 352 404 290 338 317 b 268 353 272 353 270 353 b 260 350 265 353 262 352 l 71 156 b 68 148 69 153 68 151 b 71 140 68 145 69 142 l 73 138 b 345 22 154 87 245 48 b 671 -16 444 -3 553 -16 b 909 5 760 -16 839 -9 z "},"T":{"ha":1315,"x_min":0,"x_max":0,"o":"m 857 0 b 868 12 863 0 867 4 l 868 673 l 1236 673 b 1247 685 1242 673 1246 677 l 1247 935 b 1236 947 1247 941 1243 945 l 80 947 b 68 935 73 947 69 943 l 68 685 b 80 673 68 678 72 674 l 449 673 l 449 12 b 460 0 449 5 452 1 z "},"U":{"ha":1343,"x_min":0,"x_max":0,"o":"m 1116 90 b 1276 381 1222 151 1276 248 l 1276 935 b 1263 947 1276 941 1272 945 l 868 947 b 856 935 861 947 857 943 l 856 381 b 809 292 856 342 840 312 b 671 257 773 269 727 257 b 534 292 615 257 570 269 b 488 381 503 312 488 342 l 488 935 b 475 947 488 941 484 945 l 80 947 b 68 935 73 947 69 943 l 68 381 b 119 198 68 311 85 250 b 263 68 153 143 201 100 l 264 68 b 456 5 323 40 388 19 b 671 -16 524 -9 595 -16 b 1116 90 833 -16 981 19 z "},"V":{"ha":1622,"x_min":0,"x_max":0,"o":"m 547 940 b 536 947 544 945 541 947 l 80 947 b 68 935 73 947 69 943 b 70 928 68 932 68 930 l 622 6 b 632 0 625 2 628 0 l 998 0 b 1008 6 1002 0 1006 2 l 1553 928 b 1554 935 1554 931 1554 933 b 1549 945 1554 939 1553 942 b 1543 947 1547 946 1545 947 l 1088 947 b 1078 939 1084 947 1080 944 l 815 409 z "},"W":{"ha":2254,"x_min":0,"x_max":0,"o":"m 1128 481 l 1326 7 b 1337 0 1329 3 1333 0 l 1733 0 b 1744 7 1738 0 1742 3 l 2185 930 b 2186 935 2186 932 2186 933 b 2180 945 2186 939 2184 943 b 2174 947 2178 946 2176 947 l 1737 947 b 1725 939 1731 947 1727 944 l 1525 413 l 1284 939 b 1273 947 1281 944 1278 947 l 981 947 b 970 939 976 947 972 944 l 729 413 l 528 939 b 517 947 526 944 522 947 l 80 947 b 68 935 73 947 69 943 b 69 928 68 932 68 930 l 510 7 b 521 0 513 2 516 0 l 917 0 b 928 8 922 0 926 3 z "},"X":{"ha":1513,"x_min":0,"x_max":0,"o":"m 758 265 l 962 5 b 971 0 965 1 968 0 l 1422 0 b 1434 12 1428 0 1432 4 b 1430 20 1434 15 1432 18 l 1031 476 l 1442 926 b 1445 935 1444 929 1445 932 b 1441 943 1445 938 1444 941 b 1433 947 1439 945 1436 947 l 979 947 b 969 941 975 947 972 945 l 763 690 l 579 941 b 570 947 576 945 573 947 l 119 947 b 107 935 113 947 109 943 b 111 926 107 931 109 928 l 490 477 l 71 20 b 68 12 69 17 68 14 b 72 3 68 9 69 6 b 79 0 74 1 77 0 l 534 0 b 544 5 538 0 541 1 z "},"Y":{"ha":1526,"x_min":0,"x_max":0,"o":"m 760 630 l 553 941 b 543 947 551 945 547 947 l 80 947 b 68 935 73 947 69 943 b 71 926 68 931 69 928 l 552 313 l 552 12 b 564 0 552 5 556 1 l 956 0 b 968 12 963 0 967 4 l 968 313 l 1456 927 b 1458 935 1457 930 1458 932 b 1454 944 1458 938 1457 941 b 1447 947 1452 946 1449 947 l 983 947 b 972 941 978 947 975 945 z "},"Z":{"ha":1312,"x_min":0,"x_max":0,"o":"m 1244 248 b 1232 260 1244 254 1240 258 l 658 260 l 1218 715 b 1223 725 1221 718 1223 722 l 1223 935 b 1211 947 1223 941 1219 945 l 98 947 b 87 935 92 947 88 943 l 87 699 b 98 687 87 692 91 688 l 651 687 l 73 221 b 68 212 69 218 68 215 l 68 12 b 80 0 68 5 72 1 l 1232 0 b 1244 12 1238 0 1242 4 z "},"[":{"ha":851,"x_min":0,"x_max":0,"o":"m 783 -35 b 772 -23 783 -28 779 -24 l 469 -23 l 469 795 l 772 795 b 783 807 778 795 782 799 l 783 1034 b 772 1046 783 1040 779 1044 l 80 1046 b 68 1034 73 1046 69 1042 l 68 -262 b 80 -274 68 -269 72 -273 l 772 -274 b 783 -262 778 -274 782 -270 z "},"\\":{"ha":1477,"x_min":0,"x_max":0,"o":"m 80 1063 b 68 1052 73 1063 69 1059 b 71 1044 68 1048 68 1046 l 964 -140 b 973 -144 966 -142 970 -144 l 1398 -144 b 1409 -132 1404 -144 1408 -140 b 1407 -124 1409 -130 1409 -127 l 519 1059 b 509 1063 516 1062 513 1063 z "},"]":{"ha":851,"x_min":0,"x_max":0,"o":"m 783 1034 b 772 1046 783 1040 779 1044 l 80 1046 b 68 1034 73 1046 69 1042 l 68 807 b 80 795 68 800 72 796 l 382 795 l 382 -23 l 80 -23 b 68 -35 73 -23 69 -27 l 68 -262 b 80 -274 68 -269 72 -273 l 772 -274 b 783 -262 778 -274 782 -270 z "},"^":{"ha":1131,"x_min":0,"x_max":0,"o":"m 559 623 l 669 516 b 677 512 671 514 673 513 l 1051 512 b 1063 524 1058 512 1062 516 b 1058 534 1063 528 1061 532 l 728 798 b 721 801 726 800 724 801 l 408 801 b 400 798 405 801 402 800 l 72 534 b 68 524 69 531 68 528 b 71 517 68 522 68 519 b 79 512 73 514 76 513 l 443 512 b 452 517 446 512 450 513 z "},"_":{"ha":1293,"x_min":0,"x_max":0,"o":"m 1225 -22 b 1213 -10 1225 -16 1221 -12 l 80 -10 b 68 -22 73 -10 69 -14 l 68 -250 b 80 -262 68 -256 72 -260 l 1213 -262 b 1225 -250 1219 -262 1223 -258 z "},"`":{"ha":727,"x_min":0,"x_max":0,"o":"m 71 1090 l 269 831 b 279 826 271 828 275 826 l 648 826 b 653 827 650 826 651 827 b 660 838 658 830 660 833 b 659 844 660 840 659 842 l 523 1103 b 513 1109 521 1107 517 1109 l 79 1109 b 73 1107 77 1109 75 1109 b 68 1098 69 1104 68 1101 b 71 1090 68 1095 68 1093 z "},"a":{"ha":1313,"x_min":0,"x_max":0,"o":"m 518 269 b 475 312 498 282 484 296 b 461 360 466 327 461 343 b 518 450 461 395 480 424 l 519 450 b 663 488 557 475 605 488 b 743 478 692 488 718 485 b 808 449 767 472 789 462 b 852 408 828 436 842 422 b 865 360 861 393 865 377 b 852 312 865 343 861 327 l 851 311 b 808 269 842 296 827 282 b 743 239 789 256 767 246 b 663 230 718 233 692 230 b 518 269 606 230 558 243 z m 753 718 b 591 735 703 730 649 735 b 386 709 516 735 448 726 b 218 629 323 691 267 665 b 106 509 168 594 131 554 b 68 361 81 465 68 415 b 105 212 68 308 80 258 b 216 90 130 168 167 126 b 384 9 265 54 321 27 b 591 -18 446 -9 515 -18 b 749 -1 647 -18 700 -12 b 873 41 793 9 834 23 l 873 12 b 885 0 873 5 877 1 l 1234 0 b 1245 12 1240 0 1244 4 l 1245 706 b 1234 718 1245 713 1242 717 l 885 718 b 873 706 878 718 874 714 l 873 675 b 753 718 836 694 796 708 z "},"b":{"ha":1313,"x_min":0,"x_max":0,"o":"m 789 269 b 645 230 751 243 703 230 b 502 269 587 230 540 243 b 446 360 465 294 446 324 b 501 450 446 395 465 425 b 645 488 540 475 587 488 b 789 450 703 488 751 475 b 844 360 826 425 844 395 b 789 269 844 324 826 294 z m 568 720 b 461 684 530 711 494 700 l 461 966 b 449 978 461 972 457 977 l 80 978 b 68 966 73 978 69 974 l 68 12 b 80 0 68 5 72 1 l 436 0 b 448 12 443 0 446 4 l 448 41 b 561 -1 483 24 520 9 b 715 -18 608 -12 660 -18 b 922 8 791 -18 859 -9 b 1091 87 985 26 1041 52 b 1206 208 1143 122 1181 163 b 1245 359 1232 254 1245 304 b 1206 509 1245 414 1232 464 b 1091 629 1181 554 1143 594 l 1090 630 b 921 709 1040 665 984 691 b 713 735 858 726 789 735 b 568 720 662 735 614 730 z "},"c":{"ha":1226,"x_min":0,"x_max":0,"o":"m 945 36 b 1154 179 1036 70 1105 117 b 1157 186 1156 182 1157 184 b 1152 196 1157 190 1156 193 l 1149 197 l 853 314 b 848 315 852 315 850 315 b 839 309 844 315 842 313 b 766 255 823 286 799 269 b 649 233 730 241 692 233 b 510 271 592 233 546 245 b 457 360 475 294 457 324 b 510 448 457 395 475 425 b 651 484 546 472 593 484 b 761 465 692 484 728 477 b 844 407 793 452 821 433 b 852 404 846 404 849 404 b 857 404 853 404 855 404 l 1151 505 b 1159 517 1156 507 1159 511 b 1158 520 1159 517 1158 519 b 1156 524 1158 522 1157 523 b 954 680 1108 593 1041 645 b 642 735 861 717 756 735 b 411 709 557 735 479 726 b 228 631 342 692 281 666 l 227 631 b 108 511 174 596 134 556 b 68 360 81 466 68 416 b 108 209 68 305 81 254 b 228 88 134 163 174 123 l 229 87 b 410 11 281 54 342 28 b 637 -15 479 -6 555 -15 b 945 36 753 -15 855 2 z "},"d":{"ha":1303,"x_min":0,"x_max":0,"o":"m 800 269 b 656 230 762 243 714 230 b 513 269 599 230 551 243 b 457 360 476 294 457 324 b 513 450 457 395 476 425 b 656 488 551 475 599 488 b 800 450 714 488 762 475 b 856 360 838 425 856 395 b 800 269 856 324 838 294 z m 736 720 b 591 735 692 730 643 735 b 388 709 517 735 450 726 b 220 629 326 691 270 665 b 106 509 170 594 132 554 b 68 359 81 464 68 414 b 106 208 68 304 81 254 b 218 87 131 163 168 123 l 218 87 b 386 8 269 52 324 26 b 589 -18 448 -9 515 -18 b 743 -1 644 -18 696 -12 b 854 41 783 9 820 23 l 854 12 b 866 0 854 5 858 1 l 1224 0 b 1236 12 1231 0 1234 4 l 1236 966 b 1224 978 1236 972 1232 977 l 852 978 b 841 966 846 978 842 974 l 841 684 b 736 720 809 700 774 711 z "},"e":{"ha":1272,"x_min":0,"x_max":0,"o":"m 762 499 b 817 457 785 489 804 475 l 472 457 b 529 499 486 475 505 489 b 647 519 560 513 600 519 b 762 499 694 519 732 513 z m 1163 528 b 1044 640 1137 571 1097 608 b 865 711 991 672 931 696 b 647 735 799 727 726 735 b 416 709 562 735 486 726 b 230 630 346 691 283 665 b 109 509 176 594 136 554 b 68 359 81 463 68 414 b 226 91 68 252 121 163 b 414 12 278 56 340 29 b 664 -15 486 -6 570 -15 b 914 9 753 -15 836 -7 l 915 9 b 1135 81 993 24 1066 49 b 1141 92 1139 83 1141 87 b 1141 97 1141 94 1141 95 b 1139 100 1140 98 1139 99 l 996 262 b 987 266 993 264 990 266 b 981 264 985 266 983 265 b 840 220 936 245 889 231 b 683 206 790 211 738 206 b 545 227 628 206 582 213 b 479 270 519 237 496 252 l 1181 270 b 1192 279 1187 270 1190 273 b 1201 330 1196 297 1199 314 b 1204 378 1203 347 1204 363 b 1163 528 1204 433 1190 483 z "},"f":{"ha":1136,"x_min":0,"x_max":0,"o":"m 828 780 b 928 753 859 774 892 765 b 932 753 930 753 931 753 b 941 758 936 753 939 755 l 1066 939 b 1068 946 1067 942 1068 944 b 1063 956 1068 949 1066 953 b 1059 957 1062 956 1061 957 b 867 1007 994 979 930 996 b 683 1024 804 1019 743 1024 b 495 1004 614 1024 551 1017 b 343 946 438 991 387 972 l 342 945 b 241 849 298 920 264 888 b 208 718 219 811 208 768 l 80 718 b 68 706 73 718 69 714 l 68 504 b 80 492 68 497 72 493 l 208 492 l 208 12 b 219 0 208 5 212 1 l 589 0 b 601 12 595 0 600 4 l 601 492 l 905 492 b 918 504 912 492 916 496 l 918 706 b 905 718 918 713 913 717 l 601 718 b 635 766 604 739 616 755 b 745 789 661 782 698 789 b 828 780 770 789 798 786 z "},"g":{"ha":1302,"x_min":0,"x_max":0,"o":"m 519 271 b 465 362 483 296 465 326 b 519 450 465 397 483 427 b 663 487 556 475 604 487 b 806 450 720 487 768 475 b 860 362 842 427 860 397 b 805 271 860 326 842 296 b 663 233 768 246 720 233 b 519 271 605 233 557 246 z m 768 719 l 767 719 b 613 735 719 730 668 735 b 399 710 536 735 465 727 b 224 635 334 693 276 668 b 107 516 172 601 134 562 b 68 364 81 471 68 420 b 104 218 68 311 80 262 b 214 100 129 174 165 135 b 382 25 262 67 318 42 b 598 0 447 8 519 0 b 753 14 654 0 707 5 b 858 49 792 22 827 34 b 793 -28 852 18 830 -8 b 602 -65 750 -53 686 -65 b 428 -45 545 -65 487 -58 b 248 14 369 -33 309 -13 b 243 15 246 14 245 15 b 234 10 239 15 237 13 l 104 -170 b 102 -177 102 -172 102 -174 b 106 -186 102 -180 103 -184 l 109 -188 b 346 -268 182 -224 261 -250 b 619 -295 432 -286 523 -295 b 858 -270 705 -295 785 -287 b 1055 -195 930 -253 996 -228 b 1189 -76 1114 -161 1158 -121 b 1234 79 1219 -30 1234 22 l 1234 706 b 1222 718 1234 713 1230 717 l 892 718 b 880 706 886 718 882 714 l 880 678 b 768 719 846 696 808 709 z "},"h":{"ha":1251,"x_min":0,"x_max":0,"o":"m 461 368 b 508 454 461 404 477 433 b 636 490 540 478 583 490 b 749 458 685 490 723 479 b 788 375 775 439 788 411 l 788 12 b 800 0 788 5 792 1 l 1171 0 b 1183 12 1178 0 1182 4 l 1183 439 b 1152 566 1183 486 1173 529 b 1059 660 1131 604 1100 635 l 1058 661 b 927 718 1019 686 975 705 b 770 736 879 730 826 736 b 570 705 694 736 627 726 b 454 640 520 687 481 665 l 454 966 b 441 978 454 972 450 977 l 80 978 b 68 966 73 978 69 974 l 68 12 b 80 0 68 5 72 1 l 449 0 b 461 12 456 0 460 4 z "},"i":{"ha":574,"x_min":0,"x_max":0,"o":"m 102 718 b 90 706 96 718 92 714 l 90 12 b 102 0 90 5 94 1 l 474 0 b 486 12 480 0 484 4 l 486 706 b 474 718 486 713 481 717 z m 132 789 b 287 748 174 762 225 748 b 442 789 349 748 401 762 b 507 896 485 817 507 852 b 441 1003 507 939 485 974 b 287 1044 400 1030 349 1044 b 134 1002 227 1044 176 1030 b 68 896 90 974 68 938 b 132 789 68 852 90 817 z "},"j":{"ha":951,"x_min":0,"x_max":0,"o":"m 509 789 b 664 748 551 762 602 748 b 819 789 726 748 777 762 b 883 896 862 817 883 852 b 818 1003 883 939 861 974 b 664 1044 777 1030 726 1044 b 511 1002 604 1044 553 1030 l 509 1002 b 445 896 467 973 445 938 b 509 789 445 852 466 817 z m 571 -276 b 724 -217 628 -263 679 -243 b 828 -116 770 -191 805 -157 b 863 26 851 -75 863 -28 l 863 706 b 850 718 863 713 859 717 l 479 718 b 467 706 473 718 469 714 l 467 57 b 429 -29 467 19 454 -9 b 311 -60 402 -50 363 -60 b 238 -55 289 -60 264 -58 b 150 -39 211 -52 182 -46 l 147 -39 b 136 -47 142 -39 138 -42 l 68 -235 b 68 -240 68 -237 68 -239 b 75 -250 68 -244 70 -248 b 205 -285 109 -266 153 -277 b 383 -296 256 -292 315 -296 b 571 -276 452 -296 515 -290 z "},"k":{"ha":1291,"x_min":0,"x_max":0,"o":"m 750 427 l 1179 696 b 1185 706 1183 699 1185 702 b 1183 712 1185 708 1185 710 b 1173 718 1181 716 1177 718 l 728 718 b 721 715 726 718 723 718 l 461 547 l 461 966 b 449 978 461 972 457 977 l 80 978 b 68 966 73 978 69 974 l 68 12 b 80 0 68 5 72 1 l 449 0 b 461 12 456 0 460 4 l 461 246 l 484 260 l 768 3 b 775 0 770 1 772 0 l 1211 0 b 1223 12 1217 0 1221 4 b 1218 21 1223 16 1221 19 z "},"l":{"ha":529,"x_min":0,"x_max":0,"o":"m 80 978 b 68 966 73 978 69 974 l 68 12 b 80 0 68 5 72 1 l 449 0 b 461 12 456 0 460 4 l 461 966 b 449 978 461 972 457 977 z "},"m":{"ha":1933,"x_min":0,"x_max":0,"o":"m 1200 708 b 1050 633 1141 691 1092 666 b 943 709 1023 666 987 691 b 768 738 895 727 836 737 l 764 738 b 569 706 694 738 629 727 b 454 640 522 690 484 668 l 454 706 b 441 718 454 713 450 717 l 80 718 b 68 706 73 718 69 714 l 68 12 b 80 0 68 5 72 1 l 449 0 b 461 12 456 0 460 4 l 461 380 b 502 458 461 414 475 440 b 619 490 532 479 571 490 b 730 460 664 490 701 480 b 769 389 756 444 769 419 l 769 12 b 781 0 769 5 773 1 l 1151 0 b 1162 12 1157 0 1161 4 l 1162 380 b 1204 458 1162 413 1177 439 b 1326 490 1235 479 1276 490 b 1434 462 1371 490 1407 480 b 1470 389 1458 446 1470 421 l 1470 12 b 1482 0 1470 5 1474 1 l 1853 0 b 1866 12 1860 0 1864 4 l 1866 439 b 1831 568 1866 488 1854 531 b 1729 663 1809 606 1775 637 b 1585 719 1686 688 1638 706 b 1415 738 1533 732 1476 738 b 1200 708 1339 738 1268 728 z "},"n":{"ha":1251,"x_min":0,"x_max":0,"o":"m 461 368 b 508 454 461 404 477 433 b 636 490 540 478 583 490 b 749 458 685 490 723 479 b 788 375 775 439 788 411 l 788 12 b 800 0 788 5 792 1 l 1171 0 b 1183 12 1178 0 1182 4 l 1183 439 b 1059 660 1183 534 1141 608 b 927 718 1019 686 975 705 b 770 736 879 730 826 736 b 570 705 694 736 627 726 b 454 640 520 687 481 665 l 454 706 b 441 718 454 713 450 717 l 80 718 b 68 706 73 718 69 714 l 68 12 b 80 0 68 5 72 1 l 449 0 b 461 12 456 0 460 4 z "},"o":{"ha":1312,"x_min":0,"x_max":0,"o":"m 515 271 b 461 360 479 295 461 325 b 515 447 461 394 479 423 b 654 484 553 472 600 484 b 795 448 711 484 758 472 b 850 360 832 423 850 394 b 797 271 850 324 832 295 b 654 233 759 246 712 233 b 515 271 599 233 553 246 z m 1202 210 b 1244 359 1230 255 1244 305 b 1202 508 1244 413 1230 463 b 1078 630 1175 553 1133 593 b 890 711 1023 666 960 693 b 654 738 820 729 741 738 b 419 711 568 738 490 729 b 231 629 349 693 286 666 b 109 508 177 593 136 553 b 68 359 81 463 68 413 b 109 210 68 305 81 255 b 231 88 136 165 177 125 l 232 87 b 419 7 287 52 349 24 b 654 -20 490 -12 568 -20 b 890 7 741 -20 820 -12 b 1078 88 960 24 1023 52 b 1202 210 1133 125 1175 165 z "},"p":{"ha":1319,"x_min":0,"x_max":0,"o":"m 513 269 b 459 357 477 293 459 322 b 513 447 459 393 477 422 b 654 484 551 472 598 484 b 796 447 712 484 760 472 b 850 357 832 423 850 393 b 796 268 850 322 832 292 b 654 231 760 243 712 231 b 513 269 598 231 551 243 z m 574 718 b 457 675 533 708 494 694 l 457 706 b 446 718 457 713 453 717 l 80 718 b 68 706 73 718 69 714 l 68 -274 b 80 -286 68 -281 72 -285 l 451 -286 b 463 -274 458 -286 462 -282 l 463 39 b 576 -1 498 22 536 8 b 732 -18 625 -12 676 -18 b 937 9 806 -18 875 -9 b 1103 91 998 27 1054 54 b 1214 213 1152 127 1190 168 b 1251 360 1238 258 1251 307 b 1214 507 1251 413 1238 463 b 1103 628 1190 552 1152 592 b 936 709 1054 664 998 691 b 730 735 874 726 806 735 b 574 718 675 735 623 730 z "},"q":{"ha":1319,"x_min":0,"x_max":0,"o":"m 522 268 b 469 357 486 292 469 322 b 522 447 469 393 486 423 b 664 484 559 472 606 484 b 806 447 721 484 768 472 b 860 357 842 422 860 393 b 806 269 860 322 842 293 b 664 231 768 243 721 231 b 522 268 606 231 559 243 z m 745 718 b 589 735 696 730 644 735 b 382 709 513 735 444 726 b 216 628 321 691 265 664 b 105 507 167 592 130 552 b 68 360 80 463 68 413 b 105 213 68 307 80 258 b 216 91 130 168 166 127 b 382 9 265 54 321 27 b 587 -18 444 -9 512 -18 b 743 -1 643 -18 694 -12 b 856 39 783 8 821 22 l 856 -274 b 868 -286 856 -281 860 -285 l 1239 -286 b 1251 -274 1246 -286 1250 -282 l 1251 706 b 1239 718 1251 713 1247 717 l 873 718 b 861 706 867 718 863 714 l 861 675 b 745 718 825 694 786 708 z "},"r":{"ha":923,"x_min":0,"x_max":0,"o":"m 461 295 b 512 431 461 356 478 401 b 668 477 547 462 598 477 b 737 473 690 477 713 475 b 810 460 762 469 786 465 l 813 460 b 825 469 819 460 823 463 l 855 705 b 846 718 855 711 852 715 b 779 732 824 724 802 728 b 709 736 755 735 732 736 b 551 711 650 736 597 728 b 448 650 513 696 478 676 l 448 706 b 436 718 448 713 444 717 l 80 718 b 68 706 73 718 69 714 l 68 12 b 80 0 68 5 72 1 l 449 0 b 461 12 456 0 460 4 z "},"s":{"ha":1109,"x_min":0,"x_max":0,"o":"m 760 -4 b 911 46 818 7 868 24 b 1008 125 954 68 986 95 b 1042 228 1031 156 1042 191 b 998 338 1042 271 1027 308 b 857 416 968 368 922 394 b 741 448 821 428 782 439 b 609 473 699 458 656 466 b 538 490 577 477 554 484 l 538 490 b 522 504 527 495 522 500 b 534 514 522 507 526 511 b 593 521 547 519 566 521 b 713 507 631 521 671 516 b 846 467 756 498 801 485 b 851 466 848 466 850 466 b 859 469 854 466 857 467 l 1010 633 b 1013 641 1013 635 1013 638 b 1010 650 1013 644 1013 647 b 1006 652 1009 650 1008 651 b 812 718 945 681 881 703 b 596 739 744 732 671 739 b 408 723 527 739 465 734 b 261 675 353 713 304 696 b 163 600 218 654 186 629 b 130 501 141 571 130 538 b 185 376 130 453 149 411 b 344 296 220 343 273 316 b 534 254 387 285 451 271 b 605 239 570 246 593 241 b 637 228 620 235 631 231 b 643 224 641 226 643 224 b 627 211 643 219 637 214 b 560 203 612 206 590 203 b 408 223 512 203 462 210 b 239 283 355 237 298 257 b 234 285 237 284 236 285 b 225 280 231 285 228 283 l 71 112 b 68 104 69 109 68 106 b 72 96 68 101 69 98 b 75 94 73 95 74 94 b 303 8 145 56 221 27 b 564 -20 385 -11 472 -20 b 760 -4 637 -20 703 -15 z "},"t":{"ha":1062,"x_min":0,"x_max":0,"o":"m 799 237 b 728 230 772 232 749 230 b 644 253 690 230 663 237 b 618 321 627 268 618 291 l 618 492 l 922 492 b 935 504 929 492 933 496 l 935 706 b 922 718 935 713 930 717 l 618 718 l 618 952 b 606 964 618 958 614 962 l 238 964 b 227 952 232 964 228 960 l 227 718 l 80 718 b 68 706 73 718 69 714 l 68 504 b 80 492 68 497 72 493 l 222 492 l 222 286 b 328 58 222 185 258 109 b 636 -18 397 7 500 -18 b 987 39 767 -18 884 1 b 994 50 992 42 994 45 b 994 54 994 51 994 53 l 899 252 b 888 258 897 256 893 258 b 885 258 888 258 886 258 b 799 237 854 248 825 241 z "},"u":{"ha":1194,"x_min":0,"x_max":0,"o":"m 985 70 b 1126 320 1080 128 1126 212 l 1126 706 b 1115 718 1126 713 1122 717 l 743 718 b 732 706 736 718 733 714 l 732 317 b 696 254 732 291 720 271 b 596 230 672 238 639 230 b 498 254 555 230 522 238 b 463 317 475 271 463 291 l 463 706 b 451 718 463 713 459 717 l 80 718 b 68 706 73 718 69 714 l 68 320 b 209 70 68 212 115 128 b 596 -18 302 12 431 -18 b 985 70 762 -18 892 12 z "},"v":{"ha":1354,"x_min":0,"x_max":0,"o":"m 497 711 b 487 718 494 715 491 718 l 80 718 b 68 706 73 718 69 714 b 70 699 68 703 68 701 l 515 5 b 525 0 517 2 521 0 l 826 0 b 837 6 831 0 834 2 l 1285 700 b 1286 706 1286 702 1286 704 b 1281 716 1286 710 1285 713 b 1275 718 1279 718 1277 718 l 869 718 b 859 711 865 718 861 715 l 683 364 z "},"w":{"ha":1888,"x_min":0,"x_max":0,"o":"m 945 320 l 1108 6 b 1118 0 1111 2 1114 0 l 1452 0 b 1463 7 1457 0 1461 3 l 1819 701 b 1820 707 1820 703 1820 705 b 1814 717 1820 711 1818 714 l 1809 718 l 1418 718 b 1407 710 1413 718 1409 715 l 1254 358 l 1086 711 b 1075 718 1083 716 1080 718 l 813 718 b 802 711 808 718 804 715 l 635 358 l 481 711 b 470 718 478 715 475 718 l 80 718 b 68 706 73 718 69 714 b 70 700 68 704 68 702 l 425 6 b 436 0 428 2 431 0 l 770 0 b 781 7 774 0 779 3 z "},"x":{"ha":1295,"x_min":0,"x_max":0,"o":"m 1211 699 b 1213 706 1213 701 1213 704 b 1209 715 1213 709 1212 712 b 1202 718 1207 717 1204 718 l 794 718 b 784 713 790 718 787 716 l 656 550 l 551 712 b 542 718 549 716 545 718 l 121 718 b 109 706 115 718 111 714 b 113 698 109 703 111 700 l 385 359 l 71 20 b 68 12 69 17 68 14 b 72 3 68 8 69 5 b 79 0 74 1 77 0 l 496 0 b 506 5 500 0 504 1 l 650 182 l 777 5 b 787 0 780 1 783 0 l 1215 0 b 1227 12 1221 0 1225 4 b 1223 20 1227 15 1225 18 l 919 359 z "},"y":{"ha":1383,"x_min":0,"x_max":0,"o":"m 516 712 b 506 718 513 715 510 718 l 80 718 b 68 706 73 718 69 714 b 71 699 68 703 68 701 l 519 26 b 443 -33 497 0 472 -20 b 338 -55 412 -47 376 -55 b 272 -49 316 -55 294 -53 b 202 -31 249 -45 226 -39 l 199 -30 b 187 -38 193 -30 190 -33 l 112 -237 b 111 -242 111 -239 111 -241 b 119 -253 111 -247 114 -250 b 231 -286 153 -267 191 -278 b 364 -296 273 -293 317 -296 b 694 -214 498 -296 608 -269 b 913 23 782 -159 854 -81 l 1314 700 b 1315 707 1315 703 1315 705 b 1310 716 1315 710 1314 713 b 1303 718 1308 718 1305 718 l 903 718 b 892 711 899 718 895 715 l 715 363 z "},"z":{"ha":1114,"x_min":0,"x_max":0,"o":"m 1025 706 b 1013 718 1025 713 1021 717 l 97 718 b 85 706 90 718 86 714 l 85 505 b 97 493 85 498 89 494 l 481 493 l 73 196 b 68 186 69 193 68 190 l 68 12 b 80 0 68 5 72 1 l 1034 0 b 1046 12 1040 0 1044 4 l 1046 213 b 1034 224 1046 219 1042 223 l 628 224 l 1020 518 b 1025 528 1023 521 1025 524 z "},"{":{"ha":904,"x_min":0,"x_max":0,"o":"m 658 428 b 706 519 690 452 706 482 b 703 558 706 528 705 541 b 692 614 701 573 697 592 b 683 669 688 635 685 654 b 680 708 681 686 680 699 b 703 755 680 730 688 745 b 783 772 720 767 747 772 l 825 772 b 836 784 831 772 835 777 l 836 1034 b 825 1046 836 1040 832 1044 l 666 1046 b 361 983 525 1046 424 1025 b 266 795 298 941 266 878 b 269 755 266 785 267 772 b 275 698 270 739 273 720 b 282 640 278 676 281 657 b 285 601 283 625 285 611 b 242 524 285 562 271 536 b 79 501 210 511 155 503 b 68 490 72 500 68 496 l 68 277 b 80 265 68 271 72 267 b 240 243 154 264 208 257 b 285 166 270 231 285 205 b 282 125 285 155 283 141 b 275 71 281 109 278 91 l 275 69 b 266 -15 269 28 266 1 b 357 -213 266 -102 296 -168 b 637 -279 417 -257 511 -279 l 825 -279 b 836 -267 831 -279 835 -275 l 836 -18 b 825 -5 836 -11 832 -7 l 783 -5 b 703 12 747 -5 720 0 b 680 59 688 22 680 37 b 683 96 680 68 681 80 b 692 150 685 111 688 130 b 703 205 697 172 701 190 b 706 245 705 222 706 236 b 657 337 706 282 690 313 b 567 382 631 357 602 372 b 658 428 602 393 633 408 z "},"|":{"ha":548,"x_min":0,"x_max":0,"o":"m 480 1069 b 468 1081 480 1076 476 1080 l 80 1081 b 68 1069 73 1081 69 1077 l 68 -212 b 80 -224 68 -218 72 -222 l 468 -224 b 480 -212 475 -224 479 -220 z "},"}":{"ha":904,"x_min":0,"x_max":0,"o":"m 247 337 b 198 245 214 313 198 282 b 201 205 198 236 199 222 b 212 150 203 190 207 172 b 221 96 216 130 219 111 b 224 59 223 80 224 68 b 201 12 224 37 216 22 b 121 -5 184 0 157 -5 l 80 -5 b 68 -18 73 -5 69 -9 l 68 -267 b 80 -279 68 -274 72 -277 l 267 -279 b 431 -262 330 -279 385 -273 b 547 -213 477 -252 516 -235 b 638 -15 608 -168 638 -102 b 635 18 638 -7 637 4 b 629 66 634 31 632 47 b 629 71 629 67 629 68 b 622 125 626 91 624 109 b 619 166 621 141 619 155 b 664 243 619 205 634 231 b 825 265 696 257 750 264 b 836 277 832 267 836 271 l 836 490 b 825 501 836 496 832 500 l 824 501 b 663 524 748 503 694 511 b 619 601 633 536 619 562 b 622 640 619 611 621 625 b 629 698 624 657 626 676 b 635 755 631 720 634 739 b 638 795 637 772 638 785 b 543 983 638 878 606 941 b 238 1046 480 1025 379 1046 l 80 1046 b 68 1034 73 1046 69 1042 l 68 784 b 80 772 68 778 72 774 l 121 772 b 201 755 157 772 184 767 b 224 708 216 745 224 730 b 221 669 224 699 223 686 b 212 614 219 654 216 635 b 201 559 207 592 203 573 b 198 519 199 541 198 528 b 246 428 198 482 214 452 b 338 382 271 408 302 393 b 247 337 302 372 273 357 z "},"~":{"ha":1445,"x_min":0,"x_max":0,"o":"m 1181 306 b 1374 446 1256 337 1320 384 b 1377 454 1376 449 1377 452 b 1373 463 1377 457 1376 460 b 1371 465 1373 463 1371 464 l 1124 599 b 1118 600 1122 600 1120 600 b 1110 597 1115 600 1113 600 b 1013 521 1070 559 1038 534 b 945 503 989 509 967 503 b 798 531 905 503 857 513 b 500 578 714 562 614 578 b 248 531 406 578 321 562 b 70 397 172 499 113 454 b 68 390 68 395 68 392 b 73 380 68 387 69 383 l 74 380 l 311 251 b 317 250 313 250 315 250 b 325 252 320 250 323 250 b 425 319 367 286 400 308 b 490 336 447 330 469 336 b 557 326 506 336 528 332 b 668 298 587 320 624 311 l 669 298 b 801 269 713 285 758 275 b 930 260 845 263 888 260 b 1181 306 1024 260 1107 275 z "},"¡":{"ha":549,"x_min":0,"x_max":0,"o":"m 466 -309 b 478 -297 473 -309 477 -305 l 452 369 b 440 380 450 376 446 380 l 112 380 b 100 368 105 380 101 376 l 77 -297 b 89 -309 78 -304 81 -308 z m 130 652 b 68 549 89 625 68 591 b 132 449 68 510 89 476 b 279 410 172 423 222 410 b 354 420 306 410 331 414 b 420 448 378 427 399 436 b 466 494 440 462 456 477 b 481 549 477 511 481 529 b 422 652 481 590 462 625 b 279 691 382 678 335 691 b 130 652 220 691 171 678 z "},"¢":{"ha":1226,"x_min":0,"x_max":0,"o":"m 535 461 l 535 256 b 480 295 511 267 493 279 b 457 360 465 313 457 335 b 535 461 457 405 484 439 z m 789 452 b 844 407 810 440 828 425 b 852 403 846 404 849 403 b 857 404 854 403 855 403 l 1151 505 b 1159 517 1156 507 1159 511 b 1158 520 1159 517 1158 519 b 1156 524 1158 521 1157 522 b 984 666 1115 584 1057 631 b 734 730 911 701 827 722 l 734 807 b 722 819 734 814 730 818 l 547 819 b 535 807 541 819 536 815 l 535 730 b 353 691 468 723 407 710 b 201 610 295 671 244 644 b 102 498 157 577 124 539 b 68 360 79 456 68 410 b 102 222 68 310 79 264 b 201 109 124 180 157 142 b 353 28 244 75 295 47 b 535 -10 407 9 468 -4 l 535 -92 b 547 -104 535 -98 539 -102 l 722 -104 b 734 -92 729 -104 733 -100 l 734 -10 b 977 49 826 -1 907 18 b 1154 179 1052 82 1111 125 b 1157 186 1156 182 1157 184 b 1152 196 1157 190 1156 193 l 1149 197 l 853 314 b 849 315 852 315 850 315 b 839 309 845 315 842 313 b 795 268 829 292 814 279 b 734 244 778 258 758 250 l 734 473 b 789 452 754 469 772 461 z "},"£":{"ha":1170,"x_min":0,"x_max":0,"o":"m 972 557 b 960 569 972 564 968 568 l 572 569 b 563 595 568 579 565 588 b 559 617 560 604 559 611 b 592 668 559 637 570 654 b 685 690 616 683 647 690 b 777 675 719 690 749 686 b 848 633 804 666 828 652 b 857 629 851 631 854 629 b 863 631 859 629 861 630 l 1097 795 b 1102 804 1101 798 1102 801 b 1100 811 1102 806 1101 809 l 1099 812 b 908 922 1056 858 993 894 b 640 962 826 949 736 962 b 456 942 575 962 514 956 b 296 880 399 928 346 907 b 184 785 247 852 210 821 b 147 667 159 749 147 710 b 153 612 147 650 149 631 b 165 569 156 598 160 584 l 80 569 b 68 557 73 569 69 565 l 68 372 b 80 361 68 366 72 362 l 203 361 b 168 300 195 341 183 321 b 89 219 148 273 121 247 b 85 210 86 216 85 214 l 85 12 b 97 0 85 5 89 1 l 1062 0 b 1074 12 1068 0 1072 4 l 1074 249 b 1062 261 1074 256 1069 260 l 545 261 b 579 304 559 275 570 290 b 606 361 591 323 600 342 l 960 361 b 972 372 966 361 970 365 z "},"¤":{"ha":1253,"x_min":0,"x_max":0,"o":"m 505 401 b 461 473 476 420 461 444 b 505 544 461 500 475 524 b 621 574 536 564 574 574 b 739 543 668 574 707 564 b 784 473 769 524 784 500 b 739 401 784 445 769 420 b 621 370 707 380 668 370 b 505 401 574 370 536 380 z m 1077 559 b 1029 627 1065 583 1050 606 l 1179 725 b 1185 734 1183 728 1185 731 b 1183 741 1185 736 1184 739 b 1179 745 1182 743 1181 744 l 1023 849 b 1016 851 1021 850 1019 851 b 1010 850 1015 851 1013 851 l 838 738 b 738 760 806 747 772 755 b 621 768 701 765 661 768 b 510 760 583 768 547 765 b 412 739 476 755 444 748 l 243 850 b 236 852 241 851 238 852 b 229 849 233 852 231 851 l 73 745 b 68 735 70 742 68 739 b 70 728 68 733 68 731 b 74 724 71 726 72 725 l 219 630 b 170 560 198 608 181 585 b 149 470 155 532 149 502 b 166 388 149 441 155 414 b 208 323 176 366 191 344 l 73 235 b 68 226 70 233 68 229 b 70 219 68 224 68 222 b 74 215 71 217 72 216 l 229 111 b 236 109 231 109 234 109 b 243 111 238 109 241 109 l 394 210 b 498 184 427 198 462 190 b 621 176 537 178 578 176 b 854 212 705 176 783 188 l 1010 111 b 1017 109 1012 109 1015 109 b 1024 111 1019 109 1021 109 l 1180 216 b 1185 224 1183 218 1185 221 b 1183 232 1185 227 1184 229 b 1179 235 1182 233 1181 235 l 1039 326 b 1080 389 1057 346 1070 367 b 1097 470 1091 414 1097 441 b 1077 559 1097 501 1090 531 z "},"¥":{"ha":1489,"x_min":0,"x_max":0,"o":"m 741 607 l 534 941 b 525 946 532 944 528 946 l 80 946 b 68 935 73 946 69 942 b 71 926 68 931 69 928 l 331 584 l 245 584 b 234 572 239 584 235 580 l 234 387 b 245 376 234 381 238 377 l 488 376 l 500 359 l 245 359 b 234 348 239 359 235 355 l 234 163 b 245 151 234 157 238 153 l 534 151 l 534 12 b 545 0 534 5 538 1 l 937 0 b 949 12 944 0 948 4 l 949 151 l 1237 151 b 1249 163 1244 151 1248 155 l 1249 348 b 1237 359 1249 354 1245 358 l 983 359 l 996 376 l 1237 376 b 1249 387 1244 376 1248 380 l 1249 572 b 1237 584 1249 578 1245 583 l 1156 584 l 1418 927 b 1421 935 1420 930 1421 932 b 1416 944 1421 938 1419 941 b 1409 946 1414 945 1411 946 l 964 946 b 954 940 959 946 956 944 z "},"¦":{"ha":548,"x_min":0,"x_max":0,"o":"m 68 293 l 68 -212 b 79 -224 68 -218 72 -222 l 468 -224 b 480 -212 475 -224 479 -220 l 480 293 z m 480 545 l 480 1069 b 468 1081 480 1076 476 1080 l 79 1081 b 68 1069 73 1081 69 1077 l 68 545 z "},"§":{"ha":1330,"x_min":0,"x_max":0,"o":"m 555 353 b 527 377 536 363 527 371 b 529 383 527 378 528 380 b 532 388 530 385 531 387 b 633 356 552 381 585 371 l 688 340 b 802 298 739 323 777 310 b 833 275 823 289 833 281 b 830 266 833 272 832 269 b 796 276 820 269 809 273 b 760 286 785 279 773 282 b 656 316 720 295 686 305 b 555 353 611 329 578 341 z m 1228 401 b 1129 484 1206 433 1173 461 b 1011 538 1089 505 1050 524 b 875 580 972 552 926 566 l 873 580 b 819 595 858 585 840 589 b 762 608 797 600 778 605 b 732 617 751 612 741 614 b 674 635 708 623 689 629 b 635 655 657 642 644 648 b 623 671 627 661 623 666 b 651 694 623 679 633 687 b 734 707 672 703 699 707 b 832 693 768 707 802 703 b 921 648 863 683 893 668 b 928 646 923 647 926 646 b 935 648 930 646 932 647 l 1200 817 b 1206 826 1204 819 1206 823 b 1204 833 1206 828 1205 831 b 1200 837 1203 835 1202 836 b 987 939 1137 882 1066 917 b 726 973 907 962 821 973 b 514 954 650 973 578 966 b 340 892 450 940 392 920 l 340 892 b 223 795 288 864 250 832 b 182 669 196 758 182 716 b 199 597 182 644 188 621 b 236 544 208 579 220 561 b 150 463 199 519 170 492 b 117 357 127 431 117 395 b 150 256 117 320 127 287 b 245 177 172 226 203 199 b 363 123 286 155 324 138 b 496 80 401 109 446 94 b 541 67 509 77 524 72 b 604 49 566 60 587 54 l 604 49 b 656 34 620 45 637 40 b 687 22 669 29 680 25 l 688 22 b 726 1 703 15 716 8 b 737 -12 733 -4 737 -9 b 715 -31 737 -19 730 -25 b 642 -42 696 -39 672 -42 b 473 -10 587 -42 531 -31 b 327 71 414 11 366 38 b 319 75 324 73 321 75 b 311 71 316 75 314 73 l 73 -100 b 68 -109 69 -103 68 -106 b 70 -117 68 -112 68 -114 l 72 -119 b 321 -258 141 -180 224 -227 b 649 -307 425 -290 534 -307 b 866 -286 729 -307 802 -300 b 1040 -222 932 -271 989 -250 b 1155 -130 1090 -195 1129 -164 b 1194 -15 1181 -95 1194 -56 b 1179 54 1194 9 1189 31 b 1143 106 1171 72 1158 90 b 1228 184 1180 130 1208 155 b 1262 291 1251 216 1262 252 b 1228 401 1262 332 1251 368 z "},"¨":{"ha":1090,"x_min":0,"x_max":0,"o":"m 454 857 b 520 968 498 886 520 923 b 454 1079 520 1013 498 1050 b 294 1122 410 1107 357 1122 b 136 1078 233 1122 180 1107 b 68 968 90 1048 68 1012 b 134 857 68 923 90 886 b 294 814 178 828 231 814 b 454 857 358 814 412 828 z m 956 857 b 1023 968 1000 886 1023 923 b 1005 1029 1023 991 1017 1011 l 1004 1031 b 954 1078 993 1048 976 1065 l 953 1079 b 881 1111 932 1093 908 1103 b 795 1122 854 1118 825 1122 b 636 1078 733 1122 680 1107 b 568 968 591 1048 568 1012 b 635 857 568 923 591 886 b 795 814 677 828 731 814 b 956 857 859 814 913 828 z "},"©":{"ha":1611,"x_min":0,"x_max":0,"o":"m 1023 242 b 1171 347 1086 267 1135 302 b 1174 355 1173 350 1174 353 b 1169 364 1174 358 1173 361 l 1166 366 l 974 443 b 969 444 972 444 970 444 b 960 439 966 444 963 442 b 899 395 943 420 923 406 b 815 380 875 385 847 380 b 709 409 772 380 736 390 b 669 476 682 427 669 450 b 709 542 669 502 682 524 b 817 570 737 561 773 570 b 896 555 844 570 871 565 b 965 510 921 545 944 530 b 973 507 968 508 970 507 b 977 507 975 507 976 507 l 1168 574 b 1175 585 1173 577 1175 581 b 1175 590 1175 587 1175 589 b 1173 593 1175 591 1174 592 b 1027 707 1137 643 1089 681 b 811 747 963 734 890 747 b 650 728 752 747 698 741 b 520 672 601 715 557 697 b 434 585 482 647 454 618 b 406 476 415 552 406 516 b 435 367 406 436 415 400 b 522 280 454 334 484 305 b 651 224 559 255 603 237 b 813 205 701 212 754 205 b 1023 242 892 205 962 218 z m 608 168 b 441 242 547 184 491 210 b 328 350 390 275 353 311 b 292 476 304 389 292 431 b 328 603 292 522 304 564 b 441 711 353 642 390 678 b 608 786 492 745 547 770 b 806 811 668 803 734 811 b 1004 786 877 811 943 803 b 1171 711 1064 770 1120 745 l 1171 710 b 1283 603 1221 677 1259 642 b 1320 476 1308 564 1320 522 b 1283 350 1320 431 1308 389 b 1171 242 1259 311 1221 275 b 1004 168 1120 210 1064 184 b 806 142 943 151 877 142 b 608 168 734 142 668 151 z m 123 288 b 286 130 160 230 214 178 b 524 24 358 83 437 47 b 806 -12 610 0 705 -12 b 1088 24 907 -12 1001 0 b 1325 130 1174 47 1253 83 b 1488 288 1397 178 1451 230 b 1544 476 1525 345 1544 408 b 1488 665 1544 543 1525 606 b 1325 823 1451 722 1397 775 b 1086 930 1253 871 1174 906 b 806 966 1000 954 906 966 b 524 930 705 966 611 954 b 286 823 437 906 358 871 b 123 665 214 775 159 722 b 68 476 86 606 68 543 b 123 288 68 408 86 345 z "},"ª":{"ha":913,"x_min":0,"x_max":0,"o":"m 365 660 b 336 686 352 668 342 676 b 328 715 330 694 328 704 b 365 768 328 735 340 753 l 366 768 b 460 791 391 784 422 791 b 513 785 479 791 497 789 b 557 768 529 781 544 776 b 585 743 570 760 579 752 b 594 715 591 734 594 725 b 585 686 594 704 591 694 l 585 685 b 557 660 578 676 569 668 b 513 642 544 652 529 646 b 460 636 497 638 479 636 b 365 660 423 636 391 644 z m 520 929 b 413 940 487 937 452 940 b 277 924 363 940 319 935 b 167 876 237 913 199 897 b 93 804 134 855 110 831 b 68 715 76 777 68 747 b 92 626 68 683 76 653 b 165 552 109 599 133 574 b 276 504 198 531 235 515 b 413 488 317 493 363 488 b 517 498 450 488 485 491 b 599 524 547 504 574 513 l 599 505 b 607 498 599 502 602 499 l 837 498 b 845 505 842 498 844 500 l 845 922 b 837 929 845 926 842 928 l 607 929 b 599 922 603 929 600 927 l 599 903 b 520 929 575 915 549 923 z m 745 429 b 740 440 745 435 744 439 l 173 440 b 168 429 170 440 168 436 l 168 201 b 173 189 168 195 169 191 l 740 189 b 745 201 743 189 745 193 z "},"«":{"ha":1315,"x_min":0,"x_max":0,"o":"m 994 385 l 1244 630 b 1247 638 1246 633 1247 635 b 1244 646 1247 641 1246 644 b 1236 650 1241 648 1238 650 l 838 650 b 829 646 834 650 831 649 l 586 393 b 583 385 584 390 583 387 b 586 376 583 382 584 379 l 827 123 b 836 119 829 121 832 119 l 1236 119 b 1247 131 1242 119 1246 123 b 1243 140 1247 134 1246 138 z m 479 385 l 729 630 b 732 638 731 633 732 635 b 729 646 732 641 731 644 b 721 650 726 648 724 650 l 323 650 b 314 646 319 650 316 649 l 71 393 b 68 385 69 390 68 387 b 71 376 68 382 69 379 l 313 123 b 321 119 315 121 317 119 l 721 119 b 732 131 727 119 731 123 b 728 140 732 134 731 138 z "},"¬":{"ha":1072,"x_min":0,"x_max":0,"o":"m 645 168 b 656 156 645 161 649 157 l 992 156 b 1004 168 999 156 1003 160 l 1004 515 b 992 527 1004 522 1000 526 l 80 527 b 68 515 73 527 69 523 l 68 290 b 80 278 68 283 72 279 l 645 278 z "},"®":{"ha":1200,"x_min":0,"x_max":0,"o":"m 637 730 b 643 721 641 728 643 724 b 636 708 643 715 640 711 b 604 703 629 705 618 703 l 555 703 l 555 735 l 606 735 b 637 730 620 735 630 733 z m 763 803 b 642 833 730 823 690 833 l 404 833 b 392 822 397 833 393 829 l 392 521 b 404 509 392 514 396 510 l 543 509 b 555 521 550 509 554 513 l 555 605 l 579 605 l 649 513 b 659 509 652 511 655 509 l 808 509 b 819 521 814 509 818 513 b 817 529 819 524 819 526 l 740 624 b 791 658 762 633 779 645 b 814 720 806 675 814 696 b 763 803 814 753 797 781 z m 276 581 b 252 668 260 608 252 637 b 276 755 252 699 260 728 b 350 829 292 782 317 807 l 351 829 b 463 882 384 853 422 871 b 600 900 505 894 550 900 b 737 882 650 900 696 894 b 850 829 779 871 816 853 b 924 755 883 807 908 782 b 948 668 940 728 948 699 b 924 581 948 637 940 608 b 850 506 908 554 883 529 b 737 454 816 483 779 465 b 600 437 696 442 650 437 b 463 454 550 437 505 442 b 351 506 422 465 384 483 l 350 506 b 276 581 317 529 292 554 z m 108 806 b 68 668 81 764 68 718 b 108 530 68 618 81 572 b 226 416 134 488 174 450 b 397 340 278 382 335 357 b 600 315 460 323 528 315 b 802 340 673 315 740 323 b 974 416 865 357 922 382 b 1092 530 1026 450 1066 488 b 1133 668 1119 572 1133 618 b 1093 806 1133 718 1119 764 b 974 919 1066 847 1027 885 b 802 996 922 953 865 979 b 600 1021 740 1013 673 1021 b 398 996 528 1021 460 1013 b 226 919 336 979 278 953 b 108 806 174 885 134 847 z "},"¯":{"ha":895,"x_min":0,"x_max":0,"o":"m 827 1081 b 815 1093 827 1088 823 1092 l 80 1093 b 68 1081 73 1093 69 1089 l 68 854 b 80 842 68 848 72 844 l 815 842 b 827 854 822 842 825 846 z "},"°":{"ha":797,"x_min":0,"x_max":0,"o":"m 332 726 b 306 765 315 737 306 750 b 331 802 306 779 314 792 b 399 820 349 814 371 820 b 465 802 425 820 446 814 b 489 765 481 791 489 779 b 464 726 489 750 481 737 b 399 707 446 713 424 707 b 332 726 372 707 349 713 z m 93 679 b 166 610 109 654 134 631 b 273 564 198 589 233 574 b 399 549 311 553 353 549 b 525 564 444 549 486 553 b 631 610 564 574 599 589 b 704 679 663 631 688 654 b 729 762 721 705 729 732 b 704 848 729 793 721 822 b 631 918 688 873 663 897 b 524 964 599 938 563 954 b 399 980 486 975 444 980 b 273 964 353 980 311 975 b 166 918 234 954 198 938 b 93 848 134 897 109 873 b 68 762 76 822 68 793 b 93 679 68 732 76 705 z "},"±":{"ha":1208,"x_min":0,"x_max":0,"o":"m 785 652 l 785 876 b 774 888 785 882 781 886 l 438 888 b 426 876 431 888 427 884 l 426 652 l 80 652 b 68 640 73 652 69 648 l 68 416 b 80 404 68 410 72 406 l 426 404 l 426 258 l 80 258 b 68 246 73 258 69 254 l 68 28 b 80 16 68 22 72 18 l 1128 16 b 1140 28 1135 16 1139 20 l 1140 246 b 1128 258 1140 253 1136 257 l 785 258 l 785 404 l 1128 404 b 1140 416 1135 404 1139 408 l 1140 640 b 1128 652 1140 646 1136 650 z "},"´":{"ha":727,"x_min":0,"x_max":0,"o":"m 657 1090 b 659 1098 659 1093 659 1095 b 655 1107 659 1101 658 1104 b 648 1109 652 1109 650 1109 l 215 1109 b 204 1103 210 1109 206 1107 l 69 844 b 68 838 68 842 68 840 b 74 827 68 833 70 830 b 79 826 76 827 77 826 l 449 826 b 458 831 453 826 456 828 z "},"¶":{"ha":1706,"x_min":0,"x_max":0,"o":"m 202 866 b 68 631 113 808 68 730 b 192 401 68 533 109 456 l 192 401 b 334 340 233 374 281 354 b 511 320 387 327 446 320 l 554 320 l 554 -232 b 566 -244 554 -239 558 -243 l 951 -244 b 962 -232 958 -244 961 -240 l 962 676 l 1067 676 l 1067 -232 b 1079 -244 1067 -239 1071 -243 l 1463 -244 b 1475 -232 1470 -244 1474 -240 l 1475 676 l 1626 676 b 1638 688 1632 676 1636 680 l 1638 938 b 1626 949 1638 945 1634 948 l 560 949 b 202 866 409 949 289 922 z "},"¸":{"ha":743,"x_min":0,"x_max":0,"o":"m 244 20 b 234 15 239 20 236 18 l 158 -111 b 157 -117 157 -113 157 -115 b 157 -121 157 -118 157 -120 l 171 -163 b 182 -172 173 -169 177 -172 l 282 -172 b 363 -181 319 -172 346 -175 b 385 -201 378 -186 385 -193 b 370 -219 385 -208 380 -214 b 309 -228 357 -225 337 -228 b 235 -221 285 -228 260 -226 b 157 -201 209 -216 183 -210 b 153 -201 155 -201 154 -201 b 142 -207 149 -201 145 -203 l 69 -340 b 68 -347 68 -342 68 -345 b 74 -357 68 -351 70 -354 l 76 -357 b 212 -389 122 -372 168 -382 b 345 -400 256 -397 300 -400 b 480 -387 395 -400 440 -396 b 584 -349 520 -378 555 -366 b 651 -290 614 -331 636 -311 b 675 -220 667 -269 675 -245 b 614 -119 675 -179 654 -145 b 480 -72 578 -95 534 -79 l 524 0 b 526 6 526 2 526 4 b 520 16 526 10 524 14 b 514 18 518 17 516 18 z "},"º":{"ha":911,"x_min":0,"x_max":0,"o":"m 363 660 b 328 713 339 674 328 692 b 363 765 328 733 339 751 b 455 787 388 780 418 787 b 548 766 492 787 524 780 b 584 713 572 751 584 734 b 549 659 584 692 572 674 b 455 637 524 644 493 637 b 363 660 418 637 388 644 z m 817 623 b 844 712 835 650 844 680 b 817 802 844 745 835 774 b 734 875 798 829 771 853 b 610 924 699 897 657 913 b 455 940 564 935 513 940 b 300 924 398 940 346 935 b 176 875 254 913 212 897 b 95 802 140 853 113 829 b 68 712 77 774 68 745 b 95 623 68 680 77 650 b 176 550 113 596 140 572 l 176 549 b 300 501 212 528 254 512 b 455 485 346 490 398 485 b 610 501 513 485 564 490 b 734 550 657 512 699 528 b 817 623 771 572 798 596 z m 745 425 b 739 437 745 432 743 436 l 172 437 b 167 425 170 437 168 433 l 167 198 b 172 186 167 192 169 188 l 739 186 b 745 198 743 186 745 191 z "},"»":{"ha":1315,"x_min":0,"x_max":0,"o":"m 321 385 l 72 140 b 68 131 69 138 68 134 b 80 119 69 123 73 119 l 479 119 b 488 123 483 119 486 121 l 729 376 b 732 385 731 379 732 382 b 729 393 732 387 731 390 l 486 646 b 477 650 484 649 481 650 l 79 650 b 71 646 77 650 74 648 b 68 638 69 644 68 641 b 71 630 68 635 69 633 z m 836 385 l 587 140 b 583 131 584 138 583 134 b 594 119 584 123 588 119 l 994 119 b 1002 123 998 119 1000 121 l 1244 376 b 1247 385 1246 379 1247 382 b 1244 393 1247 387 1246 390 l 1001 646 b 992 650 999 649 996 650 l 594 650 b 586 646 591 650 589 648 b 583 638 584 644 583 641 b 586 630 583 635 584 633 z "},"¿":{"ha":1179,"x_min":0,"x_max":0,"o":"m 460 684 b 399 583 420 657 399 623 b 461 481 399 543 420 509 b 604 442 500 456 548 442 b 751 481 661 442 711 455 b 814 583 793 509 814 543 b 751 684 814 623 793 657 b 604 723 709 710 661 723 b 460 684 548 723 500 710 z m 416 358 b 368 280 416 330 400 304 b 256 210 336 256 298 233 l 256 209 b 198 174 235 197 216 186 l 197 174 b 102 85 158 150 126 120 b 68 -23 79 52 68 16 b 102 -138 68 -64 79 -103 b 201 -230 124 -172 157 -202 b 358 -292 245 -258 298 -278 b 564 -312 418 -305 487 -312 b 864 -266 673 -312 774 -296 b 1107 -127 954 -235 1036 -189 b 1112 -117 1110 -124 1112 -121 b 1109 -110 1112 -115 1111 -113 l 1107 -109 l 877 60 b 869 62 874 62 872 62 b 861 60 867 62 864 62 b 722 -28 812 20 766 -9 b 596 -57 677 -47 636 -57 b 523 -41 567 -57 543 -52 b 498 -4 507 -31 498 -19 b 534 50 498 14 511 33 b 618 102 558 66 586 83 b 620 102 619 102 619 102 b 692 146 644 117 668 131 b 774 231 726 168 753 196 b 804 338 794 262 804 298 l 804 408 b 792 420 804 414 800 418 l 429 420 b 416 408 422 420 418 416 z "},"×":{"ha":1172,"x_min":0,"x_max":0,"o":"m 583 600 l 309 781 b 302 783 307 782 304 783 b 295 781 300 783 297 782 l 75 627 b 70 618 71 625 70 621 b 72 610 70 615 71 613 b 75 607 73 609 74 608 l 335 435 l 73 261 b 68 252 70 258 68 255 b 70 245 68 250 68 248 b 73 241 71 243 72 242 l 295 85 b 302 83 297 84 300 83 b 309 86 304 83 307 84 l 585 270 l 861 85 b 868 83 863 84 866 83 b 874 85 870 83 872 84 l 1097 241 b 1102 251 1101 244 1102 248 b 1100 258 1102 254 1101 256 b 1096 262 1099 260 1097 261 l 833 435 l 1099 612 b 1104 622 1102 615 1104 618 b 1102 629 1104 624 1103 627 b 1099 632 1101 630 1100 631 l 867 780 b 860 781 865 781 862 781 b 853 779 858 781 855 781 z "},"÷":{"ha":1090,"x_min":0,"x_max":0,"o":"m 676 118 l 677 119 b 730 210 713 143 730 174 b 675 302 730 246 712 277 b 547 337 640 325 597 337 b 414 302 495 337 451 326 b 356 210 376 277 356 246 b 413 118 356 173 375 142 b 547 82 450 94 495 82 b 676 118 598 82 641 94 z m 674 620 l 675 621 b 729 712 711 645 729 675 b 673 804 729 748 710 779 b 545 839 638 827 595 839 b 412 804 493 839 449 827 b 355 712 374 779 355 749 b 412 620 355 675 374 644 b 545 584 448 596 493 584 b 674 620 596 584 639 596 z m 1023 560 b 1011 572 1023 566 1019 570 l 80 572 b 68 560 73 572 69 568 l 68 360 b 80 348 68 353 72 349 l 1011 348 b 1023 360 1017 348 1021 352 z "},"À":{"ha":1518,"x_min":0,"x_max":0,"o":"m 766 614 l 864 399 l 664 399 z m 968 941 b 958 947 966 945 962 947 l 575 947 b 565 940 570 947 567 945 l 69 18 b 68 12 68 16 68 14 b 74 1 68 7 70 4 b 79 0 76 1 77 0 l 481 0 b 492 8 486 0 490 3 l 559 151 l 964 151 l 1027 7 b 1038 0 1029 3 1033 0 l 1439 0 b 1451 12 1445 0 1449 4 b 1449 18 1451 14 1450 16 z m 383 1319 l 581 1060 b 591 1055 584 1057 587 1055 l 960 1055 b 966 1056 962 1055 964 1055 b 972 1067 970 1059 972 1062 b 971 1072 972 1068 972 1070 l 836 1331 b 825 1338 833 1336 830 1338 l 392 1338 b 385 1335 390 1338 387 1337 b 380 1326 382 1333 380 1329 b 383 1319 380 1324 381 1322 z "},"Á":{"ha":1518,"x_min":0,"x_max":0,"o":"m 766 614 l 864 399 l 664 399 z m 968 941 b 958 947 966 945 962 947 l 575 947 b 565 940 570 947 567 945 l 69 18 b 68 12 68 16 68 14 b 74 1 68 7 70 4 b 79 0 76 1 77 0 l 481 0 b 492 8 486 0 490 3 l 559 151 l 964 151 l 1027 7 b 1038 0 1029 3 1033 0 l 1439 0 b 1451 12 1445 0 1449 4 b 1449 18 1451 14 1450 16 z m 1167 1319 b 1169 1326 1168 1322 1169 1324 b 1165 1335 1169 1329 1168 1333 b 1158 1338 1162 1337 1160 1338 l 725 1338 b 714 1331 720 1338 716 1336 l 579 1072 b 578 1066 578 1070 578 1068 b 584 1056 578 1062 580 1059 b 589 1055 586 1055 587 1055 l 959 1055 b 968 1060 963 1055 966 1057 z "},"Â":{"ha":1518,"x_min":0,"x_max":0,"o":"m 766 614 l 864 399 l 664 399 z m 968 941 b 958 947 966 945 962 947 l 575 947 b 565 940 570 947 567 945 l 69 18 b 68 12 68 16 68 14 b 74 1 68 7 70 4 b 79 0 76 1 77 0 l 481 0 b 492 8 486 0 490 3 l 559 151 l 964 151 l 1027 7 b 1038 0 1029 3 1033 0 l 1439 0 b 1451 12 1445 0 1449 4 b 1449 18 1451 14 1450 16 z m 768 1163 l 878 1055 b 886 1052 880 1053 883 1052 l 1261 1052 b 1273 1064 1267 1052 1272 1056 b 1267 1074 1273 1068 1271 1072 l 938 1338 b 930 1341 936 1339 933 1340 l 618 1341 b 610 1337 614 1341 612 1339 l 281 1073 b 277 1064 279 1070 277 1067 b 280 1057 277 1062 278 1059 b 289 1052 283 1053 286 1052 l 652 1052 b 661 1056 656 1052 659 1053 z "},"Ã":{"ha":1518,"x_min":0,"x_max":0,"o":"m 766 614 l 864 399 l 664 399 z m 968 941 b 958 947 966 945 962 947 l 575 947 b 565 940 570 947 567 945 l 69 18 b 68 12 68 16 68 14 b 74 1 68 7 70 4 b 79 0 76 1 77 0 l 481 0 b 492 8 486 0 490 3 l 559 151 l 964 151 l 1027 7 b 1038 0 1029 3 1033 0 l 1439 0 b 1451 12 1445 0 1449 4 b 1449 18 1451 14 1450 16 z m 602 1101 b 671 1118 623 1113 646 1118 b 792 1088 694 1118 735 1108 l 793 1088 b 877 1065 823 1078 851 1070 b 949 1058 903 1061 927 1058 b 1131 1107 1015 1058 1076 1074 b 1279 1251 1185 1139 1235 1187 b 1281 1258 1280 1253 1281 1255 b 1276 1267 1281 1261 1280 1264 b 1273 1269 1276 1267 1274 1268 l 1022 1348 b 1018 1349 1021 1349 1019 1349 b 1009 1345 1015 1349 1012 1348 b 949 1294 987 1320 966 1303 b 897 1280 932 1285 915 1280 b 857 1287 888 1280 874 1282 b 791 1308 839 1292 817 1299 b 710 1330 763 1318 736 1325 b 634 1337 684 1335 659 1337 b 431 1291 553 1337 486 1322 b 271 1146 375 1260 322 1212 b 269 1139 269 1143 269 1141 b 273 1130 269 1136 270 1133 b 277 1128 274 1129 275 1128 l 526 1044 b 530 1044 527 1044 528 1044 b 538 1048 533 1044 536 1045 b 602 1101 559 1072 580 1090 z "},"Ä":{"ha":1518,"x_min":0,"x_max":0,"o":"m 766 614 l 864 399 l 664 399 z m 968 941 b 958 947 966 945 962 947 l 575 947 b 565 940 570 947 567 945 l 69 18 b 68 12 68 16 68 14 b 74 1 68 7 70 4 b 79 0 76 1 77 0 l 481 0 b 492 8 486 0 490 3 l 559 151 l 964 151 l 1027 7 b 1038 0 1029 3 1033 0 l 1439 0 b 1451 12 1445 0 1449 4 b 1449 18 1451 14 1450 16 z m 684 1085 b 750 1197 728 1114 750 1152 b 684 1308 750 1242 728 1278 b 524 1350 640 1336 587 1350 b 366 1307 463 1350 410 1335 b 298 1197 320 1277 298 1240 b 364 1085 298 1152 320 1114 b 524 1042 408 1057 460 1042 b 684 1085 588 1042 642 1057 z m 1185 1085 b 1253 1197 1230 1114 1253 1152 b 1235 1258 1253 1219 1246 1240 l 1234 1259 b 1183 1307 1223 1277 1206 1293 l 1183 1308 b 1111 1339 1162 1322 1137 1332 b 1024 1350 1084 1346 1055 1350 b 866 1307 963 1350 910 1335 b 798 1197 821 1277 798 1240 b 865 1085 798 1152 820 1114 b 1024 1042 907 1057 961 1042 b 1185 1085 1088 1042 1143 1057 z "},"Å":{"ha":1518,"x_min":0,"x_max":0,"o":"m 766 614 l 864 399 l 664 399 z m 968 941 b 958 947 966 945 962 947 l 575 947 b 565 940 570 947 567 945 l 69 18 b 68 12 68 16 68 14 b 74 1 68 7 70 4 b 79 0 76 1 77 0 l 481 0 b 492 8 486 0 490 3 l 559 151 l 964 151 l 1027 7 b 1038 0 1029 3 1033 0 l 1439 0 b 1451 12 1445 0 1449 4 b 1449 18 1451 14 1450 16 z m 707 1158 b 682 1197 691 1169 682 1182 b 707 1234 682 1211 690 1224 b 774 1252 725 1246 747 1252 b 841 1234 801 1252 823 1246 b 865 1197 857 1223 865 1211 b 840 1158 865 1182 857 1169 b 774 1139 822 1145 800 1139 b 707 1158 748 1139 726 1145 z m 469 1111 b 543 1042 486 1086 510 1063 b 648 996 574 1021 610 1006 b 774 981 688 985 730 981 b 901 996 820 981 862 985 b 1007 1042 940 1006 975 1021 b 1080 1111 1040 1063 1064 1086 b 1105 1194 1097 1137 1105 1164 b 1080 1280 1105 1225 1097 1254 b 1007 1350 1064 1305 1040 1329 b 901 1396 975 1370 939 1385 b 774 1412 862 1407 820 1412 b 649 1396 730 1412 688 1407 b 543 1350 610 1385 574 1370 b 469 1280 510 1329 486 1305 b 444 1194 452 1254 444 1225 b 469 1111 444 1164 452 1137 z "},"Æ":{"ha":2216,"x_min":0,"x_max":0,"o":"m 766 614 l 864 399 l 664 399 z m 968 941 b 958 947 966 945 962 947 l 575 947 b 565 940 570 947 567 945 l 69 18 b 68 12 68 16 68 14 b 74 1 68 7 70 4 b 79 0 76 1 77 0 l 481 0 b 492 8 486 0 490 3 l 559 151 l 964 151 l 1027 7 b 1038 0 1029 3 1033 0 l 1439 0 b 1451 12 1445 0 1449 4 b 1449 18 1451 14 1450 16 z m 2145 252 b 2133 263 2145 258 2141 262 l 1502 263 l 1502 342 l 2088 342 b 2100 354 2094 342 2098 346 l 2100 593 b 2088 604 2100 599 2096 603 l 1502 604 l 1502 683 l 2137 683 b 2148 695 2143 683 2147 687 l 2148 935 b 2137 947 2148 941 2144 945 l 1094 947 b 1082 935 1088 947 1084 943 l 1082 12 b 1094 0 1082 5 1086 1 l 2133 0 b 2145 12 2140 0 2144 4 z "},"Ç":{"ha":1492,"x_min":0,"x_max":0,"o":"m 985 -1 b 1158 41 1045 8 1103 22 b 1307 102 1213 59 1263 79 b 1421 180 1351 125 1389 151 b 1424 189 1423 183 1424 186 b 1421 197 1424 192 1423 195 b 1419 199 1421 198 1419 199 l 1161 366 b 1155 368 1159 367 1157 368 b 1147 364 1152 368 1149 366 b 996 284 1100 328 1050 302 b 823 257 943 266 884 257 b 695 273 777 257 734 262 b 589 320 656 283 621 299 b 521 389 559 341 536 364 b 498 473 506 414 498 442 b 521 557 498 503 506 532 b 589 627 536 583 559 606 b 696 674 621 648 657 663 b 825 690 734 685 777 690 b 1142 588 937 690 1043 656 b 1149 586 1144 587 1147 586 b 1156 588 1151 586 1154 587 l 1400 764 b 1405 773 1404 766 1405 770 b 1403 781 1405 776 1404 778 l 1401 783 b 1139 916 1333 840 1246 884 b 798 963 1036 947 922 963 b 516 928 696 963 602 951 b 281 825 430 905 351 871 b 121 667 210 779 157 726 b 68 470 85 608 68 542 b 121 275 68 399 85 334 b 277 119 155 216 208 165 b 511 20 347 75 425 42 l 512 19 b 796 -14 598 -3 693 -14 b 985 -1 862 -14 924 -9 z m 667 20 b 657 15 663 20 659 18 l 581 -111 b 580 -117 580 -113 580 -115 b 581 -121 580 -118 580 -120 l 594 -163 b 605 -172 596 -169 600 -172 l 705 -172 b 787 -181 742 -172 769 -175 b 808 -201 801 -186 808 -193 b 793 -219 808 -208 803 -214 b 732 -228 780 -225 760 -228 b 658 -221 708 -228 683 -226 b 580 -201 632 -216 606 -210 b 576 -201 578 -201 577 -201 b 566 -207 572 -201 568 -203 l 492 -340 b 491 -347 492 -342 491 -345 b 497 -357 491 -351 493 -354 l 499 -357 b 635 -389 545 -372 591 -382 b 768 -400 679 -397 724 -400 b 903 -387 818 -400 863 -396 b 1007 -349 943 -378 978 -366 b 1074 -290 1037 -331 1059 -311 b 1098 -220 1090 -269 1098 -245 b 1038 -119 1098 -179 1078 -145 b 903 -72 1002 -95 957 -79 l 947 0 b 949 6 949 2 949 4 b 943 16 949 10 947 14 b 937 18 941 17 939 18 z "},"Ð":{"ha":1583,"x_min":0,"x_max":0,"o":"m 813 673 b 931 658 858 673 897 668 b 1015 614 964 648 992 633 l 1015 613 b 1067 549 1038 593 1055 572 b 1084 474 1078 526 1084 501 b 1067 397 1084 446 1078 421 b 1015 333 1055 374 1038 353 b 931 289 992 313 964 298 b 813 273 897 279 858 273 l 621 273 l 621 673 z m 1094 31 b 1321 125 1182 52 1258 83 l 1322 126 b 1467 276 1386 168 1434 218 b 1515 473 1499 334 1515 399 b 1467 671 1515 547 1499 612 b 1323 821 1435 728 1387 779 l 1322 821 b 1098 916 1260 863 1185 895 b 798 947 1010 936 910 947 l 218 947 b 205 935 211 947 207 943 l 205 12 b 218 0 205 5 210 1 l 794 0 b 1094 31 907 0 1006 10 z m 878 587 b 869 599 878 593 875 597 l 76 599 b 68 587 71 599 68 595 l 68 359 b 76 347 68 353 71 349 l 869 347 b 878 359 874 347 877 351 z "},"È":{"ha":1202,"x_min":0,"x_max":0,"o":"m 1131 252 b 1118 263 1131 258 1126 262 l 488 263 l 488 342 l 1074 342 b 1085 354 1080 342 1084 346 l 1085 593 b 1074 604 1085 599 1081 603 l 488 604 l 488 683 l 1122 683 b 1134 695 1129 683 1133 687 l 1134 935 b 1122 947 1134 941 1131 945 l 80 947 b 68 935 73 947 69 943 l 68 12 b 80 0 68 5 72 1 l 1118 0 b 1131 12 1125 0 1129 4 z m 209 1319 l 407 1060 b 417 1055 410 1057 413 1055 l 786 1055 b 791 1056 788 1055 789 1055 b 798 1067 796 1059 798 1062 b 797 1072 798 1068 798 1070 l 661 1331 b 651 1338 659 1336 656 1338 l 218 1338 b 211 1335 216 1338 213 1337 b 206 1326 208 1333 206 1329 b 209 1319 206 1324 207 1322 z "},"É":{"ha":1202,"x_min":0,"x_max":0,"o":"m 1131 252 b 1118 263 1131 258 1126 262 l 488 263 l 488 342 l 1074 342 b 1085 354 1080 342 1084 346 l 1085 593 b 1074 604 1085 599 1081 603 l 488 604 l 488 683 l 1122 683 b 1134 695 1129 683 1133 687 l 1134 935 b 1122 947 1134 941 1131 945 l 80 947 b 68 935 73 947 69 943 l 68 12 b 80 0 68 5 72 1 l 1118 0 b 1131 12 1125 0 1129 4 z m 993 1319 b 995 1326 994 1322 995 1324 b 991 1335 995 1329 994 1333 b 983 1338 988 1337 985 1338 l 551 1338 b 540 1331 546 1338 542 1336 l 405 1072 b 404 1066 404 1070 404 1068 b 410 1056 404 1062 406 1059 b 415 1055 412 1055 413 1055 l 785 1055 b 794 1060 789 1055 792 1057 z "},"Ê":{"ha":1202,"x_min":0,"x_max":0,"o":"m 1131 252 b 1118 263 1131 258 1126 262 l 488 263 l 488 342 l 1074 342 b 1085 354 1080 342 1084 346 l 1085 593 b 1074 604 1085 599 1081 603 l 488 604 l 488 683 l 1122 683 b 1134 695 1129 683 1133 687 l 1134 935 b 1122 947 1134 941 1131 945 l 80 947 b 68 935 73 947 69 943 l 68 12 b 80 0 68 5 72 1 l 1118 0 b 1131 12 1125 0 1129 4 z m 594 1163 l 704 1055 b 712 1052 706 1053 709 1052 l 1086 1052 b 1099 1064 1093 1052 1097 1056 b 1093 1074 1099 1068 1097 1072 l 764 1338 b 756 1341 762 1339 759 1340 l 444 1341 b 435 1337 440 1341 437 1339 l 107 1073 b 103 1064 104 1070 103 1067 b 106 1057 103 1062 104 1059 b 115 1052 109 1053 111 1052 l 478 1052 b 487 1056 481 1052 485 1053 z "},"Ë":{"ha":1202,"x_min":0,"x_max":0,"o":"m 1131 252 b 1118 263 1131 258 1126 262 l 488 263 l 488 342 l 1074 342 b 1085 354 1080 342 1084 346 l 1085 593 b 1074 604 1085 599 1081 603 l 488 604 l 488 683 l 1122 683 b 1134 695 1129 683 1133 687 l 1134 935 b 1122 947 1134 941 1131 945 l 80 947 b 68 935 73 947 69 943 l 68 12 b 80 0 68 5 72 1 l 1118 0 b 1131 12 1125 0 1129 4 z m 510 1085 b 576 1197 554 1114 576 1152 b 509 1308 576 1242 554 1278 b 350 1350 466 1336 413 1350 b 191 1307 288 1350 236 1335 b 123 1197 146 1277 123 1240 b 190 1085 123 1152 146 1114 b 350 1042 233 1057 286 1042 b 510 1085 414 1042 467 1057 z m 1011 1085 b 1078 1197 1056 1114 1078 1152 b 1061 1258 1078 1219 1072 1240 l 1060 1259 b 1009 1307 1048 1277 1031 1293 l 1008 1308 b 937 1339 987 1322 964 1332 b 850 1350 910 1346 881 1350 b 692 1307 789 1350 736 1335 b 624 1197 646 1277 624 1240 b 690 1085 624 1152 646 1114 b 850 1042 733 1057 787 1042 b 1011 1085 914 1042 968 1057 z "},"Ì":{"ha":555,"x_min":0,"x_max":0,"o":"m 475 0 b 488 12 482 0 486 4 l 488 935 b 475 947 488 941 484 945 l 79 947 b 68 935 73 947 69 943 l 68 12 b 79 0 68 5 72 1 z m -115 1319 l 83 1060 b 94 1055 86 1057 90 1055 l 463 1055 b 468 1056 465 1055 466 1055 b 475 1067 472 1059 475 1062 b 473 1072 475 1068 474 1070 l 338 1331 b 328 1338 336 1336 332 1338 l -106 1338 b -113 1335 -108 1338 -111 1337 b -117 1326 -116 1333 -117 1329 b -115 1319 -117 1324 -117 1322 z "},"Í":{"ha":555,"x_min":0,"x_max":0,"o":"m 475 0 b 488 12 482 0 486 4 l 488 935 b 475 947 488 941 484 945 l 80 947 b 68 935 73 947 69 943 l 68 12 b 80 0 68 5 72 1 z m 669 1319 b 671 1326 671 1322 671 1324 b 667 1335 671 1329 670 1333 b 660 1338 665 1337 662 1338 l 227 1338 b 216 1331 222 1338 218 1336 l 81 1072 b 80 1066 81 1070 80 1068 b 86 1056 80 1062 82 1059 b 92 1055 88 1055 90 1055 l 461 1055 b 471 1060 465 1055 469 1057 z "},"Î":{"ha":555,"x_min":0,"x_max":0,"o":"m 475 0 b 488 12 482 0 486 4 l 488 935 b 475 947 488 941 484 945 l 80 947 b 68 935 73 947 69 943 l 68 12 b 80 0 68 5 72 1 z m 271 1163 l 380 1055 b 389 1052 382 1053 385 1052 l 763 1052 b 775 1064 770 1052 774 1056 b 770 1074 775 1068 773 1072 l 440 1338 b 433 1341 438 1339 435 1340 l 120 1341 b 112 1337 117 1341 114 1339 l -216 1073 b -220 1064 -219 1070 -220 1067 b -218 1057 -220 1062 -220 1059 b -209 1052 -215 1053 -212 1052 l 155 1052 b 163 1056 158 1052 161 1053 z "},"Ï":{"ha":555,"x_min":0,"x_max":0,"o":"m 475 0 b 488 12 482 0 486 4 l 488 935 b 475 947 488 941 484 945 l 80 947 b 68 935 73 947 69 943 l 68 12 b 80 0 68 5 72 1 z m 186 1085 b 252 1197 231 1114 252 1152 b 186 1308 252 1242 231 1278 b 26 1350 142 1336 90 1350 b -132 1307 -35 1350 -87 1335 b -200 1197 -178 1277 -200 1240 b -134 1085 -200 1152 -178 1114 b 26 1042 -90 1057 -37 1042 b 186 1085 90 1042 144 1057 z m 688 1085 b 755 1197 732 1114 755 1152 b 737 1258 755 1219 749 1240 l 736 1259 b 686 1307 725 1277 708 1293 l 685 1308 b 613 1339 664 1322 640 1332 b 527 1350 587 1346 557 1350 b 368 1307 465 1350 412 1335 b 300 1197 323 1277 300 1240 b 367 1085 300 1152 323 1114 b 527 1042 410 1057 463 1042 b 688 1085 591 1042 645 1057 z "},"Ñ":{"ha":1434,"x_min":0,"x_max":0,"o":"m 381 944 b 374 947 378 945 376 947 l 80 947 b 68 935 73 947 69 943 l 68 12 b 80 0 68 5 72 1 l 465 0 b 476 12 471 0 475 4 l 476 444 l 1040 3 b 1047 0 1042 1 1044 0 l 1354 0 b 1366 12 1360 0 1364 4 l 1366 935 b 1354 947 1366 941 1362 945 l 970 947 b 958 935 963 947 959 943 l 958 497 z m 544 1101 b 612 1118 565 1113 588 1118 b 734 1088 636 1118 677 1108 l 735 1088 b 819 1065 765 1078 793 1070 b 890 1058 845 1061 869 1058 b 1072 1107 956 1058 1017 1074 b 1221 1251 1127 1139 1177 1187 b 1223 1258 1222 1253 1223 1255 b 1218 1267 1223 1261 1221 1264 b 1215 1269 1217 1267 1216 1268 l 964 1348 b 960 1349 962 1349 961 1349 b 951 1345 956 1349 954 1348 b 890 1294 928 1320 908 1303 b 838 1280 874 1285 857 1280 b 798 1287 829 1280 816 1282 b 732 1308 781 1292 759 1299 b 652 1330 705 1318 678 1325 b 576 1337 625 1335 600 1337 b 373 1291 495 1337 428 1322 b 213 1146 317 1260 264 1212 b 210 1139 211 1143 210 1141 b 215 1130 210 1136 212 1133 b 219 1128 216 1129 217 1128 l 467 1044 b 471 1044 469 1044 470 1044 b 480 1048 475 1044 478 1045 b 544 1101 500 1072 522 1090 z "},"Ò":{"ha":1622,"x_min":0,"x_max":0,"o":"m 689 281 b 588 326 652 292 618 307 b 521 393 558 346 536 368 b 498 474 506 417 498 444 b 521 555 498 503 506 530 b 588 621 536 580 558 602 b 689 667 618 641 652 656 b 811 682 726 677 767 682 b 933 667 855 682 896 677 b 1033 623 970 657 1003 642 b 1100 556 1063 603 1085 581 b 1124 473 1115 531 1123 504 l 1124 469 b 1103 394 1124 441 1117 417 b 1036 326 1089 369 1067 347 b 935 281 1006 307 972 292 b 811 266 898 271 857 266 b 689 281 767 266 726 271 z m 1103 20 b 1340 124 1191 43 1270 78 b 1500 281 1411 171 1464 223 b 1554 473 1537 340 1554 404 b 1500 665 1554 543 1537 606 b 1340 822 1465 724 1411 776 l 1339 823 b 1101 928 1269 869 1190 904 b 811 963 1014 951 917 963 b 521 928 705 963 609 951 b 283 822 433 904 353 869 b 122 665 212 776 158 724 b 68 474 86 607 68 543 b 122 282 68 405 86 341 b 283 124 158 224 212 172 b 522 20 353 78 433 43 b 813 -15 611 -3 707 -15 b 1103 20 918 -15 1015 -3 z m 419 1319 l 617 1060 b 627 1055 620 1057 623 1055 l 996 1055 b 1002 1056 998 1055 1000 1055 b 1008 1067 1006 1059 1008 1062 b 1007 1072 1008 1068 1008 1070 l 871 1331 b 861 1338 869 1336 866 1338 l 428 1338 b 421 1335 426 1338 423 1337 b 416 1326 418 1333 416 1329 b 419 1319 416 1324 417 1322 z "},"Ó":{"ha":1622,"x_min":0,"x_max":0,"o":"m 689 281 b 588 326 652 292 618 307 b 521 393 558 346 536 368 b 498 474 506 417 498 444 b 521 555 498 503 506 530 b 588 621 536 580 558 602 b 689 667 618 641 652 656 b 811 682 726 677 767 682 b 933 667 855 682 896 677 b 1033 623 970 657 1003 642 b 1100 556 1063 603 1085 581 b 1124 473 1115 531 1123 504 l 1124 469 b 1103 394 1124 441 1117 417 b 1036 326 1089 369 1067 347 b 935 281 1006 307 972 292 b 811 266 898 271 857 266 b 689 281 767 266 726 271 z m 1103 20 b 1340 124 1191 43 1270 78 b 1500 281 1411 171 1464 223 b 1554 473 1537 340 1554 404 b 1500 665 1554 543 1537 606 b 1340 822 1465 724 1411 776 l 1339 823 b 1101 928 1269 869 1190 904 b 811 963 1014 951 917 963 b 521 928 705 963 609 951 b 283 822 433 904 353 869 b 122 665 212 776 158 724 b 68 474 86 607 68 543 b 122 282 68 405 86 341 b 283 124 158 224 212 172 b 522 20 353 78 433 43 b 813 -15 611 -3 707 -15 b 1103 20 918 -15 1015 -3 z m 1203 1319 b 1205 1326 1204 1322 1205 1324 b 1201 1335 1205 1329 1204 1333 b 1194 1338 1198 1337 1196 1338 l 761 1338 b 750 1331 756 1338 752 1336 l 615 1072 b 614 1066 614 1070 614 1068 b 620 1056 614 1062 616 1059 b 625 1055 622 1055 623 1055 l 995 1055 b 1004 1060 999 1055 1002 1057 z "},"Ô":{"ha":1622,"x_min":0,"x_max":0,"o":"m 689 281 b 588 326 652 292 618 307 b 521 393 558 346 536 368 b 498 474 506 417 498 444 b 521 555 498 503 506 530 b 588 621 536 580 558 602 b 689 667 618 641 652 656 b 811 682 726 677 767 682 b 933 667 855 682 896 677 b 1033 623 970 657 1003 642 b 1100 556 1063 603 1085 581 b 1124 473 1115 531 1123 504 l 1124 469 b 1103 394 1124 441 1117 417 b 1036 326 1089 369 1067 347 b 935 281 1006 307 972 292 b 811 266 898 271 857 266 b 689 281 767 266 726 271 z m 1103 20 b 1340 124 1191 43 1270 78 b 1500 281 1411 171 1464 223 b 1554 473 1537 340 1554 404 b 1500 665 1554 543 1537 606 b 1340 822 1465 724 1411 776 l 1339 823 b 1101 928 1269 869 1190 904 b 811 963 1014 951 917 963 b 521 928 705 963 609 951 b 283 822 433 904 353 869 b 122 665 212 776 158 724 b 68 474 86 607 68 543 b 122 282 68 405 86 341 b 283 124 158 224 212 172 b 522 20 353 78 433 43 b 813 -15 611 -3 707 -15 b 1103 20 918 -15 1015 -3 z m 804 1163 l 914 1055 b 922 1052 916 1053 919 1052 l 1297 1052 b 1309 1064 1303 1052 1308 1056 b 1303 1074 1309 1068 1307 1072 l 974 1338 b 966 1341 972 1339 969 1340 l 654 1341 b 646 1337 650 1341 648 1339 l 317 1073 b 313 1064 315 1070 313 1067 b 316 1057 313 1062 314 1059 b 325 1052 319 1053 321 1052 l 688 1052 b 697 1056 692 1052 695 1053 z "},"Õ":{"ha":1622,"x_min":0,"x_max":0,"o":"m 689 281 b 588 326 652 292 618 307 b 521 393 558 346 536 368 b 498 474 506 417 498 444 b 521 555 498 503 506 530 b 588 621 536 580 558 602 b 689 667 618 641 652 656 b 811 682 726 677 767 682 b 933 667 855 682 896 677 b 1033 623 970 657 1003 642 b 1100 556 1063 603 1085 581 b 1124 473 1115 531 1123 504 l 1124 469 b 1103 394 1124 441 1117 417 b 1036 326 1089 369 1067 347 b 935 281 1006 307 972 292 b 811 266 898 271 857 266 b 689 281 767 266 726 271 z m 1103 20 b 1340 124 1191 43 1270 78 b 1500 281 1411 171 1464 223 b 1554 473 1537 340 1554 404 b 1500 665 1554 543 1537 606 b 1340 822 1465 724 1411 776 l 1339 823 b 1101 928 1269 869 1190 904 b 811 963 1014 951 917 963 b 521 928 705 963 609 951 b 283 822 433 904 353 869 b 122 665 212 776 158 724 b 68 474 86 607 68 543 b 122 282 68 405 86 341 b 283 124 158 224 212 172 b 522 20 353 78 433 43 b 813 -15 611 -3 707 -15 b 1103 20 918 -15 1015 -3 z m 638 1101 b 707 1118 659 1113 682 1118 b 828 1088 730 1118 771 1108 l 829 1088 b 913 1065 859 1078 887 1070 b 985 1058 939 1061 963 1058 b 1166 1107 1050 1058 1112 1074 b 1315 1251 1221 1139 1271 1187 b 1317 1258 1316 1253 1317 1255 b 1312 1267 1317 1261 1316 1264 b 1309 1269 1312 1267 1310 1268 l 1058 1348 b 1054 1349 1057 1349 1055 1349 b 1045 1345 1050 1349 1048 1348 b 985 1294 1023 1320 1002 1303 b 932 1280 968 1285 951 1280 b 892 1287 924 1280 910 1282 b 827 1308 875 1292 853 1299 b 746 1330 799 1318 772 1325 b 670 1337 720 1335 694 1337 b 467 1291 589 1337 522 1322 b 307 1146 411 1260 358 1212 b 304 1139 305 1143 304 1141 b 309 1130 304 1136 306 1133 b 313 1128 310 1129 311 1128 l 562 1044 b 566 1044 563 1044 564 1044 b 574 1048 569 1044 572 1045 b 638 1101 595 1072 616 1090 z "},"Ö":{"ha":1622,"x_min":0,"x_max":0,"o":"m 689 281 b 588 326 652 292 618 307 b 521 393 558 346 536 368 b 498 474 506 417 498 444 b 521 555 498 503 506 530 b 588 621 536 580 558 602 b 689 667 618 641 652 656 b 811 682 726 677 767 682 b 933 667 855 682 896 677 b 1033 623 970 657 1003 642 b 1100 556 1063 603 1085 581 b 1124 473 1115 531 1123 504 l 1124 469 b 1103 394 1124 441 1117 417 b 1036 326 1089 369 1067 347 b 935 281 1006 307 972 292 b 811 266 898 271 857 266 b 689 281 767 266 726 271 z m 1103 20 b 1340 124 1191 43 1270 78 b 1500 281 1411 171 1464 223 b 1554 473 1537 340 1554 404 b 1500 665 1554 543 1537 606 b 1340 822 1465 724 1411 776 l 1339 823 b 1101 928 1269 869 1190 904 b 811 963 1014 951 917 963 b 521 928 705 963 609 951 b 283 822 433 904 353 869 b 122 665 212 776 158 724 b 68 474 86 607 68 543 b 122 282 68 405 86 341 b 283 124 158 224 212 172 b 522 20 353 78 433 43 b 813 -15 611 -3 707 -15 b 1103 20 918 -15 1015 -3 z m 720 1085 b 786 1197 764 1114 786 1152 b 720 1308 786 1242 764 1278 b 560 1350 676 1336 623 1350 b 401 1307 498 1350 446 1335 b 334 1197 356 1277 334 1240 b 400 1085 334 1152 356 1114 b 560 1042 444 1057 496 1042 b 720 1085 624 1042 677 1057 z m 1221 1085 b 1289 1197 1266 1114 1289 1152 b 1271 1258 1289 1219 1282 1240 l 1270 1259 b 1219 1307 1259 1277 1242 1293 l 1219 1308 b 1147 1339 1198 1322 1174 1332 b 1061 1350 1120 1346 1091 1350 b 902 1307 999 1350 946 1335 b 834 1197 857 1277 834 1240 b 901 1085 834 1152 857 1114 b 1061 1042 943 1057 997 1042 b 1221 1085 1124 1042 1179 1057 z "},"Ø":{"ha":1622,"x_min":0,"x_max":0,"o":"m 689 281 b 588 326 652 292 618 307 b 521 393 558 346 536 368 b 498 474 506 417 498 444 b 521 555 498 503 506 530 b 588 621 536 580 558 602 b 689 667 618 641 652 656 b 811 682 726 677 767 682 b 933 667 855 682 896 677 b 1033 623 970 657 1003 642 b 1100 556 1063 603 1085 581 b 1124 473 1115 531 1123 504 l 1124 469 b 1103 394 1124 441 1117 417 b 1036 326 1089 369 1067 347 b 935 281 1006 307 972 292 b 811 266 898 271 857 266 b 689 281 767 266 726 271 z m 1103 20 b 1340 124 1191 43 1270 78 b 1500 281 1411 171 1464 223 b 1554 473 1537 340 1554 404 b 1500 665 1554 543 1537 606 b 1340 822 1465 724 1411 776 l 1339 823 b 1101 928 1269 869 1190 904 b 811 963 1014 951 917 963 b 521 928 705 963 609 951 b 283 822 433 904 353 869 b 122 665 212 776 158 724 b 68 474 86 607 68 543 b 122 282 68 405 86 341 b 283 124 158 224 212 172 b 522 20 353 78 433 43 b 813 -15 611 -3 707 -15 b 1103 20 918 -15 1015 -3 z m 1498 1059 b 1501 1066 1500 1061 1501 1063 b 1496 1075 1501 1069 1499 1072 b 1489 1078 1494 1077 1491 1078 l 1059 1078 b 1049 1072 1055 1078 1052 1076 l 124 -111 b 121 -118 123 -113 121 -116 b 126 -127 121 -121 123 -125 b 133 -130 129 -129 131 -130 l 563 -130 b 573 -125 567 -130 570 -128 z "},"Œ":{"ha":2265,"x_min":0,"x_max":0,"o":"m 689 281 b 588 326 652 292 618 307 b 521 393 558 346 536 368 b 498 474 506 417 498 444 b 521 555 498 503 506 530 b 588 621 536 580 558 602 b 689 667 618 641 652 656 b 811 682 726 677 767 682 b 933 667 855 682 896 677 b 1033 623 970 657 1003 642 b 1100 556 1063 603 1085 581 b 1124 473 1115 531 1123 504 l 1124 469 b 1103 394 1124 441 1117 417 b 1036 326 1089 369 1067 347 b 935 281 1006 307 972 292 b 811 266 898 271 857 266 b 689 281 767 266 726 271 z m 1103 20 b 1340 124 1191 43 1270 78 b 1500 281 1411 171 1464 223 b 1554 473 1537 340 1554 404 b 1500 665 1554 543 1537 606 b 1340 822 1465 724 1411 776 l 1339 823 b 1101 928 1269 869 1190 904 b 811 963 1014 951 917 963 b 521 928 705 963 609 951 b 283 822 433 904 353 869 b 122 665 212 776 158 724 b 68 474 86 607 68 543 b 122 282 68 405 86 341 b 283 124 158 224 212 172 b 522 20 353 78 433 43 b 813 -15 611 -3 707 -15 b 1103 20 918 -15 1015 -3 z m 2194 252 b 2182 263 2194 258 2190 262 l 1551 263 l 1551 342 l 2137 342 b 2148 354 2143 342 2147 346 l 2148 593 b 2137 604 2148 599 2144 603 l 1551 604 l 1551 683 l 2186 683 b 2197 695 2193 683 2196 687 l 2197 935 b 2186 947 2197 941 2194 945 l 1143 947 b 1131 935 1137 947 1133 943 l 1131 12 b 1143 0 1131 5 1135 1 l 2182 0 b 2194 12 2188 0 2193 4 z "},"Ù":{"ha":1343,"x_min":0,"x_max":0,"o":"m 1116 90 b 1276 381 1222 151 1276 248 l 1276 935 b 1263 947 1276 941 1272 945 l 868 947 b 856 935 861 947 857 943 l 856 381 b 809 292 856 342 840 312 b 671 257 773 269 727 257 b 534 292 615 257 570 269 b 488 381 503 312 488 342 l 488 935 b 475 947 488 941 484 945 l 80 947 b 68 935 73 947 69 943 l 68 381 b 119 198 68 311 85 250 b 263 68 153 143 201 100 l 264 68 b 456 5 323 40 388 19 b 671 -16 524 -9 595 -16 b 1116 90 833 -16 981 19 z m 279 1319 l 477 1060 b 488 1055 480 1057 484 1055 l 857 1055 b 862 1056 859 1055 860 1055 b 869 1067 867 1059 869 1062 b 867 1072 869 1068 868 1070 l 732 1331 b 722 1338 730 1336 726 1338 l 288 1338 b 281 1335 286 1338 283 1337 b 277 1326 278 1333 277 1329 b 279 1319 277 1324 277 1322 z "},"Ú":{"ha":1343,"x_min":0,"x_max":0,"o":"m 1116 90 b 1276 381 1222 151 1276 248 l 1276 935 b 1263 947 1276 941 1272 945 l 868 947 b 856 935 861 947 857 943 l 856 381 b 809 292 856 342 840 312 b 671 257 773 269 727 257 b 534 292 615 257 570 269 b 488 381 503 312 488 342 l 488 935 b 475 947 488 941 484 945 l 80 947 b 68 935 73 947 69 943 l 68 381 b 119 198 68 311 85 250 b 263 68 153 143 201 100 l 264 68 b 456 5 323 40 388 19 b 671 -16 524 -9 595 -16 b 1116 90 833 -16 981 19 z m 1063 1319 b 1065 1326 1065 1322 1065 1324 b 1061 1335 1065 1329 1064 1333 b 1054 1338 1059 1337 1056 1338 l 621 1338 b 610 1331 616 1338 612 1336 l 475 1072 b 474 1066 475 1070 474 1068 b 480 1056 474 1062 476 1059 b 486 1055 482 1055 484 1055 l 855 1055 b 865 1060 859 1055 863 1057 z "},"Û":{"ha":1343,"x_min":0,"x_max":0,"o":"m 1116 90 b 1276 381 1222 151 1276 248 l 1276 935 b 1263 947 1276 941 1272 945 l 868 947 b 856 935 861 947 857 943 l 856 381 b 809 292 856 342 840 312 b 671 257 773 269 727 257 b 534 292 615 257 570 269 b 488 381 503 312 488 342 l 488 935 b 475 947 488 941 484 945 l 80 947 b 68 935 73 947 69 943 l 68 381 b 119 198 68 311 85 250 b 263 68 153 143 201 100 l 264 68 b 456 5 323 40 388 19 b 671 -16 524 -9 595 -16 b 1116 90 833 -16 981 19 z m 665 1163 l 774 1055 b 783 1052 777 1053 779 1052 l 1157 1052 b 1169 1064 1164 1052 1168 1056 b 1164 1074 1169 1068 1167 1072 l 834 1338 b 827 1341 832 1339 829 1340 l 514 1341 b 506 1337 511 1341 508 1339 l 178 1073 b 174 1064 175 1070 174 1067 b 176 1057 174 1062 174 1059 b 185 1052 179 1053 182 1052 l 549 1052 b 557 1056 552 1052 555 1053 z "},"Ü":{"ha":1343,"x_min":0,"x_max":0,"o":"m 1116 90 b 1276 381 1222 151 1276 248 l 1276 935 b 1263 947 1276 941 1272 945 l 868 947 b 856 935 861 947 857 943 l 856 381 b 809 292 856 342 840 312 b 671 257 773 269 727 257 b 534 292 615 257 570 269 b 488 381 503 312 488 342 l 488 935 b 475 947 488 941 484 945 l 80 947 b 68 935 73 947 69 943 l 68 381 b 119 198 68 311 85 250 b 263 68 153 143 201 100 l 264 68 b 456 5 323 40 388 19 b 671 -16 524 -9 595 -16 b 1116 90 833 -16 981 19 z m 581 1085 b 646 1197 625 1114 646 1152 b 580 1308 646 1242 625 1278 b 420 1350 536 1336 484 1350 b 262 1307 359 1350 307 1335 b 194 1197 216 1277 194 1240 b 260 1085 194 1152 216 1114 b 420 1042 304 1057 357 1042 b 581 1085 484 1042 538 1057 z m 1082 1085 b 1149 1197 1126 1114 1149 1152 b 1131 1258 1149 1219 1143 1240 l 1131 1259 b 1080 1307 1119 1277 1102 1293 l 1079 1308 b 1007 1339 1058 1322 1034 1332 b 921 1350 981 1346 951 1350 b 762 1307 859 1350 806 1335 b 694 1197 717 1277 694 1240 b 761 1085 694 1152 717 1114 b 921 1042 804 1057 857 1042 b 1082 1085 985 1042 1039 1057 z "},"Ý":{"ha":1526,"x_min":0,"x_max":0,"o":"m 760 630 l 553 941 b 543 947 551 945 547 947 l 80 947 b 68 935 73 947 69 943 b 71 926 68 931 69 928 l 552 313 l 552 12 b 564 0 552 5 556 1 l 956 0 b 968 12 963 0 967 4 l 968 313 l 1456 927 b 1458 935 1457 930 1458 932 b 1454 944 1458 938 1457 941 b 1447 947 1452 946 1449 947 l 983 947 b 972 941 978 947 975 945 z m 1155 1319 b 1157 1326 1156 1322 1157 1324 b 1153 1335 1157 1329 1156 1333 b 1145 1338 1150 1337 1147 1338 l 713 1338 b 702 1331 708 1338 704 1336 l 567 1072 b 566 1066 566 1070 566 1068 b 572 1056 566 1062 568 1059 b 577 1055 574 1055 575 1055 l 947 1055 b 956 1060 951 1055 954 1057 z "},"̀":{"ha":0,"x_min":0,"x_max":0,"o":"m 3 1090 l 201 831 b 211 826 203 828 207 826 l 580 826 b 585 827 582 826 583 827 b 592 838 590 830 592 833 b 591 844 592 840 591 842 l 455 1103 b 445 1109 453 1107 450 1109 l 12 1109 b 5 1107 9 1109 7 1109 b 0 1098 1 1104 0 1101 b 3 1090 0 1095 1 1093 z "},"́":{"ha":0,"x_min":0,"x_max":0,"o":"m 589 1090 b 591 1098 591 1093 591 1095 b 587 1107 591 1101 590 1104 b 580 1109 585 1109 582 1109 l 147 1109 b 136 1103 142 1109 138 1107 l 1 844 b 0 838 1 842 0 840 b 6 827 0 833 2 830 b 12 826 8 827 9 826 l 381 826 b 391 831 385 826 389 828 z "},"̂":{"ha":0,"x_min":0,"x_max":0,"o":"m 491 935 l 601 827 b 609 823 603 825 606 823 l 983 823 b 996 836 990 823 994 827 b 990 845 996 840 994 843 l 661 1109 b 653 1112 659 1111 656 1112 l 340 1112 b 332 1109 337 1112 334 1111 l 4 844 b 0 836 1 842 0 839 b 3 828 0 833 1 831 b 12 823 5 825 8 823 l 375 823 b 384 827 378 823 382 825 z "},"̌":{"ha":0,"x_min":0,"x_max":0,"o":"m 491 1001 l 384 1107 b 375 1112 382 1111 378 1112 l 12 1112 b 3 1107 8 1112 5 1110 b 0 1100 1 1105 0 1102 b 4 1090 0 1097 1 1093 l 332 827 b 340 823 334 825 337 823 l 653 823 b 661 826 656 823 659 824 l 990 1090 b 996 1100 994 1093 996 1096 b 983 1112 994 1108 990 1112 l 609 1112 b 601 1108 606 1112 603 1110 z "},"̃":{"ha":0,"x_min":0,"x_max":0,"o":"m 334 873 b 402 890 355 884 378 890 b 524 859 426 890 467 880 l 525 859 b 608 837 555 849 583 842 b 680 829 635 832 659 829 b 862 878 746 829 807 846 b 1010 1022 917 910 966 958 b 1013 1029 1012 1025 1013 1027 b 1008 1038 1013 1033 1011 1036 b 1004 1040 1007 1039 1006 1040 l 753 1120 b 749 1120 752 1120 751 1120 b 741 1116 746 1120 743 1119 b 680 1065 718 1092 698 1075 b 628 1052 664 1057 646 1052 b 588 1059 619 1052 606 1054 b 522 1080 570 1063 549 1070 b 441 1101 494 1090 468 1097 b 366 1109 415 1106 390 1109 b 163 1062 285 1109 218 1093 b 3 918 106 1031 54 983 b 0 910 1 915 0 913 b 5 901 0 907 1 904 b 9 899 5 901 7 900 l 257 816 b 261 815 258 815 260 815 b 270 819 264 815 268 817 b 334 873 290 843 311 861 z "},"̄":{"ha":0,"x_min":0,"x_max":0,"o":"m 759 1081 b 747 1093 759 1088 755 1092 l 12 1093 b 0 1081 5 1093 1 1089 l 0 854 b 12 842 0 848 4 844 l 747 842 b 759 854 754 842 758 846 z "},"̇":{"ha":0,"x_min":0,"x_max":0,"o":"m 67 857 b 229 814 111 828 164 814 b 388 857 292 814 345 828 b 454 968 433 886 454 923 b 387 1078 454 1012 432 1048 b 229 1122 342 1107 290 1122 b 142 1111 197 1122 169 1118 b 70 1079 115 1103 91 1093 l 69 1078 b 18 1031 47 1065 30 1048 l 18 1029 b 0 968 6 1011 0 991 b 67 857 0 923 22 886 z "},"̈":{"ha":0,"x_min":0,"x_max":0,"o":"m 387 857 b 452 968 431 886 452 923 b 386 1079 452 1013 431 1050 b 227 1122 342 1107 290 1122 b 68 1078 165 1122 113 1107 b 0 968 22 1048 0 1012 b 66 857 0 923 22 886 b 227 814 110 828 163 814 b 387 857 290 814 344 828 z m 888 857 b 955 968 932 886 955 923 b 937 1029 955 991 949 1011 l 937 1031 b 886 1078 925 1048 908 1065 l 885 1079 b 813 1111 864 1093 840 1103 b 727 1122 787 1118 758 1122 b 568 1078 665 1122 612 1107 b 500 968 523 1048 500 1012 b 567 857 500 923 523 886 b 727 814 610 828 663 814 b 888 857 791 814 845 828 z "},"̆":{"ha":0,"x_min":0,"x_max":0,"o":"m 748 895 b 885 1099 825 942 871 1010 l 885 1100 b 876 1112 885 1107 882 1111 l 562 1112 b 551 1101 556 1112 552 1108 l 551 1100 b 521 1039 550 1076 540 1055 b 441 1016 503 1023 477 1016 b 364 1039 407 1016 381 1023 l 363 1039 b 331 1102 344 1056 333 1077 b 319 1112 329 1109 325 1112 l 12 1112 b 0 1101 5 1112 1 1108 l 0 1098 b 136 894 14 1010 60 942 b 441 823 213 846 315 823 b 748 895 568 823 670 846 z "},"̊":{"ha":0,"x_min":0,"x_max":0,"o":"m 264 929 b 238 968 247 941 238 954 b 263 1006 238 983 246 996 b 331 1023 281 1017 303 1023 b 397 1006 357 1023 378 1017 b 421 968 413 995 421 983 b 396 929 421 954 413 941 b 331 911 378 917 356 911 b 264 929 304 911 281 917 z m 25 882 b 98 813 41 857 66 834 b 205 767 130 793 165 777 b 331 752 243 757 286 752 b 457 767 376 752 418 757 b 563 813 496 777 531 793 b 636 882 595 834 620 857 b 661 966 653 908 661 936 b 636 1051 661 997 653 1025 b 563 1121 620 1077 595 1100 b 456 1168 531 1141 495 1157 b 331 1183 418 1178 376 1183 b 205 1168 286 1183 243 1178 b 98 1121 166 1157 130 1141 b 25 1051 66 1100 41 1077 b 0 966 8 1025 0 997 b 25 882 0 936 8 908 z "},"̕":{"ha":0,"x_min":0,"x_max":0,"o":"m 110 1081 b 45 976 67 1053 45 1018 b 60 925 45 958 50 941 b 101 883 69 909 83 896 l 101 882 b 161 854 120 870 140 861 b 206 846 176 850 191 848 b 174 821 196 838 185 830 b 99 776 149 804 123 789 l 98 775 b 59 754 87 769 74 762 b 6 727 43 746 26 737 b 0 717 2 724 0 721 b 1 711 0 715 1 713 b 5 707 2 709 3 708 l 108 618 b 115 615 111 616 113 615 b 120 616 117 615 119 615 b 393 780 241 669 332 724 l 394 781 b 488 958 456 838 488 897 b 422 1076 488 1006 466 1045 b 262 1122 380 1107 327 1122 b 110 1081 203 1122 153 1108 z "},"̋":{"ha":0,"x_min":0,"x_max":0,"o":"m 589 1090 b 591 1098 591 1093 591 1095 b 587 1107 591 1101 590 1104 b 580 1109 585 1109 582 1109 l 147 1109 b 136 1103 142 1109 138 1107 l 1 844 b 0 838 1 842 0 840 b 6 827 0 833 2 830 b 12 826 8 827 9 826 l 381 826 b 391 831 385 826 389 828 z m 1132 1090 b 1134 1098 1133 1093 1134 1095 b 1130 1107 1134 1101 1133 1104 b 1122 1109 1127 1109 1124 1109 l 690 1109 b 679 1103 685 1109 681 1107 l 544 844 b 543 838 543 842 543 840 b 549 827 543 833 545 830 b 554 826 551 827 552 826 l 924 826 b 933 831 928 826 931 828 z "},"̧":{"ha":0,"x_min":0,"x_max":0,"o":"m 176 20 b 166 15 172 20 168 18 l 90 -111 b 89 -117 89 -113 89 -115 b 90 -121 89 -118 89 -120 l 103 -163 b 114 -172 105 -169 109 -172 l 214 -172 b 296 -181 251 -172 278 -175 b 317 -201 310 -186 317 -193 b 302 -219 317 -208 312 -214 b 241 -228 289 -225 269 -228 b 167 -221 217 -228 192 -226 b 89 -201 141 -216 115 -210 b 85 -201 87 -201 86 -201 b 75 -207 81 -201 77 -203 l 1 -340 b 0 -347 1 -342 0 -345 b 6 -357 0 -351 2 -354 l 8 -357 b 144 -389 54 -372 100 -382 b 277 -400 188 -397 233 -400 b 412 -387 327 -400 372 -396 b 516 -349 452 -378 487 -366 b 583 -290 546 -331 568 -311 b 607 -220 599 -269 607 -245 b 547 -119 607 -179 587 -145 b 412 -72 511 -95 466 -79 l 456 0 b 458 6 458 2 458 4 b 452 16 458 10 456 14 b 446 18 450 17 448 18 z "},"̨":{"ha":0,"x_min":0,"x_max":0,"o":"m 399 -142 b 370 -145 386 -144 376 -145 b 333 -136 355 -145 342 -142 b 321 -116 326 -131 321 -124 b 364 -56 321 -99 336 -79 b 473 0 394 -33 431 -14 b 481 11 479 2 481 5 b 481 15 481 12 481 14 b 471 23 479 20 475 22 l 243 47 l 241 47 b 237 47 240 47 239 47 b 62 -55 159 16 101 -18 b 0 -179 20 -93 0 -134 b 75 -302 0 -229 25 -269 b 263 -346 120 -332 182 -346 b 386 -336 304 -346 346 -342 b 503 -306 426 -330 465 -319 b 511 -294 508 -303 511 -300 b 510 -290 511 -293 511 -292 l 460 -139 b 448 -131 458 -134 454 -131 b 445 -132 448 -131 446 -132 b 399 -142 427 -136 412 -140 z "},"à":{"ha":1313,"x_min":0,"x_max":0,"o":"m 518 269 b 475 312 498 282 484 296 b 461 360 466 327 461 343 b 518 450 461 395 480 424 l 519 450 b 663 488 557 475 605 488 b 743 478 692 488 718 485 b 808 449 767 472 789 462 b 852 408 828 436 842 422 b 865 360 861 393 865 377 b 852 312 865 343 861 327 l 851 311 b 808 269 842 296 827 282 b 743 239 789 256 767 246 b 663 230 718 233 692 230 b 518 269 606 230 558 243 z m 753 718 b 591 735 703 730 649 735 b 386 709 516 735 448 726 b 218 629 323 691 267 665 b 106 509 168 594 131 554 b 68 361 81 465 68 415 b 105 212 68 308 80 258 b 216 90 130 168 167 126 b 384 9 265 54 321 27 b 591 -18 446 -9 515 -18 b 749 -1 647 -18 700 -12 b 873 41 793 9 834 23 l 873 12 b 885 0 873 5 877 1 l 1234 0 b 1245 12 1240 0 1244 4 l 1245 706 b 1234 718 1245 713 1242 717 l 885 718 b 873 706 878 718 874 714 l 873 675 b 753 718 836 694 796 708 z m 279 1090 l 477 831 b 488 826 480 828 484 826 l 857 826 b 862 827 859 826 860 827 b 869 838 867 830 869 833 b 867 844 869 840 868 842 l 732 1103 b 722 1109 730 1107 726 1109 l 288 1109 b 281 1107 286 1109 283 1109 b 277 1098 278 1104 277 1101 b 279 1090 277 1095 277 1093 z "},"á":{"ha":1313,"x_min":0,"x_max":0,"o":"m 518 269 b 475 312 498 282 484 296 b 461 360 466 327 461 343 b 518 450 461 395 480 424 l 519 450 b 663 488 557 475 605 488 b 743 478 692 488 718 485 b 808 449 767 472 789 462 b 852 408 828 436 842 422 b 865 360 861 393 865 377 b 852 312 865 343 861 327 l 851 311 b 808 269 842 296 827 282 b 743 239 789 256 767 246 b 663 230 718 233 692 230 b 518 269 606 230 558 243 z m 753 718 b 591 735 703 730 649 735 b 386 709 516 735 448 726 b 218 629 323 691 267 665 b 106 509 168 594 131 554 b 68 361 81 465 68 415 b 105 212 68 308 80 258 b 216 90 130 168 167 126 b 384 9 265 54 321 27 b 591 -18 446 -9 515 -18 b 749 -1 647 -18 700 -12 b 873 41 793 9 834 23 l 873 12 b 885 0 873 5 877 1 l 1234 0 b 1245 12 1240 0 1244 4 l 1245 706 b 1234 718 1245 713 1242 717 l 885 718 b 873 706 878 718 874 714 l 873 675 b 753 718 836 694 796 708 z m 1063 1090 b 1065 1098 1065 1093 1065 1095 b 1061 1107 1065 1101 1064 1104 b 1054 1109 1059 1109 1056 1109 l 621 1109 b 610 1103 616 1109 612 1107 l 475 844 b 474 838 475 842 474 840 b 480 827 474 833 476 830 b 486 826 482 827 484 826 l 855 826 b 865 831 859 826 863 828 z "},"â":{"ha":1313,"x_min":0,"x_max":0,"o":"m 518 269 b 475 312 498 282 484 296 b 461 360 466 327 461 343 b 518 450 461 395 480 424 l 519 450 b 663 488 557 475 605 488 b 743 478 692 488 718 485 b 808 449 767 472 789 462 b 852 408 828 436 842 422 b 865 360 861 393 865 377 b 852 312 865 343 861 327 l 851 311 b 808 269 842 296 827 282 b 743 239 789 256 767 246 b 663 230 718 233 692 230 b 518 269 606 230 558 243 z m 753 718 b 591 735 703 730 649 735 b 386 709 516 735 448 726 b 218 629 323 691 267 665 b 106 509 168 594 131 554 b 68 361 81 465 68 415 b 105 212 68 308 80 258 b 216 90 130 168 167 126 b 384 9 265 54 321 27 b 591 -18 446 -9 515 -18 b 749 -1 647 -18 700 -12 b 873 41 793 9 834 23 l 873 12 b 885 0 873 5 877 1 l 1234 0 b 1245 12 1240 0 1244 4 l 1245 706 b 1234 718 1245 713 1242 717 l 885 718 b 873 706 878 718 874 714 l 873 675 b 753 718 836 694 796 708 z m 665 935 l 774 827 b 783 823 777 825 779 823 l 1157 823 b 1169 836 1164 823 1168 827 b 1164 845 1169 840 1167 843 l 834 1109 b 827 1112 832 1111 829 1112 l 514 1112 b 506 1109 511 1112 508 1111 l 178 844 b 174 836 175 842 174 839 b 176 828 174 833 174 831 b 185 823 179 825 182 823 l 549 823 b 557 827 552 823 555 825 z "},"ã":{"ha":1313,"x_min":0,"x_max":0,"o":"m 518 269 b 475 312 498 282 484 296 b 461 360 466 327 461 343 b 518 450 461 395 480 424 l 519 450 b 663 488 557 475 605 488 b 743 478 692 488 718 485 b 808 449 767 472 789 462 b 852 408 828 436 842 422 b 865 360 861 393 865 377 b 852 312 865 343 861 327 l 851 311 b 808 269 842 296 827 282 b 743 239 789 256 767 246 b 663 230 718 233 692 230 b 518 269 606 230 558 243 z m 753 718 b 591 735 703 730 649 735 b 386 709 516 735 448 726 b 218 629 323 691 267 665 b 106 509 168 594 131 554 b 68 361 81 465 68 415 b 105 212 68 308 80 258 b 216 90 130 168 167 126 b 384 9 265 54 321 27 b 591 -18 446 -9 515 -18 b 749 -1 647 -18 700 -12 b 873 41 793 9 834 23 l 873 12 b 885 0 873 5 877 1 l 1234 0 b 1245 12 1240 0 1244 4 l 1245 706 b 1234 718 1245 713 1242 717 l 885 718 b 873 706 878 718 874 714 l 873 675 b 753 718 836 694 796 708 z m 498 873 b 567 890 519 884 543 890 b 688 859 591 890 631 880 l 690 859 b 773 837 720 849 747 842 b 845 829 800 832 823 829 b 1027 878 911 829 972 846 b 1175 1022 1082 910 1131 958 b 1177 1029 1177 1025 1177 1027 b 1173 1038 1177 1033 1176 1036 b 1169 1040 1172 1039 1171 1040 l 918 1120 b 914 1120 917 1120 916 1120 b 905 1116 911 1120 908 1119 b 845 1065 883 1092 863 1075 b 793 1052 829 1057 811 1052 b 753 1059 784 1052 770 1054 b 687 1080 735 1063 713 1070 b 606 1101 659 1090 633 1097 b 530 1109 580 1106 555 1109 b 328 1062 450 1109 382 1093 b 168 918 271 1031 218 983 b 165 910 165 915 165 913 b 170 901 165 907 166 904 b 174 899 170 901 172 900 l 422 816 b 426 815 423 815 425 815 b 435 819 429 815 433 817 b 498 873 455 843 476 861 z "},"ä":{"ha":1313,"x_min":0,"x_max":0,"o":"m 518 269 b 475 312 498 282 484 296 b 461 360 466 327 461 343 b 518 450 461 395 480 424 l 519 450 b 663 488 557 475 605 488 b 743 478 692 488 718 485 b 808 449 767 472 789 462 b 852 408 828 436 842 422 b 865 360 861 393 865 377 b 852 312 865 343 861 327 l 851 311 b 808 269 842 296 827 282 b 743 239 789 256 767 246 b 663 230 718 233 692 230 b 518 269 606 230 558 243 z m 753 718 b 591 735 703 730 649 735 b 386 709 516 735 448 726 b 218 629 323 691 267 665 b 106 509 168 594 131 554 b 68 361 81 465 68 415 b 105 212 68 308 80 258 b 216 90 130 168 167 126 b 384 9 265 54 321 27 b 591 -18 446 -9 515 -18 b 749 -1 647 -18 700 -12 b 873 41 793 9 834 23 l 873 12 b 885 0 873 5 877 1 l 1234 0 b 1245 12 1240 0 1244 4 l 1245 706 b 1234 718 1245 713 1242 717 l 885 718 b 873 706 878 718 874 714 l 873 675 b 753 718 836 694 796 708 z m 581 857 b 646 968 625 886 646 923 b 580 1079 646 1013 625 1050 b 420 1122 536 1107 484 1122 b 262 1078 359 1122 307 1107 b 194 968 216 1048 194 1012 b 260 857 194 923 216 886 b 420 814 304 828 357 814 b 581 857 484 814 538 828 z m 1082 857 b 1149 968 1126 886 1149 923 b 1131 1029 1149 991 1143 1011 l 1131 1031 b 1080 1078 1119 1048 1102 1065 l 1079 1079 b 1007 1111 1058 1093 1034 1103 b 921 1122 981 1118 951 1122 b 762 1078 859 1122 806 1107 b 694 968 717 1048 694 1012 b 761 857 694 923 717 886 b 921 814 804 828 857 814 b 1082 857 985 814 1039 828 z "},"å":{"ha":1313,"x_min":0,"x_max":0,"o":"m 518 269 b 475 312 498 282 484 296 b 461 360 466 327 461 343 b 518 450 461 395 480 424 l 519 450 b 663 488 557 475 605 488 b 743 478 692 488 718 485 b 808 449 767 472 789 462 b 852 408 828 436 842 422 b 865 360 861 393 865 377 b 852 312 865 343 861 327 l 851 311 b 808 269 842 296 827 282 b 743 239 789 256 767 246 b 663 230 718 233 692 230 b 518 269 606 230 558 243 z m 753 718 b 591 735 703 730 649 735 b 386 709 516 735 448 726 b 218 629 323 691 267 665 b 106 509 168 594 131 554 b 68 361 81 465 68 415 b 105 212 68 308 80 258 b 216 90 130 168 167 126 b 384 9 265 54 321 27 b 591 -18 446 -9 515 -18 b 749 -1 647 -18 700 -12 b 873 41 793 9 834 23 l 873 12 b 885 0 873 5 877 1 l 1234 0 b 1245 12 1240 0 1244 4 l 1245 706 b 1234 718 1245 713 1242 717 l 885 718 b 873 706 878 718 874 714 l 873 675 b 753 718 836 694 796 708 z m 604 929 b 578 968 587 941 578 954 b 604 1006 578 983 587 996 b 671 1023 621 1017 644 1023 b 737 1006 697 1023 719 1017 b 762 968 753 995 762 983 b 736 929 762 954 753 941 b 671 911 718 917 696 911 b 604 929 644 911 622 917 z m 366 882 b 439 813 382 857 406 834 b 545 767 471 793 506 777 b 671 752 584 757 626 752 b 798 767 716 752 758 757 b 903 813 836 777 871 793 b 977 882 936 834 960 857 b 1002 966 994 908 1002 936 b 977 1051 1002 997 994 1025 b 903 1121 960 1077 936 1100 b 797 1168 871 1141 836 1157 b 671 1183 758 1178 716 1183 b 545 1168 626 1183 584 1178 b 439 1121 507 1157 471 1141 b 366 1051 406 1100 382 1077 b 340 966 349 1025 340 997 b 366 882 340 936 349 908 z "},"æ":{"ha":2083,"x_min":0,"x_max":0,"o":"m 518 269 b 475 312 498 282 484 296 b 461 360 466 327 461 343 b 518 450 461 395 480 424 l 519 450 b 663 488 557 475 605 488 b 743 478 692 488 718 485 b 808 449 767 472 789 462 b 852 408 828 436 842 422 b 865 360 861 393 865 377 b 852 312 865 343 861 327 l 851 311 b 808 269 842 296 827 282 b 743 239 789 256 767 246 b 663 230 718 233 692 230 b 518 269 606 230 558 243 z m 753 718 b 591 735 703 730 649 735 b 386 709 516 735 448 726 b 218 629 323 691 267 665 b 106 509 168 594 131 554 b 68 361 81 465 68 415 b 105 212 68 308 80 258 b 216 90 130 168 167 126 b 384 9 265 54 321 27 b 591 -18 446 -9 515 -18 b 749 -1 647 -18 700 -12 b 873 41 793 9 834 23 l 873 12 b 885 0 873 5 877 1 l 1234 0 b 1245 12 1240 0 1244 4 l 1245 706 b 1234 718 1245 713 1242 717 l 885 718 b 873 706 878 718 874 714 l 873 675 b 753 718 836 694 796 708 z m 1573 499 b 1628 457 1596 489 1615 475 l 1283 457 b 1340 499 1298 475 1317 489 b 1458 519 1371 513 1411 519 b 1573 499 1505 519 1543 513 z m 1974 528 b 1855 640 1948 571 1908 608 b 1676 711 1802 672 1742 696 b 1458 735 1610 727 1537 735 b 1227 709 1373 735 1297 726 b 1041 630 1157 691 1095 665 b 920 509 987 594 947 554 b 879 359 892 463 879 414 b 1037 91 879 252 932 163 b 1225 12 1089 56 1152 29 b 1475 -15 1297 -6 1381 -15 b 1725 9 1564 -15 1647 -7 l 1726 9 b 1946 81 1804 24 1877 49 b 1952 92 1950 83 1952 87 b 1952 97 1952 94 1952 95 b 1950 100 1951 98 1950 99 l 1807 262 b 1798 266 1804 264 1801 266 b 1792 264 1796 266 1794 265 b 1651 220 1747 245 1700 231 b 1494 206 1601 211 1549 206 b 1356 227 1439 206 1393 213 b 1291 270 1330 237 1308 252 l 1992 270 b 2003 279 1998 270 2001 273 b 2012 330 2007 297 2010 314 b 2015 378 2014 347 2015 363 b 1974 528 2015 433 2001 483 z "},"ç":{"ha":1226,"x_min":0,"x_max":0,"o":"m 945 36 b 1154 179 1036 70 1105 117 b 1157 186 1156 182 1157 184 b 1152 196 1157 190 1156 193 l 1149 197 l 853 314 b 848 315 852 315 850 315 b 839 309 844 315 842 313 b 766 255 823 286 799 269 b 649 233 730 241 692 233 b 510 271 592 233 546 245 b 457 360 475 294 457 324 b 510 448 457 395 475 425 b 651 484 546 472 593 484 b 761 465 692 484 728 477 b 844 407 793 452 821 433 b 852 404 846 404 849 404 b 857 404 853 404 855 404 l 1151 505 b 1159 517 1156 507 1159 511 b 1158 520 1159 517 1158 519 b 1156 524 1158 522 1157 523 b 954 680 1108 593 1041 645 b 642 735 861 717 756 735 b 411 709 557 735 479 726 b 228 631 342 692 281 666 l 227 631 b 108 511 174 596 134 556 b 68 360 81 466 68 416 b 108 209 68 305 81 254 b 228 88 134 163 174 123 l 229 87 b 410 11 281 54 342 28 b 637 -15 479 -6 555 -15 b 945 36 753 -15 855 2 z m 507 20 b 497 15 503 20 499 18 l 421 -111 b 420 -117 420 -113 420 -115 b 420 -121 420 -118 420 -120 l 434 -163 b 445 -172 436 -169 440 -172 l 545 -172 b 627 -181 582 -172 609 -175 b 648 -201 641 -186 648 -193 b 633 -219 648 -208 643 -214 b 572 -228 620 -225 600 -228 b 498 -221 548 -228 523 -226 b 420 -201 472 -216 446 -210 b 416 -201 418 -201 417 -201 b 406 -207 412 -201 408 -203 l 332 -340 b 331 -347 332 -342 331 -345 b 337 -357 331 -351 333 -354 l 339 -357 b 475 -389 385 -372 431 -382 b 608 -400 519 -397 564 -400 b 743 -387 658 -400 703 -396 b 847 -349 783 -378 818 -366 b 914 -290 877 -331 899 -311 b 938 -220 930 -269 938 -245 b 878 -119 938 -179 918 -145 b 743 -72 842 -95 797 -79 l 787 0 b 789 6 789 2 789 4 b 783 16 789 10 787 14 b 777 18 781 17 779 18 z "},"è":{"ha":1272,"x_min":0,"x_max":0,"o":"m 762 499 b 817 457 785 489 804 475 l 472 457 b 529 499 486 475 505 489 b 647 519 560 513 600 519 b 762 499 694 519 732 513 z m 1163 528 b 1044 640 1137 571 1097 608 b 865 711 991 672 931 696 b 647 735 799 727 726 735 b 416 709 562 735 486 726 b 230 630 346 691 283 665 b 109 509 176 594 136 554 b 68 359 81 463 68 414 b 226 91 68 252 121 163 b 414 12 278 56 340 29 b 664 -15 486 -6 570 -15 b 914 9 753 -15 836 -7 l 915 9 b 1135 81 993 24 1066 49 b 1141 92 1139 83 1141 87 b 1141 97 1141 94 1141 95 b 1139 100 1140 98 1139 99 l 996 262 b 987 266 993 264 990 266 b 981 264 985 266 983 265 b 840 220 936 245 889 231 b 683 206 790 211 738 206 b 545 227 628 206 582 213 b 479 270 519 237 496 252 l 1181 270 b 1192 279 1187 270 1190 273 b 1201 330 1196 297 1199 314 b 1204 378 1203 347 1204 363 b 1163 528 1204 433 1190 483 z m 254 1090 l 452 831 b 462 826 454 828 458 826 l 831 826 b 836 827 833 826 834 827 b 843 838 841 830 843 833 b 842 844 843 840 842 842 l 706 1103 b 696 1109 704 1107 701 1109 l 262 1109 b 256 1107 260 1109 258 1109 b 251 1098 252 1104 251 1101 b 254 1090 251 1095 252 1093 z "},"é":{"ha":1272,"x_min":0,"x_max":0,"o":"m 762 499 b 817 457 785 489 804 475 l 472 457 b 529 499 486 475 505 489 b 647 519 560 513 600 519 b 762 499 694 519 732 513 z m 1163 528 b 1044 640 1137 571 1097 608 b 865 711 991 672 931 696 b 647 735 799 727 726 735 b 416 709 562 735 486 726 b 230 630 346 691 283 665 b 109 509 176 594 136 554 b 68 359 81 463 68 414 b 226 91 68 252 121 163 b 414 12 278 56 340 29 b 664 -15 486 -6 570 -15 b 914 9 753 -15 836 -7 l 915 9 b 1135 81 993 24 1066 49 b 1141 92 1139 83 1141 87 b 1141 97 1141 94 1141 95 b 1139 100 1140 98 1139 99 l 996 262 b 987 266 993 264 990 266 b 981 264 985 266 983 265 b 840 220 936 245 889 231 b 683 206 790 211 738 206 b 545 227 628 206 582 213 b 479 270 519 237 496 252 l 1181 270 b 1192 279 1187 270 1190 273 b 1201 330 1196 297 1199 314 b 1204 378 1203 347 1204 363 b 1163 528 1204 433 1190 483 z m 1038 1090 b 1040 1098 1039 1093 1040 1095 b 1036 1107 1040 1101 1038 1104 b 1028 1109 1033 1109 1030 1109 l 595 1109 b 585 1103 591 1109 587 1107 l 450 844 b 448 838 449 842 448 840 b 454 827 448 833 450 830 b 460 826 456 827 458 826 l 829 826 b 839 831 833 826 837 828 z "},"ê":{"ha":1272,"x_min":0,"x_max":0,"o":"m 762 499 b 817 457 785 489 804 475 l 472 457 b 529 499 486 475 505 489 b 647 519 560 513 600 519 b 762 499 694 519 732 513 z m 1163 528 b 1044 640 1137 571 1097 608 b 865 711 991 672 931 696 b 647 735 799 727 726 735 b 416 709 562 735 486 726 b 230 630 346 691 283 665 b 109 509 176 594 136 554 b 68 359 81 463 68 414 b 226 91 68 252 121 163 b 414 12 278 56 340 29 b 664 -15 486 -6 570 -15 b 914 9 753 -15 836 -7 l 915 9 b 1135 81 993 24 1066 49 b 1141 92 1139 83 1141 87 b 1141 97 1141 94 1141 95 b 1139 100 1140 98 1139 99 l 996 262 b 987 266 993 264 990 266 b 981 264 985 266 983 265 b 840 220 936 245 889 231 b 683 206 790 211 738 206 b 545 227 628 206 582 213 b 479 270 519 237 496 252 l 1181 270 b 1192 279 1187 270 1190 273 b 1201 330 1196 297 1199 314 b 1204 378 1203 347 1204 363 b 1163 528 1204 433 1190 483 z m 639 935 l 749 827 b 757 823 751 825 753 823 l 1131 823 b 1143 836 1138 823 1142 827 b 1138 845 1143 840 1141 843 l 808 1109 b 801 1112 806 1111 804 1112 l 488 1112 b 480 1109 485 1112 482 1111 l 152 844 b 148 836 149 842 148 839 b 151 828 148 833 149 831 b 159 823 153 825 156 823 l 523 823 b 532 827 526 823 530 825 z "},"ë":{"ha":1272,"x_min":0,"x_max":0,"o":"m 762 499 b 817 457 785 489 804 475 l 472 457 b 529 499 486 475 505 489 b 647 519 560 513 600 519 b 762 499 694 519 732 513 z m 1163 528 b 1044 640 1137 571 1097 608 b 865 711 991 672 931 696 b 647 735 799 727 726 735 b 416 709 562 735 486 726 b 230 630 346 691 283 665 b 109 509 176 594 136 554 b 68 359 81 463 68 414 b 226 91 68 252 121 163 b 414 12 278 56 340 29 b 664 -15 486 -6 570 -15 b 914 9 753 -15 836 -7 l 915 9 b 1135 81 993 24 1066 49 b 1141 92 1139 83 1141 87 b 1141 97 1141 94 1141 95 b 1139 100 1140 98 1139 99 l 996 262 b 987 266 993 264 990 266 b 981 264 985 266 983 265 b 840 220 936 245 889 231 b 683 206 790 211 738 206 b 545 227 628 206 582 213 b 479 270 519 237 496 252 l 1181 270 b 1192 279 1187 270 1190 273 b 1201 330 1196 297 1199 314 b 1204 378 1203 347 1204 363 b 1163 528 1204 433 1190 483 z m 555 857 b 621 968 599 886 621 923 b 554 1079 621 1013 599 1050 b 395 1122 511 1107 458 1122 b 236 1078 333 1122 281 1107 b 168 968 191 1048 168 1012 b 235 857 168 923 191 886 b 395 814 278 828 331 814 b 555 857 458 814 512 828 z m 1056 857 b 1123 968 1101 886 1123 923 b 1105 1029 1123 991 1117 1011 l 1105 1031 b 1054 1078 1093 1048 1076 1065 l 1053 1079 b 981 1111 1032 1093 1008 1103 b 895 1122 955 1118 926 1122 b 736 1078 833 1122 781 1107 b 669 968 691 1048 669 1012 b 735 857 669 923 691 886 b 895 814 778 828 831 814 b 1056 857 959 814 1013 828 z "},"ì":{"ha":531,"x_min":0,"x_max":0,"o":"m 79 718 b 68 706 73 718 69 714 l 68 12 b 79 0 68 5 72 1 l 451 0 b 463 12 458 0 462 4 l 463 706 b 451 718 463 713 459 717 z m -127 1090 l 71 831 b 81 826 74 828 77 826 l 450 826 b 456 827 452 826 454 827 b 463 838 460 830 463 833 b 461 844 463 840 462 842 l 326 1103 b 315 1109 323 1107 320 1109 l -118 1109 b -125 1107 -120 1109 -123 1109 b -130 1098 -128 1104 -130 1101 b -127 1090 -130 1095 -129 1093 z "},"í":{"ha":531,"x_min":0,"x_max":0,"o":"m 80 718 b 68 706 73 718 69 714 l 68 12 b 80 0 68 5 72 1 l 451 0 b 463 12 458 0 462 4 l 463 706 b 451 718 463 713 459 717 z m 657 1090 b 659 1098 659 1093 659 1095 b 655 1107 659 1101 658 1104 b 648 1109 652 1109 650 1109 l 215 1109 b 204 1103 210 1109 206 1107 l 69 844 b 68 838 68 842 68 840 b 74 827 68 833 70 830 b 79 826 76 827 77 826 l 449 826 b 458 831 453 826 456 828 z "},"î":{"ha":531,"x_min":0,"x_max":0,"o":"m 80 718 b 68 706 73 718 69 714 l 68 12 b 80 0 68 5 72 1 l 451 0 b 463 12 458 0 462 4 l 463 706 b 451 718 463 713 459 717 z m 258 935 l 368 827 b 376 823 370 825 373 823 l 751 823 b 763 836 758 823 762 827 b 758 845 763 840 761 843 l 428 1109 b 420 1112 426 1111 423 1112 l 108 1112 b 100 1109 104 1112 102 1111 l -229 844 b -233 836 -231 842 -233 839 b -230 828 -233 833 -232 831 b -221 823 -227 825 -224 823 l 142 823 b 151 827 146 823 149 825 z "},"ï":{"ha":531,"x_min":0,"x_max":0,"o":"m 80 718 b 68 706 73 718 69 714 l 68 12 b 80 0 68 5 72 1 l 451 0 b 463 12 458 0 462 4 l 463 706 b 451 718 463 713 459 717 z m 174 857 b 240 968 218 886 240 923 b 174 1079 240 1013 218 1050 b 14 1122 130 1107 77 1122 b -144 1078 -47 1122 -100 1107 b -212 968 -190 1048 -212 1012 b -146 857 -212 923 -190 886 b 14 814 -102 828 -50 814 b 174 857 78 814 132 828 z m 675 857 b 743 968 720 886 743 923 b 725 1029 743 991 736 1011 l 724 1031 b 673 1078 713 1048 696 1065 l 673 1079 b 601 1111 652 1093 628 1103 b 515 1122 574 1118 545 1122 b 356 1078 453 1122 400 1107 b 288 968 311 1048 288 1012 b 355 857 288 923 311 886 b 515 814 397 828 451 814 b 675 857 578 814 633 828 z "},"ı":{"ha":531,"x_min":0,"x_max":0,"o":"m 80 718 b 68 706 73 718 69 714 l 68 12 b 80 0 68 5 72 1 l 451 0 b 463 12 458 0 462 4 l 463 706 b 451 718 463 713 459 717 z "},"ñ":{"ha":1251,"x_min":0,"x_max":0,"o":"m 461 368 b 508 454 461 404 477 433 b 636 490 540 478 583 490 b 749 458 685 490 723 479 b 788 375 775 439 788 411 l 788 12 b 800 0 788 5 792 1 l 1171 0 b 1183 12 1178 0 1182 4 l 1183 439 b 1059 660 1183 534 1141 608 b 927 718 1019 686 975 705 b 770 736 879 730 826 736 b 570 705 694 736 627 726 b 454 640 520 687 481 665 l 454 706 b 441 718 454 713 450 717 l 80 718 b 68 706 73 718 69 714 l 68 12 b 80 0 68 5 72 1 l 449 0 b 461 12 456 0 460 4 z m 516 873 b 585 890 537 884 560 890 b 706 859 608 890 649 880 l 707 859 b 791 837 737 849 765 842 b 863 829 817 832 841 829 b 1044 878 928 829 989 846 b 1193 1022 1099 910 1149 958 b 1195 1029 1194 1025 1195 1027 b 1190 1038 1195 1033 1194 1036 b 1187 1040 1190 1039 1188 1040 l 936 1120 b 932 1120 935 1120 933 1120 b 923 1116 928 1120 926 1119 b 863 1065 901 1092 880 1075 b 810 1052 846 1057 829 1052 b 770 1059 802 1052 788 1054 b 705 1080 753 1063 731 1070 b 624 1101 677 1090 650 1097 b 548 1109 597 1106 572 1109 b 345 1062 467 1109 400 1093 b 185 918 289 1031 236 983 b 182 910 183 915 182 913 b 187 901 182 907 184 904 b 191 899 188 901 189 900 l 439 816 b 444 815 441 815 442 815 b 452 819 447 815 450 817 b 516 873 473 843 494 861 z "},"ò":{"ha":1312,"x_min":0,"x_max":0,"o":"m 515 271 b 461 360 479 295 461 325 b 515 447 461 394 479 423 b 654 484 553 472 600 484 b 795 448 711 484 758 472 b 850 360 832 423 850 394 b 797 271 850 324 832 295 b 654 233 759 246 712 233 b 515 271 599 233 553 246 z m 1202 210 b 1244 359 1230 255 1244 305 b 1202 508 1244 413 1230 463 b 1078 630 1175 553 1133 593 b 890 711 1023 666 960 693 b 654 738 820 729 741 738 b 419 711 568 738 490 729 b 231 629 349 693 286 666 b 109 508 177 593 136 553 b 68 359 81 463 68 413 b 109 210 68 305 81 255 b 231 88 136 165 177 125 l 232 87 b 419 7 287 52 349 24 b 654 -20 490 -12 568 -20 b 890 7 741 -20 820 -12 b 1078 88 960 24 1023 52 b 1202 210 1133 125 1175 165 z m 264 1090 l 462 831 b 472 826 465 828 468 826 l 841 826 b 846 827 843 826 844 827 b 853 838 851 830 853 833 b 852 844 853 840 852 842 l 716 1103 b 706 1109 714 1107 711 1109 l 273 1109 b 266 1107 271 1109 268 1109 b 261 1098 262 1104 261 1101 b 264 1090 261 1095 262 1093 z "},"ó":{"ha":1312,"x_min":0,"x_max":0,"o":"m 515 271 b 461 360 479 295 461 325 b 515 447 461 394 479 423 b 654 484 553 472 600 484 b 795 448 711 484 758 472 b 850 360 832 423 850 394 b 797 271 850 324 832 295 b 654 233 759 246 712 233 b 515 271 599 233 553 246 z m 1202 210 b 1244 359 1230 255 1244 305 b 1202 508 1244 413 1230 463 b 1078 630 1175 553 1133 593 b 890 711 1023 666 960 693 b 654 738 820 729 741 738 b 419 711 568 738 490 729 b 231 629 349 693 286 666 b 109 508 177 593 136 553 b 68 359 81 463 68 413 b 109 210 68 305 81 255 b 231 88 136 165 177 125 l 232 87 b 419 7 287 52 349 24 b 654 -20 490 -12 568 -20 b 890 7 741 -20 820 -12 b 1078 88 960 24 1023 52 b 1202 210 1133 125 1175 165 z m 1048 1090 b 1050 1098 1049 1093 1050 1095 b 1046 1107 1050 1101 1048 1104 b 1038 1109 1043 1109 1040 1109 l 606 1109 b 595 1103 601 1109 597 1107 l 460 844 b 458 838 459 842 458 840 b 465 827 458 833 460 830 b 470 826 467 827 468 826 l 840 826 b 849 831 844 826 847 828 z "},"ô":{"ha":1312,"x_min":0,"x_max":0,"o":"m 515 271 b 461 360 479 295 461 325 b 515 447 461 394 479 423 b 654 484 553 472 600 484 b 795 448 711 484 758 472 b 850 360 832 423 850 394 b 797 271 850 324 832 295 b 654 233 759 246 712 233 b 515 271 599 233 553 246 z m 1202 210 b 1244 359 1230 255 1244 305 b 1202 508 1244 413 1230 463 b 1078 630 1175 553 1133 593 b 890 711 1023 666 960 693 b 654 738 820 729 741 738 b 419 711 568 738 490 729 b 231 629 349 693 286 666 b 109 508 177 593 136 553 b 68 359 81 463 68 413 b 109 210 68 305 81 255 b 231 88 136 165 177 125 l 232 87 b 419 7 287 52 349 24 b 654 -20 490 -12 568 -20 b 890 7 741 -20 820 -12 b 1078 88 960 24 1023 52 b 1202 210 1133 125 1175 165 z m 649 935 l 759 827 b 767 823 761 825 764 823 l 1141 823 b 1154 836 1148 823 1152 827 b 1148 845 1154 840 1152 843 l 819 1109 b 811 1112 817 1111 814 1112 l 498 1112 b 490 1109 495 1112 492 1111 l 162 844 b 158 836 159 842 158 839 b 161 828 158 833 159 831 b 170 823 163 825 166 823 l 533 823 b 542 827 536 823 540 825 z "},"õ":{"ha":1312,"x_min":0,"x_max":0,"o":"m 515 271 b 461 360 479 295 461 325 b 515 447 461 394 479 423 b 654 484 553 472 600 484 b 795 448 711 484 758 472 b 850 360 832 423 850 394 b 797 271 850 324 832 295 b 654 233 759 246 712 233 b 515 271 599 233 553 246 z m 1202 210 b 1244 359 1230 255 1244 305 b 1202 508 1244 413 1230 463 b 1078 630 1175 553 1133 593 b 890 711 1023 666 960 693 b 654 738 820 729 741 738 b 419 711 568 738 490 729 b 231 629 349 693 286 666 b 109 508 177 593 136 553 b 68 359 81 463 68 413 b 109 210 68 305 81 255 b 231 88 136 165 177 125 l 232 87 b 419 7 287 52 349 24 b 654 -20 490 -12 568 -20 b 890 7 741 -20 820 -12 b 1078 88 960 24 1023 52 b 1202 210 1133 125 1175 165 z m 483 873 b 551 890 504 884 527 890 b 673 859 575 890 616 880 l 674 859 b 758 837 704 849 732 842 b 829 829 784 832 808 829 b 1011 878 895 829 956 846 b 1160 1022 1066 910 1116 958 b 1162 1029 1161 1025 1162 1027 b 1157 1038 1162 1033 1160 1036 b 1154 1040 1156 1039 1155 1040 l 903 1120 b 899 1120 901 1120 900 1120 b 890 1116 895 1120 892 1119 b 829 1065 867 1092 847 1075 b 777 1052 813 1057 795 1052 b 737 1059 768 1052 755 1054 b 671 1080 720 1063 698 1070 b 591 1101 644 1090 617 1097 b 515 1109 564 1106 539 1109 b 312 1062 434 1109 367 1093 b 152 918 256 1031 203 983 b 149 910 150 915 149 913 b 154 901 149 907 151 904 b 158 899 155 901 156 900 l 406 816 b 410 815 408 815 409 815 b 419 819 414 815 417 817 b 483 873 439 843 460 861 z "},"ö":{"ha":1312,"x_min":0,"x_max":0,"o":"m 515 271 b 461 360 479 295 461 325 b 515 447 461 394 479 423 b 654 484 553 472 600 484 b 795 448 711 484 758 472 b 850 360 832 423 850 394 b 797 271 850 324 832 295 b 654 233 759 246 712 233 b 515 271 599 233 553 246 z m 1202 210 b 1244 359 1230 255 1244 305 b 1202 508 1244 413 1230 463 b 1078 630 1175 553 1133 593 b 890 711 1023 666 960 693 b 654 738 820 729 741 738 b 419 711 568 738 490 729 b 231 629 349 693 286 666 b 109 508 177 593 136 553 b 68 359 81 463 68 413 b 109 210 68 305 81 255 b 231 88 136 165 177 125 l 232 87 b 419 7 287 52 349 24 b 654 -20 490 -12 568 -20 b 890 7 741 -20 820 -12 b 1078 88 960 24 1023 52 b 1202 210 1133 125 1175 165 z m 565 857 b 631 968 609 886 631 923 b 564 1079 631 1013 609 1050 b 405 1122 521 1107 468 1122 b 246 1078 343 1122 291 1107 b 178 968 201 1048 178 1012 b 245 857 178 923 201 886 b 405 814 288 828 341 814 b 565 857 469 814 522 828 z m 1066 857 b 1133 968 1111 886 1133 923 b 1116 1029 1133 991 1127 1011 l 1115 1031 b 1064 1078 1103 1048 1086 1065 l 1063 1079 b 991 1111 1042 1093 1019 1103 b 905 1122 965 1118 936 1122 b 747 1078 844 1122 791 1107 b 679 968 701 1048 679 1012 b 745 857 679 923 701 886 b 905 814 788 828 842 814 b 1066 857 969 814 1023 828 z "},"ø":{"ha":1515,"x_min":0,"x_max":0,"o":"m 616 271 b 563 360 581 295 563 325 b 617 447 563 394 581 423 b 756 484 655 472 701 484 b 897 448 813 484 860 472 b 952 360 934 423 952 394 b 899 271 952 324 934 295 b 756 233 861 246 814 233 b 616 271 701 233 654 246 z m 1303 210 b 1345 359 1331 255 1345 305 b 1303 508 1345 413 1331 463 b 1179 630 1276 553 1235 593 b 991 711 1125 666 1062 693 b 756 738 922 729 843 738 b 521 711 670 738 591 729 b 333 629 451 693 388 666 b 211 508 279 593 238 553 b 170 359 183 463 170 413 b 211 210 170 305 183 255 b 333 88 238 165 279 125 l 334 87 b 521 7 389 52 451 24 b 756 -20 591 -12 670 -20 b 991 7 843 -20 922 -12 b 1179 88 1062 24 1125 52 b 1303 210 1235 125 1276 165 z m 964 824 b 965 830 965 826 965 828 b 964 837 965 832 964 835 b 962 839 963 838 962 839 l 833 839 b 829 835 831 839 830 838 l 552 -111 b 551 -117 551 -113 551 -115 b 553 -125 551 -120 552 -123 b 555 -127 553 -126 554 -127 l 684 -127 b 687 -123 685 -127 686 -125 z "},"œ":{"ha":2062,"x_min":0,"x_max":0,"o":"m 515 271 b 461 360 479 295 461 325 b 515 447 461 394 479 423 b 654 484 553 472 600 484 b 795 448 711 484 758 472 b 850 360 832 423 850 394 b 797 271 850 324 832 295 b 654 233 759 246 712 233 b 515 271 599 233 553 246 z m 1202 210 b 1244 359 1230 255 1244 305 b 1202 508 1244 413 1230 463 b 1078 630 1175 553 1133 593 b 890 711 1023 666 960 693 b 654 738 820 729 741 738 b 419 711 568 738 490 729 b 231 629 349 693 286 666 b 109 508 177 593 136 553 b 68 359 81 463 68 413 b 109 210 68 305 81 255 b 231 88 136 165 177 125 l 232 87 b 419 7 287 52 349 24 b 654 -20 490 -12 568 -20 b 890 7 741 -20 820 -12 b 1078 88 960 24 1023 52 b 1202 210 1133 125 1175 165 z m 1553 499 b 1608 457 1575 489 1594 475 l 1262 457 b 1319 499 1277 475 1296 489 b 1438 519 1351 513 1390 519 b 1553 499 1484 519 1522 513 z m 1953 528 b 1834 640 1927 571 1887 608 b 1655 711 1781 672 1721 696 b 1437 735 1589 727 1516 735 b 1206 709 1353 735 1276 726 b 1020 630 1136 691 1074 665 b 899 509 966 594 926 554 b 858 359 871 463 858 414 b 1016 91 858 252 911 163 b 1204 12 1068 56 1131 29 b 1454 -15 1277 -6 1360 -15 b 1704 9 1543 -15 1626 -7 l 1705 9 b 1925 81 1784 24 1857 49 b 1932 92 1929 83 1932 87 b 1931 97 1932 94 1931 95 b 1929 100 1931 98 1930 99 l 1786 262 b 1777 266 1783 264 1780 266 b 1771 264 1775 266 1773 265 b 1630 220 1727 245 1679 231 b 1473 206 1580 211 1528 206 b 1335 227 1418 206 1372 213 b 1270 270 1309 237 1287 252 l 1971 270 b 1982 279 1977 270 1981 273 b 1991 330 1986 297 1990 314 b 1994 378 1993 347 1994 363 b 1953 528 1994 433 1980 483 z "},"ù":{"ha":1194,"x_min":0,"x_max":0,"o":"m 985 70 b 1126 320 1080 128 1126 212 l 1126 706 b 1115 718 1126 713 1122 717 l 743 718 b 732 706 736 718 733 714 l 732 317 b 696 254 732 291 720 271 b 596 230 672 238 639 230 b 498 254 555 230 522 238 b 463 317 475 271 463 291 l 463 706 b 451 718 463 713 459 717 l 80 718 b 68 706 73 718 69 714 l 68 320 b 209 70 68 212 115 128 b 596 -18 302 12 431 -18 b 985 70 762 -18 892 12 z m 205 1090 l 404 831 b 414 826 406 828 410 826 l 783 826 b 788 827 785 826 786 827 b 795 838 793 830 795 833 b 793 844 795 840 794 842 l 658 1103 b 648 1109 656 1107 652 1109 l 214 1109 b 208 1107 212 1109 210 1109 b 203 1098 204 1104 203 1101 b 205 1090 203 1095 203 1093 z "},"ú":{"ha":1194,"x_min":0,"x_max":0,"o":"m 985 70 b 1126 320 1080 128 1126 212 l 1126 706 b 1115 718 1126 713 1122 717 l 743 718 b 732 706 736 718 733 714 l 732 317 b 696 254 732 291 720 271 b 596 230 672 238 639 230 b 498 254 555 230 522 238 b 463 317 475 271 463 291 l 463 706 b 451 718 463 713 459 717 l 80 718 b 68 706 73 718 69 714 l 68 320 b 209 70 68 212 115 128 b 596 -18 302 12 431 -18 b 985 70 762 -18 892 12 z m 989 1090 b 991 1098 991 1093 991 1095 b 987 1107 991 1101 990 1104 b 980 1109 985 1109 982 1109 l 547 1109 b 536 1103 543 1109 538 1107 l 401 844 b 400 838 401 842 400 840 b 406 827 400 833 402 830 b 412 826 408 827 410 826 l 781 826 b 791 831 785 826 789 828 z "},"û":{"ha":1194,"x_min":0,"x_max":0,"o":"m 985 70 b 1126 320 1080 128 1126 212 l 1126 706 b 1115 718 1126 713 1122 717 l 743 718 b 732 706 736 718 733 714 l 732 317 b 696 254 732 291 720 271 b 596 230 672 238 639 230 b 498 254 555 230 522 238 b 463 317 475 271 463 291 l 463 706 b 451 718 463 713 459 717 l 80 718 b 68 706 73 718 69 714 l 68 320 b 209 70 68 212 115 128 b 596 -18 302 12 431 -18 b 985 70 762 -18 892 12 z m 591 935 l 701 827 b 709 823 703 825 705 823 l 1083 823 b 1095 836 1090 823 1094 827 b 1090 845 1095 840 1093 843 l 760 1109 b 753 1112 758 1111 755 1112 l 440 1112 b 432 1109 437 1112 434 1111 l 104 844 b 100 836 101 842 100 839 b 102 828 100 833 100 831 b 111 823 105 825 108 823 l 475 823 b 484 827 478 823 481 825 z "},"ü":{"ha":1194,"x_min":0,"x_max":0,"o":"m 985 70 b 1126 320 1080 128 1126 212 l 1126 706 b 1115 718 1126 713 1122 717 l 743 718 b 732 706 736 718 733 714 l 732 317 b 696 254 732 291 720 271 b 596 230 672 238 639 230 b 498 254 555 230 522 238 b 463 317 475 271 463 291 l 463 706 b 451 718 463 713 459 717 l 80 718 b 68 706 73 718 69 714 l 68 320 b 209 70 68 212 115 128 b 596 -18 302 12 431 -18 b 985 70 762 -18 892 12 z m 507 857 b 572 968 551 886 572 923 b 506 1079 572 1013 551 1050 b 347 1122 463 1107 410 1122 b 188 1078 285 1122 233 1107 b 120 968 142 1048 120 1012 b 186 857 120 923 142 886 b 347 814 230 828 283 814 b 507 857 410 814 464 828 z m 1008 857 b 1075 968 1053 886 1075 923 b 1057 1029 1075 991 1069 1011 l 1057 1031 b 1006 1078 1045 1048 1028 1065 l 1005 1079 b 933 1111 984 1093 960 1103 b 847 1122 907 1118 878 1122 b 688 1078 785 1122 732 1107 b 621 968 643 1048 621 1012 b 687 857 621 923 643 886 b 847 814 730 828 783 814 b 1008 857 911 814 965 828 z "},"ý":{"ha":1383,"x_min":0,"x_max":0,"o":"m 516 712 b 506 718 513 715 510 718 l 80 718 b 68 706 73 718 69 714 b 71 699 68 703 68 701 l 519 26 b 443 -33 497 0 472 -20 b 338 -55 412 -47 376 -55 b 272 -49 316 -55 294 -53 b 202 -31 249 -45 226 -39 l 199 -30 b 187 -38 193 -30 190 -33 l 112 -237 b 111 -242 111 -239 111 -241 b 119 -253 111 -247 114 -250 b 231 -286 153 -267 191 -278 b 364 -296 273 -293 317 -296 b 694 -214 498 -296 608 -269 b 913 23 782 -159 854 -81 l 1314 700 b 1315 707 1315 703 1315 705 b 1310 716 1315 710 1314 713 b 1303 718 1308 718 1305 718 l 903 718 b 892 711 899 718 895 715 l 715 363 z m 1084 1090 b 1086 1098 1085 1093 1086 1095 b 1082 1107 1086 1101 1084 1104 b 1074 1109 1079 1109 1076 1109 l 642 1109 b 631 1103 637 1109 633 1107 l 496 844 b 494 838 495 842 494 840 b 500 827 494 833 496 830 b 506 826 503 827 504 826 l 876 826 b 885 831 880 826 883 828 z "},"ÿ":{"ha":1383,"x_min":0,"x_max":0,"o":"m 516 712 b 506 718 513 715 510 718 l 80 718 b 68 706 73 718 69 714 b 71 699 68 703 68 701 l 519 26 b 443 -33 497 0 472 -20 b 338 -55 412 -47 376 -55 b 272 -49 316 -55 294 -53 b 202 -31 249 -45 226 -39 l 199 -30 b 187 -38 193 -30 190 -33 l 112 -237 b 111 -242 111 -239 111 -241 b 119 -253 111 -247 114 -250 b 231 -286 153 -267 191 -278 b 364 -296 273 -293 317 -296 b 694 -214 498 -296 608 -269 b 913 23 782 -159 854 -81 l 1314 700 b 1315 707 1315 703 1315 705 b 1310 716 1315 710 1314 713 b 1303 718 1308 718 1305 718 l 903 718 b 892 711 899 718 895 715 l 715 363 z m 601 857 b 667 968 645 886 667 923 b 600 1079 667 1013 645 1050 b 441 1122 557 1107 504 1122 b 282 1078 379 1122 327 1107 b 214 968 237 1048 214 1012 b 281 857 214 923 237 886 b 441 814 324 828 377 814 b 601 857 505 814 558 828 z m 1102 857 b 1169 968 1147 886 1169 923 b 1152 1029 1169 991 1163 1011 l 1151 1031 b 1100 1078 1139 1048 1122 1065 l 1099 1079 b 1027 1111 1078 1093 1055 1103 b 941 1122 1001 1118 972 1122 b 783 1078 880 1122 827 1107 b 715 968 737 1048 715 1012 b 781 857 715 923 737 886 b 941 814 824 828 878 814 b 1102 857 1005 814 1059 828 z "},"̦":{"ha":0,"x_min":0,"x_max":0,"o":"m 110 -109 b 45 -214 67 -136 45 -172 b 60 -264 45 -231 50 -248 b 101 -307 69 -280 83 -294 l 101 -307 b 161 -335 120 -319 140 -329 b 206 -343 176 -339 191 -342 b 174 -368 196 -351 185 -359 b 99 -414 149 -386 123 -401 l 98 -414 b 59 -435 87 -420 74 -428 b 6 -463 43 -444 26 -452 b 0 -473 2 -465 0 -469 b 1 -479 0 -475 1 -477 b 5 -482 2 -480 3 -481 l 108 -572 b 115 -574 111 -574 113 -574 b 120 -574 117 -574 119 -574 b 393 -410 241 -520 332 -466 l 394 -409 b 488 -232 456 -352 488 -293 b 422 -113 488 -184 466 -144 b 262 -68 380 -83 327 -68 b 110 -109 203 -68 153 -81 z "}}}
